<?xml version="1.0" encoding="UTF-8" standalone="no"?>
<svg width="200px" height="200px" viewBox="0 0 200 200" version="1.1" xmlns="http://www.w3.org/2000/svg" xmlns:xlink="http://www.w3.org/1999/xlink">
    <!-- Generator: Sketch 3.7.1 (28215) - http://www.bohemiancoding.com/sketch -->
    <title>absolute</title>
    <desc>Created with Sketch.</desc>
    <defs></defs>
    <g id="Page-1" stroke="none" stroke-width="1" fill="none" fill-rule="evenodd">
        <g id="example-mockup" transform="translate(-531.000000, -517.000000)">
            <g id="absolute" transform="translate(531.000000, 517.000000)">
                <rect id="Rectangle-70-Copy-7" fill="#C8C6FA" x="0" y="0.330927851" width="200" height="199.004975"></rect>
                <path d="M29.395,106.42466 L29.335,104.842571 L29.395,101.947048 C29.395,101.081377 29.335,100.245556 29.425,99.379884 L29.425,98.2455557 C29.515,97.4395855 29.335,96.3649587 29.725,95.61869 L29.875,95.4395855 L30.085,95.260481 L30.415,95.1112273 C30.625,95.0216751 30.745,94.9918243 30.955,94.9918243 C31.045,94.9918243 31.135,94.9619736 31.225,94.9619736 C31.495,94.9918243 31.825,94.9619736 32.215,94.9022721 C32.305,94.8724213 32.365,94.8425706 32.425,94.8425706 C32.695,94.7828691 32.905,94.6336154 33.055,94.3948094 C33.085,94.3649587 33.145,94.2754064 33.175,94.1560034 C33.325,93.7679437 33.325,93.3500333 33.295,92.9619736 C33.295,92.8425706 33.265,92.7530184 33.265,92.6336154 C33.175,91.8276452 32.455,91.3500333 31.705,91.4395855 C31.615,91.4395855 31.525,91.4097348 31.435,91.4097348 C30.865,91.379884 30.415,91.379884 29.845,91.4694363 L29.545,91.4694363 C28.465,91.5589885 27.475,92.0963019 26.665,92.7828691 L26.455,93.0216751 L26.095,93.4694363 C26.005,93.5589885 25.975,93.61869 25.945,93.7082422 C25.795,93.9171975 25.675,94.1858542 25.585,94.4545109 L25.495,94.7530184 C25.345,95.379884 25.225,96.0366004 25.255,96.7231676 L25.255,98.7530184 L25.255,102.275406 C25.255,102.364959 25.225,102.663466 25.225,103.23063 C25.225,104.185854 25.195,105.708242 25.195,107.23063 L25.195,110.0366 L25.195,111.947048 L25.225,111.947048 C25.225,112.514212 25.225,113.021675 25.195,113.529138 L25.195,114.42466 C25.195,115.111227 25.255,115.708242 25.255,116.394809 L25.255,119.320183 C25.345,120.185854 25.555,121.051526 25.825,121.887347 C25.855,121.917197 25.915,121.976899 25.945,122.066451 C25.975,122.156003 26.005,122.245556 26.095,122.305257 L26.455,122.753018 L26.665,122.991824 C27.475,123.678391 28.465,124.215705 29.545,124.305257 L29.845,124.305257 C30.715,124.394809 31.405,124.394809 32.335,124.275406 L32.605,124.156003 L32.845,123.976899 C32.935,123.917197 32.995,123.857496 33.055,123.767944 C33.415,123.021675 33.325,122.066451 33.115,121.350033 L32.935,121.141078 C32.725,120.991824 32.485,120.902272 32.155,120.842571 L31.885,120.842571 C31.525,120.81272 31.135,120.842571 30.775,120.753018 C30.655,120.753018 30.535,120.723168 30.415,120.663466 L30.085,120.514212 L29.875,120.335108 L29.725,120.156003 C29.335,119.409735 29.515,118.335108 29.425,117.529138 L29.425,115.708242 C29.515,115.141078 29.395,114.573914 29.425,114.00675 L29.425,113.678391 C29.425,113.111227 29.395,112.454511 29.395,111.947048 L29.395,109.23063 L29.395,106.42466 Z M31.645,122.842571 C31.075,122.842571 30.475,122.902272 29.905,122.782869 C29.815,122.782869 29.815,122.753018 29.725,122.753018 C27.025,122.215705 27.055,119.320183 26.965,117.320183 L26.965,115.857496 C26.965,114.872421 27.025,113.887347 26.935,112.902272 C26.935,111.081377 26.995,109.320183 26.995,107.529138 C26.995,105.738093 26.935,104.0366 26.935,102.275406 C26.935,101.350033 26.935,100.514212 26.965,99.5888393 C26.965,98.6037646 26.965,97.6485407 26.995,96.6634661 C26.995,95.9470482 27.085,95.2007795 27.445,94.5142124 C27.655,94.0664512 27.985,93.6783915 28.375,93.379884 C28.465,93.2903318 28.525,93.3201825 28.615,93.2306303 C29.485,92.7530184 30.505,92.8425706 31.435,92.6336154 C31.585,92.6336154 31.705,92.6336154 31.795,92.6634661 C32.005,92.6634661 32.095,92.7530184 32.095,92.9619736 C32.095,93.0515258 32.035,93.0813766 32.005,93.1709288 C31.945,93.2306303 31.885,93.260481 31.795,93.260481 C30.805,93.260481 29.785,93.379884 28.855,93.7679437 L28.645,93.9171975 C28.345,94.1560034 28.105,94.4843616 27.895,94.9321228 C27.625,95.5589885 27.595,96.2157049 27.595,96.9022721 C27.565,97.8276452 27.565,98.7231676 27.565,99.6485407 C27.535,100.603765 27.535,101.558989 27.535,102.514212 C27.535,103.20078 27.565,103.797794 27.565,104.484362 C27.595,105.708242 27.655,106.902272 27.655,108.096302 C27.655,108.81272 27.595,109.499287 27.595,110.215705 C27.595,111.976899 27.565,113.678391 27.565,115.439586 C27.535,116.066451 27.535,116.663466 27.565,117.260481 C27.565,117.350033 27.595,117.439586 27.595,117.529138 C27.595,119.320183 27.685,121.469436 29.515,122.096302 C29.635,122.126153 29.725,122.156003 29.815,122.156003 C30.385,122.364959 30.865,122.185854 31.435,122.156003 C31.765,122.156003 32.035,122.394809 31.825,122.723168 C31.795,122.81272 31.735,122.842571 31.645,122.842571 L31.645,122.842571 Z M49.915,107.588839 C49.945,106.633615 50.005,105.648541 49.915,104.663466 C49.885,104.275406 49.885,103.887347 49.795,103.439586 C49.765,103.320183 49.765,103.170929 49.765,103.051526 L49.615,102.126153 C49.615,102.0366 49.585,101.917197 49.585,101.827645 C49.555,101.469436 49.465,101.170929 49.375,100.842571 L49.255,100.514212 C48.805,99.6485407 48.205,98.8724213 47.515,98.1858542 L47.365,98.0664512 C46.405,97.260481 45.145,97.0813766 43.945,96.9619736 L43.495,96.9619736 C42.145,97.0515258 40.765,96.8724213 39.475,97.3500333 L39.085,97.499287 C38.395,97.8276452 37.765,98.1261527 37.285,98.6933169 L37.045,98.9619736 C36.835,99.2306303 36.625,99.499287 36.475,99.8276452 C36.265,100.215705 36.055,100.663466 35.905,101.170929 C35.635,101.917197 35.515,102.723168 35.425,103.529138 C35.335,104.275406 35.275,105.021675 35.245,105.738093 C35.215,106.723168 35.155,107.738093 35.155,108.723168 C35.155,109.20078 35.125,109.708242 35.125,110.185854 L35.125,110.544063 C35.095,111.111227 35.125,111.678391 35.155,112.245556 C35.185,112.305257 35.185,112.394809 35.185,112.514212 C35.185,113.350033 35.215,114.156003 35.125,114.991824 L35.125,115.23063 C35.095,115.320183 35.095,115.469436 35.095,115.678391 C35.095,115.827645 35.095,115.917197 35.065,116.00675 C35.095,116.693317 34.825,117.379884 35.185,118.00675 C35.515,118.573914 36.295,118.454511 36.865,118.484362 C36.955,118.454511 37.045,118.454511 37.195,118.454511 C37.705,118.42466 38.215,118.335108 38.785,118.364959 C38.875,118.364959 38.965,118.335108 39.055,118.245556 C39.265,118.0366 39.265,117.61869 39.295,117.290332 L39.295,116.932123 C39.265,116.723168 39.265,116.484362 39.295,116.275406 L39.295,115.797794 C39.295,115.469436 39.325,115.20078 39.355,114.872421 C39.355,114.723168 39.355,114.633615 39.385,114.573914 C39.385,113.61869 39.355,112.633615 39.385,111.678391 C39.355,111.648541 39.355,111.61869 39.355,111.529138 C40.345,111.529138 41.305,111.558989 42.295,111.558989 L44.215,111.558989 C44.665,111.558989 45.085,111.61869 45.535,111.648541 L45.535,111.857496 C45.535,112.305257 45.505,112.663466 45.505,113.111227 C45.475,113.20078 45.475,113.350033 45.475,113.529138 C45.475,113.678391 45.505,113.827645 45.505,113.976899 L45.505,114.454511 C45.595,115.499287 45.295,116.514212 45.445,117.558989 C45.505,117.976899 45.715,118.245556 46.075,118.335108 C46.165,118.42466 46.285,118.394809 46.435,118.42466 C46.795,118.454511 47.245,118.484362 47.725,118.484362 L48.055,118.484362 C48.685,118.394809 49.645,118.663466 49.825,117.827645 C50.035,116.961974 49.855,116.096302 49.825,115.23063 C49.825,115.141078 49.825,115.051526 49.795,115.021675 L49.795,113.976899 C49.795,113.708242 49.795,113.409735 49.825,113.141078 C49.855,113.051526 49.855,112.902272 49.855,112.693317 C49.885,111.887347 49.885,111.20078 49.885,110.394809 C49.885,110.245556 49.885,110.126153 49.855,109.917197 L49.855,109.081377 C49.885,108.573914 49.915,108.096302 49.915,107.588839 L49.915,107.588839 Z M48.115,110.872421 C48.115,111.141078 48.115,111.409735 48.085,111.738093 L48.085,112.0366 C48.085,112.275406 48.055,112.544063 48.055,112.81272 L48.055,113.081377 C48.055,114.00675 48.085,114.932123 47.995,115.887347 L47.995,116.633615 C47.995,117.021675 47.395,117.021675 47.395,116.633615 L47.395,115.738093 C47.485,114.902272 47.425,114.096302 47.425,113.260481 C47.455,113.20078 47.455,113.111227 47.455,112.961974 C47.455,112.693317 47.485,112.42466 47.485,112.096302 L47.485,111.887347 C47.485,111.797794 47.515,111.767944 47.515,111.678391 C47.515,111.111227 47.545,110.603765 47.545,110.0366 L47.545,109.827645 L45.115,109.827645 C44.305,109.797794 43.585,109.738093 42.775,109.738093 C42.505,109.708242 42.235,109.708242 41.905,109.708242 L41.695,109.708242 C40.765,109.678391 39.805,109.708242 38.875,109.61869 C38.755,109.61869 38.665,109.61869 38.605,109.588839 L37.375,109.588839 C37.345,110.0366 37.345,110.454511 37.345,110.902272 L37.345,113.857496 C37.345,114.842571 37.255,115.797794 37.255,116.782869 C37.255,117.170929 36.655,117.170929 36.655,116.782869 C36.655,115.857496 36.745,115.021675 36.745,114.096302 L36.745,111.439586 C36.745,110.454511 36.745,109.469436 36.835,108.484362 C36.925,107.529138 36.955,106.544063 37.045,105.588839 C37.105,104.603765 37.225,103.648541 37.435,102.782869 C37.645,101.976899 37.795,101.141078 38.275,100.454511 C38.695,99.857496 39.265,99.4097348 39.955,99.0813766 C40.315,98.9321228 40.645,98.8127198 41.005,98.7231676 C41.455,98.6336154 41.785,98.6634661 42.235,98.6634661 L42.955,98.6634661 C43.045,98.6634661 43.135,98.6634661 43.195,98.6933169 C43.885,98.6933169 44.515,98.8127198 45.115,99.0813766 L45.355,99.1709288 C46.285,99.5589885 46.885,100.364959 47.335,101.290332 L47.425,101.529138 C47.515,101.738093 47.515,101.887347 47.605,102.0366 L47.665,102.305257 C47.665,102.394809 47.695,102.394809 47.695,102.484362 C47.905,103.409735 47.905,104.275406 47.995,105.20078 L47.995,105.469436 C48.025,105.738093 48.055,106.00675 48.055,106.275406 C48.055,106.364959 48.085,106.42466 48.085,106.514212 L48.145,107.947048 C48.145,108.932123 48.145,109.887347 48.115,110.872421 L48.115,110.872421 Z M47.455,106.305257 C47.425,106.215705 47.425,106.126153 47.425,106.00675 L47.365,105.499287 L47.365,105.23063 C47.335,104.305257 47.305,103.469436 47.095,102.544063 C47.095,102.454511 47.065,102.394809 47.065,102.305257 L46.795,101.588839 L46.705,101.379884 C46.345,100.693317 45.895,100.00675 45.145,99.7679437 L44.905,99.6783915 C44.335,99.4395855 43.765,99.3500333 43.165,99.260481 L41.995,99.260481 C41.635,99.260481 41.275,99.260481 40.915,99.3500333 C40.225,99.5291378 39.625,99.857496 39.115,100.364959 C38.845,100.633615 38.665,100.902272 38.515,101.170929 C38.305,101.529138 38.245,101.947048 38.155,102.335108 C37.915,103.260481 37.765,104.156003 37.675,105.081377 C37.585,106.0366 37.555,106.991824 37.465,107.976899 C37.435,108.305257 37.405,108.663466 37.405,108.991824 L37.795,108.991824 C38.125,108.961974 38.485,108.961974 38.845,108.991824 C38.935,108.991824 38.965,109.021675 39.055,109.021675 C39.895,109.111227 40.765,109.081377 41.605,109.111227 L41.875,109.111227 C42.265,109.111227 42.625,109.111227 43.015,109.141078 L45.295,109.23063 L47.545,109.23063 C47.545,108.544063 47.545,107.827645 47.515,107.141078 C47.515,106.872421 47.485,106.573914 47.455,106.305257 L47.455,106.305257 Z M44.245,107.379884 C43.615,107.350033 42.985,107.379884 42.295,107.379884 C41.335,107.379884 40.345,107.350033 39.385,107.350033 C39.415,106.484362 39.415,105.648541 39.505,104.782869 C39.505,104.484362 39.535,104.156003 39.595,103.827645 C39.595,103.738093 39.625,103.648541 39.625,103.558989 C39.655,103.20078 39.745,102.872421 39.835,102.573914 C39.895,102.42466 39.985,102.305257 40.075,102.156003 C40.105,102.096302 40.135,102.00675 40.225,101.887347 L40.435,101.678391 C40.675,101.409735 40.945,101.23063 41.275,101.141078 L41.575,101.051526 C42.445,100.961974 43.405,101.021675 44.215,101.409735 L44.395,101.529138 L44.575,101.678391 C44.665,101.797794 44.755,101.887347 44.845,102.0366 C45.235,102.514212 45.325,103.081377 45.415,103.678391 C45.535,103.917197 45.565,104.275406 45.565,104.514212 L45.625,104.842571 C45.595,105.350033 45.595,105.857496 45.625,106.394809 C45.625,106.484362 45.655,106.603765 45.655,106.693317 C45.655,106.961974 45.685,107.20078 45.685,107.469436 C45.205,107.439586 44.725,107.379884 44.245,107.379884 L44.245,107.379884 Z M67.525,112.126153 C67.525,112.00675 67.525,111.917197 67.495,111.827645 C67.435,111.379884 67.285,110.902272 67.045,110.454511 C67.015,110.364959 66.985,110.275406 66.895,110.156003 L66.715,109.917197 C66.235,109.051526 65.395,108.394809 64.465,108.00675 L64.285,107.917197 L64.495,107.827645 C64.735,107.738093 64.945,107.61869 65.155,107.499287 L65.395,107.320183 C65.785,106.991824 66.145,106.633615 66.475,106.185854 C66.535,106.156003 66.595,106.066451 66.685,105.947048 C66.805,105.738093 66.895,105.61869 66.985,105.409735 C66.985,105.379884 66.985,105.350033 67.015,105.320183 L67.105,105.141078 L67.225,104.842571 C67.705,103.887347 67.585,102.842571 67.315,101.857496 C67.285,101.827645 67.285,101.797794 67.285,101.767944 L67.225,101.558989 L67.165,101.260481 C66.925,100.454511 66.535,99.738093 65.965,99.1410781 L65.725,98.9321228 L65.455,98.7231676 L65.155,98.5739139 C64.345,98.1261527 63.535,97.6485407 62.605,97.61869 C62.515,97.61869 62.395,97.5888393 62.305,97.5888393 C61.795,97.499287 61.315,97.379884 60.745,97.4097348 C60.655,97.4097348 60.595,97.379884 60.505,97.379884 C59.785,97.2903318 59.035,97.2903318 58.315,97.379884 L58.015,97.379884 C57.535,97.4097348 57.055,97.379884 56.575,97.379884 L56.275,97.379884 C55.465,97.379884 54.685,97.2306303 53.875,97.499287 L53.665,97.6783915 L53.545,97.9171975 C53.395,98.2455557 53.335,98.6037646 53.365,98.9918243 L53.365,99.61869 C53.335,100.126153 53.275,100.633615 53.305,101.141078 L53.305,101.439586 C53.395,102.126153 53.275,102.723168 53.305,103.409735 L53.305,103.708242 C53.335,103.976899 53.305,104.275406 53.395,104.544063 C53.365,104.633615 53.365,104.723168 53.365,104.872421 C53.365,104.961974 53.335,105.081377 53.335,105.170929 L53.335,105.409735 C53.335,105.499287 53.305,105.529138 53.305,105.61869 C53.305,105.708242 53.305,105.767944 53.275,105.827645 C53.365,106.81272 53.395,107.887347 53.365,108.872421 C53.365,109.021675 53.365,109.111227 53.395,109.170929 L53.395,110.723168 C53.395,110.81272 53.365,110.902272 53.365,110.991824 C53.395,111.469436 53.395,111.947048 53.365,112.394809 L53.365,112.693317 C53.395,113.141078 53.365,113.588839 53.365,114.0366 L53.365,114.305257 C53.395,115.111227 53.335,115.947048 53.335,116.753018 L53.335,117.081377 C53.425,117.887347 53.785,118.633615 54.745,118.42466 L56.275,118.42466 C57.145,118.454511 58.045,118.573914 58.915,118.484362 L59.875,118.484362 C60.325,118.484362 60.685,118.454511 61.075,118.42466 L61.705,118.42466 C62.815,118.215705 63.985,118.096302 64.915,117.379884 L65.155,117.20078 C65.395,117.021675 65.635,116.81272 65.845,116.603765 L66.055,116.394809 C66.445,115.976899 66.745,115.529138 66.955,115.021675 L67.105,114.753018 C67.375,114.126153 67.525,113.439586 67.555,112.693317 L67.555,112.42466 C67.555,112.275406 67.555,112.185854 67.525,112.126153 L67.525,112.126153 Z M65.755,112.782869 C65.755,112.872421 65.725,112.902272 65.725,112.991824 C65.695,113.23063 65.695,113.469436 65.605,113.708242 L65.515,113.917197 C65.155,114.842571 64.555,115.588839 63.715,116.096302 L63.415,116.275406 C63.385,116.305257 63.295,116.364959 63.175,116.394809 C62.665,116.633615 62.095,116.723168 61.525,116.81272 C61.405,116.81272 61.315,116.842571 61.225,116.842571 C60.655,116.872421 60.145,116.872421 59.575,116.872421 L59.305,116.872421 C58.375,116.991824 57.565,116.991824 56.635,116.902272 C56.605,116.932123 56.515,116.932123 56.395,116.932123 L55.465,116.932123 C55.225,116.932123 55.105,116.723168 55.195,116.514212 L55.195,100.991824 C55.435,100.305257 54.835,98.8425706 55.795,98.7530184 L56.065,98.7530184 C56.185,98.7530184 56.275,98.7530184 56.335,98.7231676 C56.905,98.6933169 57.415,98.7231676 57.985,98.6336154 L58.285,98.6336154 C58.765,98.6634661 59.245,98.6336154 59.755,98.7231676 C59.815,98.6933169 59.905,98.6933169 60.025,98.6933169 L60.295,98.6933169 C60.805,98.6933169 61.315,98.7231676 61.795,98.8425706 L62.035,98.9022721 C62.965,99.1410781 63.835,99.5589885 64.465,100.364959 L64.615,100.544063 C64.825,100.782869 64.945,100.991824 65.035,101.20078 L65.155,101.439586 L65.365,102.066451 C65.365,102.096302 65.395,102.156003 65.425,102.245556 C65.485,102.633615 65.515,102.991824 65.485,103.320183 L65.485,103.529138 C65.485,104.335108 65.245,104.961974 64.855,105.648541 L64.735,105.887347 C64.705,105.917197 64.645,105.976899 64.615,106.066451 C63.985,106.81272 63.235,107.379884 62.335,107.767944 L62.065,107.857496 C61.735,107.947048 61.525,108.0366 61.195,108.066451 C61.345,108.156003 61.525,108.126153 61.675,108.215705 L61.915,108.275406 C62.305,108.364959 62.725,108.42466 63.115,108.544063 L63.535,108.753018 C63.775,108.902272 64.015,109.051526 64.255,109.260481 C64.285,109.350033 64.315,109.320183 64.405,109.409735 C64.615,109.61869 64.765,109.827645 64.915,110.0366 C64.975,110.126153 65.035,110.185854 65.065,110.275406 L65.245,110.633615 C65.395,110.872421 65.485,111.111227 65.575,111.320183 C65.605,111.409735 65.665,111.469436 65.665,111.558989 C65.875,111.947048 65.845,112.335108 65.755,112.782869 L65.755,112.782869 Z M55.795,107.797794 L56.485,107.797794 C57.385,107.767944 58.285,107.767944 59.185,107.797794 L59.605,107.797794 C60.385,107.797794 61.165,107.678391 61.915,107.439586 L62.155,107.350033 C62.905,106.991824 63.595,106.394809 64.105,105.767944 C64.195,105.678391 64.195,105.588839 64.285,105.499287 L64.405,105.290332 C64.855,104.544063 65.035,103.797794 64.975,102.991824 C64.945,102.932123 64.945,102.842571 64.945,102.753018 C64.915,102.394809 64.825,102.00675 64.615,101.588839 L64.525,101.379884 L64.435,101.141078 C64.315,100.932123 64.195,100.81272 64.045,100.603765 L63.895,100.454511 C63.415,99.976899 62.725,99.7679437 62.125,99.5291378 C62.095,99.5291378 62.035,99.499287 61.915,99.4694363 C61.825,99.4694363 61.795,99.4395855 61.705,99.4395855 L61.525,99.379884 C61.435,99.379884 61.405,99.3500333 61.315,99.3500333 C60.865,99.260481 60.505,99.2903318 60.055,99.2903318 C59.965,99.2903318 59.875,99.2903318 59.815,99.3201825 L59.575,99.3201825 C59.065,99.3500333 58.615,99.1112273 58.045,99.2007795 C57.955,99.2007795 57.955,99.2306303 57.865,99.2306303 C57.775,99.2306303 57.715,99.2306303 57.685,99.260481 C57.175,99.3500333 56.695,99.260481 56.125,99.260481 L55.885,99.260481 L55.885,99.3201825 C55.885,99.3500333 55.855,99.3500333 55.855,99.4395855 C55.885,99.6485407 55.795,99.738093 55.825,99.9470482 C55.825,100.0366 55.795,100.096302 55.795,100.185854 L55.795,107.797794 Z M64.915,111.051526 C64.885,110.961974 64.825,110.902272 64.795,110.842571 C64.765,110.753018 64.705,110.693317 64.675,110.663466 C64.645,110.573914 64.585,110.544063 64.555,110.454511 L64.105,109.887347 L63.925,109.738093 C63.715,109.529138 63.535,109.379884 63.355,109.290332 L63.145,109.141078 L62.905,109.021675 C62.875,108.991824 62.785,108.932123 62.665,108.902272 C62.395,108.753018 62.125,108.663466 61.795,108.573914 C61.705,108.544063 61.645,108.514212 61.585,108.514212 C61.075,108.364959 60.535,108.364959 60.025,108.364959 L59.245,108.364959 C58.315,108.484362 57.505,108.364959 56.575,108.364959 C56.515,108.394809 56.425,108.394809 56.305,108.394809 L55.795,108.394809 L55.795,116.335108 L56.515,116.335108 C56.605,116.335108 56.665,116.305257 56.755,116.305257 C57.685,116.42466 58.555,116.364959 59.485,116.275406 L59.725,116.275406 C60.175,116.275406 60.505,116.245556 60.955,116.215705 L61.195,116.215705 C61.675,116.185854 62.155,116.096302 62.635,115.947048 C62.755,115.917197 62.845,115.857496 62.905,115.827645 L63.295,115.61869 L63.475,115.499287 C64.165,115.111227 64.525,114.484362 64.855,113.857496 C64.885,113.767944 64.915,113.738093 64.915,113.738093 C64.975,113.648541 65.005,113.558989 65.005,113.469436 L65.095,113.20078 C65.215,112.663466 65.215,112.096302 65.065,111.469436 C65.035,111.350033 65.005,111.290332 65.005,111.260481 L64.915,111.051526 Z M57.535,104.096302 C57.565,103.61869 57.505,103.170929 57.505,102.693317 L57.505,102.394809 C57.505,102.066451 57.415,101.678391 57.535,101.439586 C57.565,101.409735 57.625,101.350033 57.775,101.320183 L57.985,101.320183 C58.735,101.23063 59.455,101.320183 60.265,101.320183 C60.385,101.320183 60.475,101.320183 60.535,101.290332 C61.285,101.379884 62.215,101.529138 62.575,102.215705 C62.635,102.275406 62.695,102.364959 62.755,102.484362 C62.845,102.633615 62.965,102.842571 63.055,103.051526 L63.115,103.320183 L63.115,103.409735 C63.115,103.499287 63.145,103.529138 63.145,103.61869 C63.205,103.827645 63.205,104.0366 63.175,104.275406 L63.115,104.514212 L63.025,104.842571 C62.995,104.932123 62.995,105.021675 62.905,105.111227 C62.815,105.379884 62.605,105.588839 62.305,105.738093 L62.035,105.857496 C61.195,106.096302 60.295,106.0366 59.425,106.00675 L59.095,106.00675 C58.765,106.00675 58.495,105.976899 58.165,105.976899 L57.475,105.976899 L57.475,105.439586 C57.445,105.379884 57.445,105.290332 57.445,105.141078 C57.445,105.021675 57.445,104.932123 57.475,104.872421 L57.475,104.633615 L57.505,104.633615 L57.505,104.603765 C57.505,104.514212 57.535,104.454511 57.535,104.364959 C57.535,104.245556 57.535,104.156003 57.505,104.096302 L57.535,104.096302 Z M63.205,112.096302 L63.145,112.573914 C63.115,112.693317 63.055,112.782869 63.025,112.842571 L62.905,113.051526 C62.815,113.141078 62.785,113.20078 62.755,113.290332 C62.515,113.588839 62.185,113.827645 61.795,113.976899 L61.495,114.066451 C61.255,114.156003 60.985,114.215705 60.715,114.245556 C60.655,114.275406 60.565,114.275406 60.445,114.275406 C59.515,114.245556 58.465,114.454511 57.595,114.066451 C57.535,114.0366 57.505,114.00675 57.505,113.917197 C57.415,113.708242 57.505,113.379884 57.475,113.111227 L57.475,112.0366 C57.445,112.00675 57.445,111.917197 57.445,111.827645 C57.355,111.141078 57.565,110.544063 57.475,109.917197 C58.225,110.00675 58.945,109.917197 59.695,109.947048 L60.985,109.947048 C61.045,109.976899 61.135,109.976899 61.255,109.976899 C61.885,110.066451 62.485,110.245556 62.845,110.723168 L62.935,110.932123 L63.055,111.170929 L63.115,111.439586 L63.205,112.0366 L63.205,112.096302 Z M75.415,102.335108 C75.445,102.275406 75.475,102.185854 75.565,102.066451 L75.775,101.857496 C76.015,101.588839 76.285,101.409735 76.615,101.320183 L76.915,101.23063 C77.785,101.141078 78.745,101.20078 79.555,101.588839 L79.735,101.708242 L79.915,101.857496 C80.005,101.976899 80.095,102.066451 80.185,102.215705 C80.395,102.484362 80.515,102.723168 80.605,102.991824 L80.665,103.260481 C80.695,103.469436 80.725,103.678391 80.815,103.887347 C80.875,104.096302 80.965,104.245556 81.115,104.394809 C81.925,104.663466 82.855,104.484362 83.695,104.573914 C83.815,104.573914 83.905,104.573914 83.965,104.603765 C84.565,104.603765 85.105,104.215705 85.135,103.588839 C85.135,103.439586 85.135,103.350033 85.105,103.290332 L84.985,102.364959 L84.925,102.126153 C84.835,101.678391 84.745,101.290332 84.505,100.902272 C84.415,100.693317 84.295,100.484362 84.205,100.335108 C84.055,99.976899 83.815,99.61869 83.515,99.260481 L83.305,99.0515258 C82.975,98.7231676 82.615,98.4246601 82.255,98.1858542 L82.015,98.0067497 C81.175,97.499287 80.215,97.3500333 79.285,97.1410781 L78.835,97.1410781 C77.485,97.2306303 76.105,97.0515258 74.815,97.5291378 L74.425,97.6783915 C73.735,98.0067497 73.105,98.3052572 72.625,98.8724213 L72.385,99.1410781 C72.175,99.4097348 71.965,99.6783915 71.815,100.00675 C71.635,100.305257 71.485,100.603765 71.395,100.872421 L71.245,101.350033 C71.035,101.827645 70.915,102.275406 70.885,102.842571 C70.885,102.932123 70.855,103.021675 70.855,103.141078 C70.945,104.066451 70.855,105.021675 71.305,105.887347 C71.335,105.947048 71.365,106.0366 71.455,106.156003 C71.575,106.364959 71.695,106.514212 71.845,106.663466 L72.055,106.872421 C72.505,107.379884 73.015,107.827645 73.645,108.215705 L73.825,108.305257 L74.035,108.394809 C74.905,108.961974 75.895,109.23063 76.825,109.61869 L77.125,109.708242 C78.055,109.947048 78.925,110.335108 79.735,110.81272 C79.825,110.842571 79.885,110.872421 79.975,110.961974 C80.125,111.051526 80.245,111.20078 80.365,111.350033 C80.395,111.439586 80.455,111.499287 80.485,111.529138 L80.575,111.797794 L80.635,112.0366 L80.635,112.335108 C80.605,113.051526 80.365,113.708242 79.795,114.185854 L79.585,114.335108 C79.435,114.42466 79.285,114.514212 79.135,114.544063 L78.835,114.633615 C77.965,114.723168 77.005,114.663466 76.195,114.275406 L76.015,114.156003 L75.835,114.00675 C75.745,113.887347 75.655,113.797794 75.565,113.648541 C75.295,113.320183 75.175,112.961974 75.085,112.603765 L75.025,112.305257 C75.025,112.215705 74.995,112.185854 74.995,112.096302 C74.995,111.887347 74.965,111.678391 74.875,111.529138 L74.755,111.320183 L74.575,111.141078 C74.485,111.111227 74.395,111.051526 74.275,111.021675 C73.945,110.932123 73.585,110.902272 73.195,110.902272 C73.075,110.902272 72.985,110.902272 72.925,110.872421 C72.445,110.961974 71.875,110.872421 71.365,110.961974 C71.275,110.961974 71.185,110.991824 71.065,111.051526 C70.465,111.260481 70.525,111.947048 70.645,112.454511 L70.645,112.633615 L70.645,112.663466 C70.645,112.723168 70.645,112.753018 70.675,112.782869 C70.795,113.529138 70.885,114.245556 71.245,114.932123 L71.335,115.170929 L71.455,115.409735 C71.545,115.499287 71.515,115.558989 71.605,115.648541 C71.815,116.00675 72.025,116.335108 72.235,116.603765 L72.445,116.81272 C72.775,117.141078 73.135,117.439586 73.495,117.678391 L73.735,117.857496 C74.575,118.364959 75.535,118.514212 76.465,118.723168 L76.915,118.723168 C78.265,118.633615 79.645,118.81272 80.935,118.335108 L81.325,118.185854 C82.015,117.857496 82.645,117.558989 83.125,116.991824 L83.365,116.723168 C83.575,116.454511 83.785,116.185854 83.935,115.857496 L84.055,115.648541 L84.145,115.439586 C84.535,114.633615 84.775,113.767944 84.925,112.902272 C84.925,112.782869 84.955,112.693317 84.955,112.573914 C84.955,112.245556 84.925,111.917197 84.835,111.61869 C84.835,111.499287 84.835,111.409735 84.805,111.320183 C84.745,110.335108 84.385,109.499287 83.755,108.782869 L83.605,108.603765 L83.125,108.066451 L82.855,107.827645 C82.285,107.379884 81.655,107.170929 81.025,106.932123 C80.965,106.902272 80.875,106.842571 80.755,106.81272 C79.795,106.42466 78.775,106.185854 77.845,105.738093 C77.725,105.708242 77.635,105.678391 77.605,105.678391 C76.885,105.439586 76.195,105.141078 75.625,104.633615 L75.415,104.394809 C74.965,103.917197 74.965,103.111227 75.295,102.544063 C75.325,102.454511 75.355,102.394809 75.415,102.335108 L75.415,102.335108 Z M74.935,99.857496 C74.605,100.066451 74.275,100.335108 74.005,100.663466 L73.855,100.842571 C73.255,101.708242 73.105,102.723168 73.315,103.767944 L73.375,104.0366 C73.495,104.753018 73.975,105.350033 74.605,105.797794 L74.845,105.976899 C75.235,106.275406 75.655,106.514212 76.105,106.693317 L76.375,106.81272 C76.615,106.902272 76.855,107.021675 77.125,107.170929 L77.335,107.260481 L77.545,107.350033 L77.725,107.409735 C78.595,107.797794 79.495,108.126153 80.365,108.514212 L80.635,108.663466 C80.965,108.782869 81.205,108.961974 81.445,109.111227 L81.685,109.290332 C82.285,109.797794 82.645,110.514212 82.975,111.23063 L83.035,111.469436 C83.125,111.678391 83.095,111.797794 83.095,112.00675 L83.095,112.245556 C83.095,112.603765 83.065,112.961974 82.975,113.290332 L82.855,113.708242 L82.795,113.887347 C82.765,114.00675 82.705,114.096302 82.675,114.185854 L82.555,114.454511 C82.255,115.081377 81.835,115.588839 81.295,115.976899 L81.025,116.156003 C80.695,116.364959 80.335,116.544063 80.005,116.693317 L79.735,116.81272 C78.745,117.141078 77.695,117.051526 76.645,117.021675 L76.345,116.961974 C75.415,116.753018 74.605,116.484362 73.915,115.797794 L73.705,115.588839 L73.495,115.379884 C72.805,114.573914 72.475,113.61869 72.445,112.573914 L72.385,112.364959 C72.265,112.00675 72.835,111.857496 72.955,112.215705 C72.985,112.305257 73.015,112.364959 73.015,112.42466 C73.015,112.514212 73.045,112.544063 73.045,112.633615 C73.075,113.558989 73.405,114.364959 74.035,115.081377 L74.245,115.260481 C74.815,115.857496 75.565,116.215705 76.375,116.42466 C76.465,116.42466 76.555,116.454511 76.675,116.454511 C77.725,116.693317 78.835,116.544063 79.825,116.185854 L80.035,116.096302 L80.635,115.708242 C80.725,115.678391 80.785,115.61869 80.815,115.588839 L80.965,115.469436 L81.205,115.260481 C81.595,114.872421 81.925,114.42466 82.135,113.917197 C82.165,113.827645 82.225,113.738093 82.255,113.61869 L82.315,113.439586 C82.405,113.170929 82.435,112.902272 82.465,112.663466 C82.465,112.514212 82.465,112.42466 82.495,112.335108 L82.495,112.0366 C82.375,111.111227 81.925,110.275406 81.235,109.708242 C81.145,109.61869 81.085,109.588839 80.995,109.558989 C80.845,109.439586 80.695,109.350033 80.485,109.260481 C80.455,109.23063 80.365,109.170929 80.245,109.141078 C79.285,108.633615 78.265,108.275406 77.275,107.917197 C77.185,107.887347 77.125,107.827645 77.095,107.797794 L76.915,107.708242 C76.645,107.558989 76.375,107.439586 76.105,107.320183 L75.805,107.20078 C75.295,106.991824 74.875,106.753018 74.515,106.484362 L74.275,106.305257 C73.555,105.738093 72.955,105.021675 72.745,104.096302 C72.745,104.00675 72.715,103.887347 72.715,103.797794 C72.385,102.753018 72.595,101.648541 73.195,100.81272 L73.375,100.544063 L73.525,100.335108 L73.705,100.066451 C74.065,99.6783915 74.455,99.379884 74.905,99.1410781 L75.205,99.0216751 C75.505,98.9022721 75.805,98.8127198 76.135,98.7530184 C76.285,98.7530184 76.375,98.7530184 76.465,98.7231676 C77.545,98.6336154 78.625,98.6037646 79.675,98.9619736 C79.705,98.9619736 79.795,98.9918243 79.915,99.0216751 C80.185,99.0813766 80.395,99.1709288 80.605,99.2903318 L80.845,99.4395855 C81.835,99.9470482 82.495,100.723168 82.825,101.767944 L82.915,102.0366 C83.005,102.305257 83.035,102.573914 83.005,102.902272 C83.005,103.290332 82.405,103.290332 82.405,102.902272 C82.435,102.633615 82.405,102.394809 82.315,102.156003 L82.225,101.887347 C81.985,100.961974 81.265,100.305257 80.395,99.857496 L80.185,99.7679437 C80.035,99.6783915 79.855,99.61869 79.705,99.5888393 C79.585,99.5589885 79.495,99.5291378 79.465,99.5291378 C78.535,99.3201825 77.635,99.1709288 76.705,99.260481 C76.585,99.260481 76.495,99.260481 76.435,99.2903318 C75.985,99.379884 75.625,99.499287 75.175,99.7082422 L74.935,99.857496 Z M102.895,107.767944 C102.925,106.81272 102.985,105.827645 102.895,104.842571 L102.835,104.245556 L102.835,104.0366 L102.775,103.469436 C102.625,102.603765 102.625,101.708242 102.145,100.902272 C102.055,100.693317 101.935,100.484362 101.845,100.335108 C101.695,99.976899 101.455,99.61869 101.155,99.260481 L100.945,99.0515258 C100.615,98.7231676 100.255,98.4246601 99.895,98.1858542 L99.655,98.0067497 C98.815,97.499287 97.855,97.3500333 96.925,97.1410781 L96.475,97.1410781 C95.125,97.2306303 93.745,97.0515258 92.455,97.5291378 L92.065,97.6783915 C91.375,98.0067497 90.745,98.3052572 90.265,98.8724213 L90.025,99.1410781 C89.815,99.4097348 89.605,99.6783915 89.455,100.00675 C89.245,100.394809 89.035,100.842571 88.885,101.350033 C88.615,102.096302 88.495,102.902272 88.405,103.708242 L88.345,104.275406 C88.345,104.364959 88.315,104.454511 88.315,104.544063 L88.255,105.350033 C88.255,105.439586 88.225,105.529138 88.225,105.61869 C88.135,106.364959 88.135,107.081377 88.165,107.827645 L88.165,108.096302 C88.255,108.902272 88.225,109.648541 88.255,110.454511 L88.255,110.723168 C88.285,111.20078 88.315,111.678391 88.405,112.156003 C88.495,112.961974 88.615,113.767944 88.885,114.514212 C89.035,115.021675 89.245,115.469436 89.455,115.857496 C89.605,116.185854 89.815,116.454511 90.025,116.723168 L90.265,116.991824 C90.745,117.558989 91.375,117.857496 92.065,118.185854 L92.455,118.335108 C93.745,118.81272 95.125,118.633615 96.475,118.723168 L96.925,118.723168 C97.855,118.514212 98.815,118.364959 99.655,117.857496 L99.895,117.678391 C100.255,117.439586 100.615,117.141078 100.945,116.81272 L101.155,116.603765 C101.755,115.857496 102.145,114.991824 102.535,114.126153 C102.535,114.0366 102.565,113.947048 102.565,113.857496 C102.565,113.767944 102.595,113.648541 102.595,113.558989 L102.745,112.633615 C102.745,112.514212 102.745,112.364959 102.775,112.245556 C102.865,111.797794 102.865,111.409735 102.895,111.021675 C102.985,110.0366 102.925,109.051526 102.895,108.096302 L102.895,107.767944 Z M98.575,110.275406 L98.575,110.454511 C98.575,110.633615 98.575,110.753018 98.605,110.842571 L98.545,111.170929 C98.545,111.409735 98.515,111.767944 98.395,112.00675 C98.305,112.603765 98.215,113.170929 97.825,113.648541 C97.735,113.797794 97.645,113.887347 97.555,114.00675 L97.375,114.156003 L97.195,114.275406 C96.385,114.663466 95.425,114.723168 94.555,114.633615 L94.255,114.544063 C93.925,114.454511 93.655,114.275406 93.415,114.00675 L93.205,113.797794 C93.115,113.678391 93.085,113.588839 93.055,113.529138 C92.965,113.379884 92.875,113.260481 92.815,113.111227 C92.725,112.81272 92.635,112.484362 92.605,112.126153 C92.605,112.0366 92.575,111.947048 92.575,111.857496 C92.515,111.529138 92.485,111.23063 92.485,110.902272 C92.455,110.454511 92.425,110.096302 92.425,109.708242 C92.425,109.588839 92.395,109.499287 92.395,109.409735 C92.395,109.290332 92.365,109.20078 92.365,109.081377 C92.365,108.215705 92.485,107.320183 92.395,106.454511 C92.395,106.364959 92.425,106.275406 92.425,106.156003 C92.425,105.767944 92.455,105.409735 92.485,104.961974 C92.485,104.663466 92.515,104.335108 92.575,104.00675 C92.575,103.917197 92.605,103.827645 92.605,103.738093 C92.635,103.379884 92.725,103.051526 92.815,102.753018 C92.875,102.603765 92.965,102.484362 93.055,102.335108 C93.085,102.275406 93.115,102.185854 93.205,102.066451 L93.415,101.857496 C93.655,101.588839 93.925,101.409735 94.255,101.320183 L94.555,101.23063 C95.425,101.141078 96.385,101.20078 97.195,101.588839 L97.375,101.708242 L97.555,101.857496 C97.645,101.976899 97.735,102.066451 97.825,102.215705 C98.215,102.693317 98.305,103.260481 98.395,103.857496 C98.515,104.096302 98.545,104.454511 98.545,104.693317 L98.605,105.021675 C98.575,105.260481 98.575,105.529138 98.575,105.797794 L98.575,106.0366 L98.575,106.753018 L98.575,106.991824 C98.605,107.260481 98.635,107.499287 98.635,107.827645 L98.635,108.096302 C98.635,108.603765 98.515,109.111227 98.545,109.61869 C98.545,109.708242 98.575,109.738093 98.575,109.827645 L98.575,110.275406 Z M101.095,111.170929 L101.035,111.797794 C101.035,111.887347 101.035,111.976899 101.005,112.00675 C100.885,113.051526 100.465,114.0366 100.075,114.842571 L100.045,114.872421 L99.865,115.111227 L99.685,115.350033 L99.445,115.588839 C98.905,116.096302 98.305,116.484362 97.615,116.723168 L97.585,116.723168 L97.315,116.782869 L97.135,116.842571 C97.045,116.842571 96.955,116.872421 96.835,116.902272 C96.745,116.902272 96.625,116.932123 96.535,116.932123 C96.205,117.021675 95.845,117.051526 95.455,117.051526 C94.825,117.051526 94.165,116.961974 93.475,116.753018 L93.175,116.663466 L93.145,116.663466 L92.875,116.544063 L92.365,116.305257 C91.615,115.917197 91.045,115.23063 90.595,114.245556 L90.415,113.708242 C90.205,113.141078 90.145,112.514212 90.055,111.947048 C89.965,111.61869 89.965,111.260481 89.935,110.902272 L89.935,109.917197 C89.905,109.409735 89.905,108.842571 89.875,108.514212 L89.875,108.305257 C89.875,107.738093 89.905,105.797794 89.905,105.260481 C89.905,105.170929 89.935,105.141078 89.935,105.111227 L89.935,105.051526 L89.995,104.454511 L89.995,104.275406 L90.055,103.857496 C90.085,103.350033 90.175,102.872421 90.325,102.364959 L90.415,102.066451 C90.445,101.976899 90.445,101.857496 90.535,101.767944 C90.565,101.708242 90.595,101.61869 90.685,101.499287 L90.685,101.469436 C91.135,100.782869 91.795,99.8276452 92.845,99.260481 L92.875,99.260481 L93.175,99.1410781 C93.895,98.8724213 94.675,98.8724213 95.425,98.8425706 L96.595,98.8425706 C97.165,98.9619736 97.795,99.0515258 98.365,99.379884 L98.605,99.499287 L98.635,99.5291378 C98.905,99.738093 99.085,99.857496 99.295,100.066451 L99.505,100.275406 C100.345,101.20078 100.885,102.245556 100.975,103.409735 C100.975,103.499287 101.005,103.558989 101.005,103.648541 L101.005,103.678391 L101.065,104.096302 L101.065,104.245556 L101.095,104.693317 C101.185,105.409735 101.095,107.558989 101.095,108.245556 L101.095,108.484362 C101.125,109.320183 101.125,110.42466 101.095,111.111227 L101.095,111.170929 Z M100.525,108.245556 C100.525,107.558989 100.615,105.409735 100.525,104.723168 L100.495,104.275406 L100.495,104.126153 L100.465,103.738093 L100.405,103.469436 L100.405,103.439586 C100.315,102.394809 99.865,101.469436 99.115,100.663466 L98.905,100.484362 C98.755,100.335108 98.545,100.156003 98.305,99.976899 L98.125,99.8873467 C97.615,99.61869 97.045,99.499287 96.475,99.4097348 L95.425,99.4097348 C94.705,99.4097348 94.045,99.4395855 93.355,99.6783915 L93.085,99.7679437 C92.155,100.245556 91.555,101.111227 91.165,101.738093 L91.045,102.00675 L90.955,102.275406 L90.865,102.514212 C90.715,102.991824 90.685,103.469436 90.595,103.917197 L90.565,104.305257 L90.565,104.42466 C90.535,104.454511 90.535,104.484362 90.535,104.484362 L90.535,104.514212 L90.505,105.081377 C90.505,105.141078 90.505,105.170929 90.475,105.20078 L90.475,105.290332 C90.475,105.797794 90.445,107.738093 90.445,108.275406 L90.445,108.484362 C90.475,108.842571 90.475,109.409735 90.475,109.887347 C90.475,110.215705 90.505,110.454511 90.505,110.663466 L90.505,110.872421 L90.595,111.887347 C90.685,112.454511 90.745,112.961974 90.955,113.529138 L91.105,114.00675 C91.555,114.932123 92.065,115.529138 92.635,115.797794 C92.725,115.887347 92.875,115.947048 93.085,116.00675 L93.355,116.126153 L93.625,116.215705 C94.285,116.394809 94.885,116.484362 95.455,116.484362 C95.785,116.484362 96.115,116.454511 96.415,116.394809 L96.445,116.394809 L96.715,116.335108 C96.775,116.335108 96.865,116.305257 96.985,116.275406 L97.015,116.275406 C97.105,116.275406 97.105,116.245556 97.195,116.245556 C97.315,116.215705 97.405,116.185854 97.435,116.185854 C98.005,115.976899 98.575,115.648541 99.055,115.170929 L99.265,114.991824 L99.415,114.782869 L99.565,114.573914 C99.955,113.767944 100.345,112.902272 100.465,111.947048 L100.465,111.738093 C100.495,111.529138 100.525,111.350033 100.525,111.141078 L100.525,111.081377 C100.615,110.394809 100.555,109.320183 100.525,108.484362 L100.525,108.245556 Z M116.245,115.917197 C116.215,115.767944 116.215,115.61869 116.215,115.409735 L116.215,115.141078 C116.305,114.693317 116.185,114.185854 115.585,114.275406 L110.515,114.275406 L110.515,111.678391 C110.515,111.409735 110.545,111.141078 110.545,110.872421 C110.545,110.782869 110.575,110.693317 110.575,110.603765 C110.665,109.678391 110.545,108.782869 110.575,107.857496 C110.575,107.738093 110.575,107.648541 110.545,107.558989 L110.545,106.394809 C110.635,105.588839 110.635,104.902272 110.725,104.096302 L110.725,103.797794 C110.725,103.469436 110.695,103.111227 110.695,102.782869 L110.695,102.514212 C110.695,101.588839 110.725,100.693317 110.635,99.7679437 L110.635,99.499287 C110.635,98.7828691 110.875,97.8276452 110.245,97.4395855 L110.065,97.379884 L109.855,97.379884 C109.795,97.3500333 109.705,97.3500333 109.585,97.3500333 C109.435,97.3201825 109.255,97.3201825 109.105,97.3201825 C108.955,97.3201825 108.865,97.3201825 108.775,97.3500333 L108.535,97.3500333 C108.175,97.3500333 107.845,97.379884 107.485,97.379884 C107.395,97.379884 107.305,97.4097348 107.215,97.4097348 C106.885,97.499287 106.585,97.61869 106.435,98.0067497 C106.435,98.0963019 106.405,98.1858542 106.405,98.3052572 C106.375,98.4843616 106.405,98.6933169 106.465,98.9321228 L106.465,100.00675 C106.465,100.842571 106.435,101.708242 106.465,102.454511 L106.465,102.663466 C106.375,103.738093 106.405,104.81272 106.375,105.887347 L106.375,106.215705 C106.345,106.782869 106.315,107.260481 106.345,107.827645 L106.345,109.20078 C106.345,109.887347 106.375,112.454511 106.375,114.693317 L106.375,114.902272 C106.345,115.857496 106.225,116.872421 106.315,117.857496 C106.315,117.947048 106.315,118.0366 106.345,118.066451 C106.375,118.156003 106.435,118.215705 106.465,118.245556 C106.915,118.484362 107.335,118.484362 107.815,118.454511 L108.115,118.454511 C109.045,118.364959 109.945,118.454511 110.875,118.42466 L114.235,118.42466 C114.325,118.394809 114.445,118.394809 114.595,118.394809 C114.745,118.394809 114.865,118.42466 115.075,118.42466 L115.315,118.42466 C115.915,118.514212 116.215,118.0366 116.215,117.469436 L116.215,117.290332 C116.305,116.932123 116.275,116.544063 116.245,116.185854 L116.245,115.917197 Z M114.655,116.454511 C114.055,116.573914 113.455,116.544063 112.885,116.544063 L112.645,116.544063 C112.075,116.633615 111.475,116.544063 110.905,116.573914 L110.725,116.573914 C110.455,116.573914 110.215,116.573914 109.945,116.544063 L108.295,116.544063 C108.205,116.484362 108.145,116.394809 108.145,116.275406 L108.145,114.872421 C108.055,114.364959 108.085,113.857496 108.085,113.350033 C108.085,113.23063 108.115,113.141078 108.115,113.051526 C108.115,112.842571 108.115,112.723168 108.145,112.514212 L108.145,110.335108 C108.145,109.648541 108.115,108.991824 108.085,108.305257 L108.085,108.0366 C108.085,107.558989 108.115,107.111227 108.145,106.663466 L108.145,106.0366 C108.175,105.23063 108.175,104.544063 108.175,103.738093 C108.175,103.648541 108.175,103.558989 108.145,103.499287 L108.145,102.693317 C108.055,102.335108 108.115,101.976899 108.115,101.648541 L108.115,101.051526 C108.145,100.991824 108.145,100.902272 108.145,100.753018 L108.145,98.8724213 C108.175,98.8127198 108.175,98.7231676 108.175,98.6037646 C108.175,98.4545109 108.265,98.3948094 108.445,98.3948094 C108.565,98.3948094 108.745,98.4545109 108.745,98.6037646 L108.745,100.842571 C108.655,101.648541 108.745,102.454511 108.775,103.260481 C108.805,103.350033 108.805,103.439586 108.805,103.588839 C108.895,104.544063 108.835,105.529138 108.745,106.484362 L108.745,110.0366 C108.775,111.081377 108.835,112.0366 108.745,113.081377 L108.745,115.947048 L111.925,115.947048 C112.405,115.947048 112.885,115.917197 113.365,115.917197 C113.485,115.917197 113.575,115.887347 113.665,115.887347 C113.935,115.887347 114.235,115.887347 114.505,115.917197 C114.595,115.917197 114.685,115.947048 114.715,116.00675 C114.805,116.156003 114.865,116.42466 114.655,116.454511 L114.655,116.454511 Z M133.615,108.096302 C133.615,107.588839 133.585,107.111227 133.555,106.603765 L133.555,105.767944 C133.585,105.558989 133.585,105.439586 133.585,105.290332 C133.585,104.484362 133.585,103.797794 133.555,102.991824 C133.555,102.782869 133.555,102.633615 133.525,102.544063 C133.495,102.275406 133.495,101.976899 133.495,101.708242 L133.495,100.663466 C133.525,100.633615 133.525,100.544063 133.525,100.454511 C133.555,99.5888393 133.735,98.7231676 133.525,97.857496 C133.375,97.0813766 132.385,97.2903318 131.755,97.2007795 L131.425,97.2007795 C130.945,97.2007795 130.495,97.2306303 130.135,97.260481 C129.985,97.2903318 129.865,97.260481 129.775,97.3500333 C129.415,97.4395855 129.205,97.7082422 129.145,98.1261527 C128.995,99.1709288 129.295,100.185854 129.205,101.23063 L129.205,101.708242 C129.205,101.857496 129.175,102.00675 129.175,102.156003 C129.175,102.335108 129.175,102.484362 129.205,102.573914 C129.205,103.021675 129.235,103.350033 129.235,103.797794 L129.235,103.947048 C129.235,104.932123 129.415,105.887347 129.445,106.872421 L129.445,107.20078 C129.415,108.066451 129.295,108.902272 129.325,109.827645 L129.325,110.066451 C129.325,110.335108 129.295,110.603765 129.325,110.842571 L129.265,111.170929 C129.235,112.00675 129.055,113.051526 128.545,113.648541 C128.455,113.797794 128.365,113.887347 128.275,114.00675 L128.095,114.156003 L127.915,114.275406 C127.105,114.663466 126.145,114.723168 125.275,114.633615 L124.975,114.544063 C124.645,114.454511 124.375,114.275406 124.135,114.00675 L123.925,113.797794 C123.835,113.678391 123.805,113.588839 123.775,113.529138 C123.685,113.379884 123.595,113.260481 123.535,113.111227 C123.385,112.753018 123.325,112.42466 123.295,112.126153 L123.295,111.857496 C123.205,111.529138 123.175,111.23063 123.175,110.902272 C123.145,110.454511 123.115,110.096302 123.115,109.708242 L123.115,109.409735 C123.115,109.290332 123.085,109.20078 123.085,109.081377 C123.055,109.021675 123.055,108.932123 123.055,108.782869 C122.905,107.827645 123.145,106.842571 123.055,105.887347 L123.055,105.588839 C122.965,104.842571 123.055,104.096302 123.085,103.379884 C123.085,100.364959 122.905,99.4395855 123.055,98.7530184 L123.055,98.3948094 C123.025,98.0664512 123.025,97.6485407 122.815,97.4395855 C122.725,97.3500333 122.635,97.3201825 122.545,97.3201825 L121.105,97.3201825 C120.385,97.5589885 119.155,96.9918243 118.825,97.976899 L118.765,98.2157049 C118.675,98.6933169 118.795,99.2007795 118.765,99.6783915 C118.795,99.7679437 118.795,99.857496 118.795,100.00675 C118.795,100.215705 118.795,100.364959 118.825,100.454511 L118.765,100.693317 C118.765,100.842571 118.765,100.932123 118.795,101.021675 C118.765,101.827645 118.825,102.633615 118.825,103.439586 C118.825,103.529138 118.855,103.61869 118.825,103.738093 C118.825,104.185854 118.795,104.663466 118.825,105.141078 L118.825,105.499287 C118.825,105.976899 118.855,106.484362 118.855,106.961974 C118.855,107.947048 118.915,108.961974 118.945,109.947048 C118.975,110.663466 119.035,111.409735 119.125,112.156003 C119.215,112.961974 119.335,113.767944 119.605,114.514212 C119.755,115.021675 119.965,115.469436 120.175,115.857496 C120.325,116.185854 120.535,116.454511 120.745,116.723168 L120.985,116.991824 C121.465,117.558989 122.095,117.857496 122.785,118.185854 L123.175,118.335108 C124.465,118.81272 125.845,118.633615 127.195,118.723168 L127.645,118.723168 C128.575,118.514212 129.535,118.364959 130.375,117.857496 L130.615,117.678391 C130.975,117.439586 131.335,117.141078 131.665,116.81272 L131.875,116.603765 C132.475,115.857496 132.865,114.991824 133.255,114.126153 C133.255,114.0366 133.285,113.947048 133.285,113.857496 C133.285,113.767944 133.315,113.648541 133.315,113.558989 L133.465,112.633615 C133.465,112.514212 133.465,112.364959 133.495,112.245556 C133.585,111.797794 133.585,111.409735 133.615,111.021675 C133.705,110.0366 133.645,109.051526 133.615,108.096302 L133.615,108.096302 Z M131.245,106.00675 L131.245,105.797794 C131.245,105.23063 131.215,104.723168 131.215,104.156003 C131.215,104.066451 131.185,104.0366 131.185,103.947048 L131.185,103.738093 C131.185,103.409735 131.155,103.141078 131.155,102.872421 C131.155,102.723168 131.155,102.633615 131.125,102.573914 C131.125,101.738093 131.215,100.932123 131.125,100.096302 L131.125,99.2007795 C131.125,98.8127198 131.725,98.8127198 131.725,99.2007795 L131.725,99.9470482 C131.815,100.902272 131.755,101.827645 131.755,102.753018 L131.755,103.021675 C131.755,103.290332 131.785,103.558989 131.785,103.797794 L131.785,104.096302 C131.815,104.42466 131.815,104.693317 131.815,104.961974 C131.845,105.947048 131.845,106.902272 131.845,107.887347 L131.815,109.320183 C131.815,109.409735 131.785,109.469436 131.785,109.558989 C131.785,109.827645 131.785,110.096302 131.755,110.364959 L131.755,110.633615 C131.665,111.558989 131.605,112.42466 131.395,113.350033 C131.395,113.439586 131.365,113.439586 131.365,113.529138 L131.305,113.797794 C131.215,113.947048 131.215,114.096302 131.125,114.305257 L131.035,114.544063 C130.585,115.469436 129.985,116.245556 129.055,116.633615 L128.815,116.723168 C128.155,116.991824 127.525,117.141078 126.895,117.141078 C126.835,117.170929 126.745,117.170929 126.655,117.170929 L125.935,117.170929 C125.485,117.170929 125.155,117.141078 124.705,117.051526 C124.345,116.991824 123.985,116.902272 123.655,116.753018 C122.965,116.42466 122.395,115.976899 121.945,115.379884 C121.465,114.693317 121.225,113.857496 121.015,113.051526 C120.805,112.126153 120.775,111.20078 120.685,110.245556 C120.595,109.290332 120.625,108.305257 120.535,107.350033 C120.445,106.364959 120.445,105.379884 120.445,104.394809 L120.445,101.738093 L120.445,99.0515258 C120.445,98.6634661 121.045,98.6634661 121.045,99.0515258 L121.045,101.976899 L121.045,104.932123 C121.045,105.379884 121.045,105.797794 121.075,106.245556 L121.105,106.842571 C121.105,107.170929 121.135,107.529138 121.165,107.857496 C121.255,108.842571 121.225,109.797794 121.315,110.753018 C121.405,111.678391 121.495,112.573914 121.735,113.499287 C121.825,113.887347 121.975,114.305257 122.185,114.663466 C122.335,114.932123 122.515,115.20078 122.785,115.469436 C123.295,115.947048 123.925,116.215705 124.615,116.42466 C125.005,116.514212 125.365,116.573914 125.695,116.573914 L126.865,116.573914 C127.465,116.484362 128.035,116.42466 128.605,116.185854 L128.845,116.096302 C129.595,115.857496 130.045,115.141078 130.405,114.454511 L130.495,114.245556 L130.765,113.529138 C130.765,113.439586 130.795,113.379884 130.795,113.290332 C131.005,112.364959 131.095,111.529138 131.125,110.603765 L131.125,110.335108 L131.155,109.827645 C131.155,109.708242 131.155,109.61869 131.185,109.529138 C131.215,109.260481 131.215,108.961974 131.215,108.693317 C131.245,108.00675 131.245,107.290332 131.245,106.603765 L131.245,106.00675 Z M149.455,99.5291378 C149.455,99.4097348 149.455,99.3201825 149.485,99.260481 C149.395,98.6336154 149.725,97.8873467 149.185,97.5291378 C148.585,97.2007795 147.805,97.4395855 147.115,97.4097348 L146.305,97.4097348 L145.945,97.4097348 C145.345,97.4097348 144.715,97.499287 144.115,97.4097348 L143.785,97.4097348 C143.455,97.379884 143.155,97.379884 142.855,97.4097348 C142.705,97.4097348 142.585,97.4097348 142.495,97.379884 L142.015,97.379884 L141.775,97.379884 C141.325,97.4097348 140.995,97.4097348 140.545,97.4097348 L140.305,97.4097348 C140.095,97.4395855 139.945,97.4395855 139.735,97.4395855 L139.135,97.4395855 C138.445,97.4097348 137.755,97.3500333 137.035,97.4395855 C136.825,97.379884 136.645,97.379884 136.495,97.4395855 C136.285,97.5291378 136.135,97.738093 136.105,98.1261527 C136.075,98.1858542 136.075,98.2754064 136.105,98.3649587 C136.135,99.2306303 136.045,100.066451 136.135,100.932123 L136.225,101.20078 C136.255,101.260481 136.285,101.350033 136.375,101.469436 L136.615,101.588839 L136.825,101.588839 C137.035,101.588839 137.245,101.558989 137.455,101.558989 L137.665,101.558989 C138.415,101.588839 138.865,101.588839 139.615,101.588839 C139.675,101.558989 139.765,101.558989 139.915,101.558989 L140.425,101.558989 C140.485,101.588839 140.545,101.588839 140.635,101.588839 L140.725,101.588839 C140.845,101.947048 140.815,102.335108 140.815,102.723168 L140.815,103.051526 C140.725,103.678391 140.725,104.335108 140.755,104.961974 L140.755,107.260481 C140.785,107.499287 140.785,107.738093 140.755,107.976899 C140.755,108.096302 140.755,108.185854 140.785,108.275406 L140.785,108.573914 C140.785,109.379884 140.695,110.215705 140.785,111.021675 L140.785,111.320183 C140.755,111.827645 140.545,112.305257 140.635,112.81272 L140.635,113.320183 C140.635,114.245556 140.605,115.141078 140.695,116.066451 L140.695,116.335108 C140.695,117.051526 140.455,118.00675 141.085,118.394809 L141.265,118.454511 L141.475,118.454511 C141.535,118.484362 141.625,118.484362 141.745,118.484362 C141.895,118.514212 142.075,118.514212 142.225,118.514212 C142.375,118.514212 142.465,118.514212 142.555,118.484362 L142.795,118.484362 C143.155,118.484362 143.485,118.454511 143.845,118.454511 C143.935,118.454511 144.025,118.42466 144.115,118.42466 C144.445,118.335108 144.745,118.215705 144.895,117.827645 C144.895,117.738093 144.925,117.648541 144.925,117.529138 C144.955,117.350033 144.925,117.141078 144.865,116.902272 L144.865,115.827645 C144.865,114.991824 144.895,114.126153 144.865,113.379884 L144.865,113.170929 C144.955,112.096302 144.925,111.021675 144.955,109.947048 L144.955,109.61869 C144.985,109.051526 145.015,108.573914 144.985,108.00675 L144.985,106.633615 C144.985,106.0366 144.955,104.126153 144.955,102.156003 L144.955,101.976899 C144.955,101.827645 145.015,101.708242 144.985,101.558989 C145.345,101.588839 145.585,101.588839 145.915,101.588839 C146.005,101.588839 146.095,101.588839 146.125,101.558989 L147.085,101.558989 L147.295,101.558989 C147.505,101.558989 147.715,101.558989 147.925,101.588839 L148.165,101.588839 C148.735,101.678391 149.215,101.61869 149.425,101.051526 C149.455,100.961974 149.485,100.902272 149.485,100.842571 C149.575,100.394809 149.455,99.976899 149.455,99.5291378 L149.455,99.5291378 Z M148.225,99.5888393 C148.135,99.6783915 148.075,99.7082422 148.015,99.6783915 C147.085,99.6485407 146.155,99.7082422 145.225,99.7082422 L144.985,99.7082422 L143.815,99.7082422 L143.575,99.7082422 L143.305,99.7082422 L143.095,99.7082422 L143.095,99.9470482 L143.095,101.469436 L143.095,102.394809 C143.005,103.111227 142.975,103.857496 143.065,104.573914 C143.095,104.782869 143.095,104.961974 143.095,105.170929 L143.095,111.290332 C143.065,111.767944 143.065,112.275406 143.065,112.753018 L143.065,113.051526 C143.215,113.917197 142.945,114.753018 143.035,115.61869 C143.035,115.738093 143.035,115.827645 143.065,115.857496 C143.065,116.066451 143.065,116.215705 143.095,116.364959 L143.095,117.021675 C143.095,117.20078 143.005,117.290332 142.795,117.290332 C142.705,117.290332 142.615,117.260481 142.585,117.23063 C142.495,116.991824 142.495,116.723168 142.465,116.484362 L142.465,115.439586 C142.555,114.81272 142.465,114.215705 142.495,113.588839 L142.495,112.275406 C142.525,112.245556 142.525,112.156003 142.525,112.066451 L142.525,111.827645 C142.525,111.439586 142.525,111.081377 142.495,110.693317 C142.495,110.573914 142.495,110.484362 142.525,110.394809 C142.555,109.529138 142.585,108.693317 142.495,107.767944 L142.495,107.529138 C142.555,106.663466 142.555,105.767944 142.495,104.902272 L142.495,104.514212 C142.465,103.827645 142.405,103.260481 142.495,102.573914 L142.495,101.797794 C142.585,101.051526 142.555,100.663466 142.525,100.0366 C142.495,99.976899 142.495,99.8873467 142.495,99.738093 C142.285,99.7082422 142.135,99.7082422 141.985,99.7082422 L141.715,99.7082422 L140.155,99.7082422 L139.885,99.7082422 L139.315,99.7082422 L138.715,99.7082422 L137.905,99.7082422 L137.605,99.7082422 C137.395,99.7082422 137.305,99.61869 137.305,99.4097348 C137.545,98.7530184 138.595,99.2903318 139.165,99.1410781 C139.375,99.1709288 139.585,99.1709288 139.795,99.1709288 C140.035,99.2007795 140.245,99.2007795 140.455,99.2007795 L140.725,99.2007795 C141.205,99.2007795 141.655,99.1709288 142.135,99.1410781 C142.195,99.1112273 142.285,99.1112273 142.435,99.1112273 L142.735,99.1112273 L143.005,99.1112273 C143.065,99.1410781 143.155,99.1410781 143.275,99.1410781 C143.905,99.1709288 144.535,99.1709288 145.135,99.1410781 L145.405,99.1410781 C146.155,99.1112273 146.935,99.0813766 147.685,99.0813766 C147.745,99.1112273 147.835,99.1112273 147.925,99.1112273 L148.165,99.1709288 C148.285,99.2007795 148.315,99.4395855 148.225,99.5888393 L148.225,99.5888393 Z M164.935,114.782869 C164.905,114.633615 164.785,114.484362 164.605,114.394809 C164.095,114.156003 163.405,114.42466 162.715,114.335108 L162.445,114.335108 C162.235,114.335108 162.085,114.305257 161.875,114.275406 L156.445,114.275406 L156.445,112.484362 C156.445,111.558989 156.475,110.723168 156.445,109.797794 L156.445,109.529138 C157.825,109.529138 160.315,109.499287 162.385,109.499287 L162.745,109.499287 C163.465,109.409735 164.845,109.827645 164.695,108.633615 L164.695,108.335108 C164.695,108.126153 164.695,107.947048 164.725,107.738093 L164.725,107.409735 L164.815,106.42466 L164.815,106.215705 C164.845,105.947048 164.755,105.708242 164.545,105.558989 C164.095,105.290332 163.585,105.529138 163.075,105.439586 L162.445,105.439586 C162.235,105.439586 162.085,105.409735 161.875,105.379884 L156.535,105.379884 C156.535,105.260481 156.535,105.111227 156.565,104.961974 L156.565,102.335108 C156.565,102.245556 156.535,101.947048 156.535,101.558989 C158.065,101.558989 160.675,101.529138 162.745,101.529138 L162.955,101.529138 C163.555,101.529138 164.365,101.767944 164.635,101.439586 L164.785,101.23063 C164.815,101.081377 164.875,100.902272 164.905,100.663466 L164.905,100.484362 C164.935,99.9171975 164.815,99.4097348 164.935,98.8425706 C164.935,98.7231676 164.965,98.6037646 164.965,98.5142124 C164.995,98.0664512 164.965,97.738093 164.605,97.5291378 C164.095,97.2903318 163.405,97.5589885 162.715,97.4694363 L162.445,97.4694363 C162.235,97.4694363 162.085,97.4395855 161.875,97.4097348 L155.905,97.4097348 C155.065,97.2903318 154.255,97.3500333 153.415,97.379884 C153.325,97.379884 153.235,97.4097348 153.145,97.4097348 C152.815,97.499287 152.515,97.61869 152.365,98.0067497 C152.365,98.0963019 152.335,98.1858542 152.335,98.3052572 C152.305,98.4843616 152.335,98.6933169 152.395,98.9321228 L152.395,100.00675 C152.395,100.842571 152.365,101.708242 152.395,102.454511 L152.395,102.663466 C152.305,103.738093 152.335,104.81272 152.305,105.887347 L152.305,106.215705 C152.275,106.782869 152.245,107.260481 152.275,107.827645 L152.275,109.20078 C152.275,110.066451 152.305,113.857496 152.305,116.364959 L152.305,116.573914 C152.305,117.081377 152.155,117.708242 152.275,118.066451 C152.305,118.156003 152.365,118.215705 152.395,118.245556 C152.845,118.484362 153.265,118.484362 153.745,118.454511 L154.045,118.454511 C154.975,118.364959 155.875,118.454511 156.805,118.42466 L157.465,118.42466 C158.995,118.42466 161.065,118.394809 162.745,118.394809 L162.955,118.394809 C163.555,118.394809 164.365,118.633615 164.635,118.305257 L164.785,118.096302 L164.845,117.917197 C165.115,116.961974 164.905,116.00675 164.995,115.081377 L164.935,114.782869 Z M163.075,116.603765 C162.145,116.81272 161.305,116.663466 160.435,116.633615 C160.345,116.633615 160.255,116.603765 160.135,116.603765 C159.445,116.573914 158.785,116.573914 158.095,116.663466 L156.895,116.663466 C156.025,116.633615 155.155,116.753018 154.285,116.663466 C154.195,116.603765 154.135,116.514212 154.135,116.394809 L154.135,108.215705 C154.135,107.529138 154.075,106.872421 154.105,106.185854 L154.105,105.917197 C154.135,105.767944 154.135,105.61869 154.135,105.409735 L154.135,104.782869 C154.105,103.857496 154.075,103.021675 154.195,102.096302 L154.195,101.827645 C154.195,101.260481 154.165,100.81272 154.135,100.245556 L154.135,99.2306303 C154.135,98.9918243 154.345,98.8724213 154.555,98.9619736 L155.785,98.9619736 C156.595,98.9619736 157.405,98.9022721 158.215,98.9321228 L159.115,98.9321228 C159.205,98.9321228 159.295,98.9619736 159.385,98.9619736 C160.315,98.9321228 161.155,99.0515258 162.085,98.9619736 L162.355,98.9619736 C162.625,98.9321228 162.895,98.9022721 163.165,98.9022721 C163.555,98.9022721 163.555,99.499287 163.165,99.499287 C162.895,99.499287 162.625,99.5291378 162.355,99.5589885 C162.205,99.5589885 162.115,99.5589885 162.055,99.5888393 C161.125,99.61869 160.315,99.4694363 159.385,99.5589885 C159.325,99.5291378 159.235,99.5291378 159.115,99.5291378 L158.245,99.5291378 C157.375,99.499287 156.475,99.5589885 155.605,99.5589885 L154.735,99.5589885 L154.735,100.573914 C154.765,101.141078 154.765,101.648541 154.765,102.156003 C154.735,102.215705 154.735,102.305257 154.735,102.42466 L154.735,107.23063 L155.875,107.23063 C156.745,107.260481 157.645,107.260481 158.515,107.260481 L160.705,107.260481 C161.395,107.290332 162.115,107.23063 162.805,107.23063 C162.895,107.23063 162.955,107.260481 163.015,107.320183 C163.135,107.469436 163.105,107.738093 162.955,107.767944 C162.145,107.976899 161.455,107.857496 160.705,107.857496 L158.515,107.857496 C157.645,107.857496 156.745,107.797794 155.875,107.827645 L154.735,107.827645 L154.735,109.439586 C154.645,110.245556 154.795,111.051526 154.705,111.857496 L154.705,113.290332 C154.735,113.350033 154.735,113.439586 154.735,113.529138 L154.735,115.558989 C154.735,115.767944 154.705,116.00675 154.735,116.00675 C155.335,116.215705 155.965,116.066451 156.595,116.066451 L158.215,116.066451 C158.845,115.976899 159.445,116.00675 160.075,116.0366 L160.345,116.0366 C161.275,116.126153 162.085,115.976899 163.015,116.096302 C163.255,116.126153 163.315,116.514212 163.075,116.603765 L163.075,116.603765 Z M168.355,122.842571 C168.265,122.842571 168.205,122.81272 168.175,122.723168 C167.965,122.394809 168.235,122.156003 168.565,122.156003 C169.135,122.185854 169.615,122.364959 170.185,122.156003 C170.275,122.156003 170.365,122.126153 170.485,122.096302 C172.315,121.469436 172.405,119.320183 172.405,117.529138 C172.405,117.439586 172.435,117.350033 172.435,117.260481 C172.465,116.663466 172.465,116.066451 172.435,115.439586 C172.435,113.678391 172.405,111.976899 172.405,110.215705 C172.405,109.499287 172.345,108.81272 172.345,108.096302 C172.345,106.902272 172.405,105.708242 172.435,104.484362 C172.435,103.797794 172.465,103.20078 172.465,102.514212 C172.465,101.558989 172.465,100.603765 172.435,99.6485407 C172.435,98.7231676 172.435,97.8276452 172.405,96.9022721 C172.405,96.2157049 172.375,95.5589885 172.105,94.9321228 C171.895,94.4843616 171.655,94.1560034 171.355,93.9171975 L171.145,93.7679437 C170.215,93.379884 169.195,93.260481 168.205,93.260481 C168.115,93.260481 168.055,93.2306303 167.995,93.1709288 C167.965,93.0813766 167.905,93.0515258 167.905,92.9619736 C167.905,92.7530184 167.995,92.6634661 168.205,92.6634661 C168.295,92.6336154 168.415,92.6336154 168.565,92.6336154 C169.495,92.8425706 170.515,92.7530184 171.385,93.2306303 C171.475,93.3201825 171.535,93.2903318 171.625,93.379884 C172.015,93.6783915 172.315,94.0664512 172.555,94.5142124 C172.915,95.2007795 173.005,95.9470482 173.005,96.6634661 C173.035,97.6485407 173.035,98.6037646 173.035,99.5888393 C173.065,100.514212 173.065,101.350033 173.065,102.275406 C173.065,104.0366 173.005,105.738093 173.005,107.529138 C173.005,109.320183 173.065,111.081377 173.065,112.902272 C172.975,113.887347 173.035,114.872421 173.035,115.857496 L173.035,117.320183 C172.885,119.320183 173.035,122.185854 170.275,122.753018 C170.185,122.753018 170.185,122.782869 170.095,122.782869 C169.525,122.902272 168.925,122.842571 168.355,122.842571 L168.355,122.842571 Z M170.605,109.23063 L170.605,111.947048 C170.605,112.454511 170.575,113.111227 170.575,113.678391 L170.575,114.00675 C170.605,114.573914 170.485,115.141078 170.575,115.708242 L170.575,117.529138 C170.485,118.335108 170.665,119.409735 170.275,120.156003 L170.125,120.335108 L169.915,120.514212 L169.585,120.663466 C169.465,120.723168 169.345,120.753018 169.225,120.753018 C168.865,120.842571 168.475,120.81272 168.115,120.842571 L167.845,120.842571 C167.515,120.902272 167.275,120.991824 167.065,121.141078 L166.885,121.350033 C166.675,122.066451 166.585,123.021675 166.945,123.767944 C167.005,123.857496 167.065,123.917197 167.155,123.976899 L167.395,124.156003 L167.665,124.275406 C168.595,124.394809 169.285,124.394809 170.155,124.305257 L170.455,124.305257 C171.535,124.215705 172.525,123.678391 173.335,122.991824 L173.545,122.753018 L173.905,122.305257 C173.965,122.245556 174.025,122.156003 174.055,122.066451 C174.085,121.976899 174.145,121.917197 174.175,121.887347 C174.445,121.051526 174.655,120.185854 174.745,119.320183 L174.745,116.394809 C174.745,115.708242 174.805,115.111227 174.805,114.42466 L174.805,113.529138 C174.775,113.021675 174.775,112.514212 174.775,111.947048 L174.805,111.947048 L174.805,110.0366 L174.805,107.23063 C174.805,105.708242 174.775,104.185854 174.775,103.23063 C174.775,102.663466 174.745,102.364959 174.745,102.275406 L174.745,98.7530184 L174.745,96.7231676 C174.775,96.0366004 174.655,95.379884 174.505,94.7530184 L174.415,94.4545109 C174.325,94.1858542 174.205,93.9171975 174.055,93.7082422 C174.025,93.61869 173.965,93.5589885 173.905,93.4694363 L173.545,93.0216751 L173.335,92.7828691 C172.525,92.0963019 171.535,91.5589885 170.455,91.4694363 L170.155,91.4694363 C169.585,91.379884 169.135,91.379884 168.565,91.4097348 C168.475,91.4097348 168.385,91.4395855 168.295,91.4395855 C167.545,91.3500333 166.825,91.8276452 166.735,92.6336154 C166.735,92.7530184 166.705,92.8425706 166.705,92.9619736 C166.675,93.3500333 166.675,93.7679437 166.825,94.1560034 C166.855,94.2754064 166.915,94.3649587 166.945,94.3948094 C167.095,94.6336154 167.305,94.7828691 167.575,94.8425706 C167.635,94.8425706 167.695,94.8724213 167.785,94.9022721 C168.175,94.9619736 168.505,94.9918243 168.775,94.9619736 C168.865,94.9619736 168.955,94.9918243 169.045,94.9918243 C169.255,94.9918243 169.375,95.0216751 169.585,95.1112273 L169.915,95.260481 L170.125,95.4395855 L170.275,95.61869 C170.665,96.3649587 170.485,97.4395855 170.575,98.2455557 L170.575,99.379884 C170.665,100.245556 170.605,101.081377 170.605,101.947048 L170.665,104.842571 L170.605,106.42466 L170.605,109.23063 Z" id="(absolute)" fill="#5D6063"></path>
            </g>
        </g>
    </g>
</svg>