<?xml version="1.0" encoding="UTF-8" standalone="no"?>
<svg width="200px" height="200px" viewBox="0 0 200 200" version="1.1" xmlns="http://www.w3.org/2000/svg" xmlns:xlink="http://www.w3.org/1999/xlink">
    <!-- Generator: Sketch 3.7.1 (28215) - http://www.bohemiancoding.com/sketch -->
    <title>fixed</title>
    <desc>Created with Sketch.</desc>
    <defs></defs>
    <g id="Page-1" stroke="none" stroke-width="1" fill="none" fill-rule="evenodd">
        <g id="example-mockup" transform="translate(-501.000000, -1022.000000)">
            <g id="fixed" transform="translate(501.000000, 1022.000000)">
                <rect id="Rectangle-70-Copy-10" fill="#F09A9D" x="0" y="0.298165385" width="200" height="199.004975"></rect>
                <path d="M58.6,106.391898 L58.54,104.809808 L58.6,101.914286 C58.6,101.048614 58.54,100.212793 58.63,99.3471216 L58.63,98.2127932 C58.72,97.4068231 58.54,96.3321962 58.93,95.5859275 L59.08,95.4068231 L59.29,95.2277186 L59.62,95.0784648 C59.83,94.9889126 59.95,94.9590619 60.16,94.9590619 C60.25,94.9590619 60.34,94.9292111 60.43,94.9292111 C60.7,94.9590619 61.03,94.9292111 61.42,94.8695096 C61.51,94.8396589 61.57,94.8098081 61.63,94.8098081 C61.9,94.7501066 62.11,94.6008529 62.26,94.3620469 C62.29,94.3321962 62.35,94.2426439 62.38,94.123241 C62.53,93.7351813 62.53,93.3172708 62.5,92.9292111 C62.5,92.8098081 62.47,92.7202559 62.47,92.6008529 C62.38,91.7948828 61.66,91.3172708 60.91,91.4068231 C60.82,91.4068231 60.73,91.3769723 60.64,91.3769723 C60.07,91.3471216 59.62,91.3471216 59.05,91.4366738 L58.75,91.4366738 C57.67,91.526226 56.68,92.0635395 55.87,92.7501066 L55.66,92.9889126 L55.3,93.4366738 C55.21,93.526226 55.18,93.5859275 55.15,93.6754798 C55,93.884435 54.88,94.1530917 54.79,94.4217484 L54.7,94.7202559 C54.55,95.3471216 54.43,96.003838 54.46,96.6904051 L54.46,98.7202559 L54.46,102.242644 C54.46,102.332196 54.43,102.630704 54.43,103.197868 C54.43,104.153092 54.4,105.67548 54.4,107.197868 L54.4,110.003838 L54.4,111.914286 L54.43,111.914286 C54.43,112.48145 54.43,112.988913 54.4,113.496375 L54.4,114.391898 C54.4,115.078465 54.46,115.67548 54.46,116.362047 L54.46,119.28742 C54.55,120.153092 54.76,121.018763 55.03,121.854584 C55.06,121.884435 55.12,121.944136 55.15,122.033689 C55.18,122.123241 55.21,122.212793 55.3,122.272495 L55.66,122.720256 L55.87,122.959062 C56.68,123.645629 57.67,124.182942 58.75,124.272495 L59.05,124.272495 C59.92,124.362047 60.61,124.362047 61.54,124.242644 L61.81,124.123241 L62.05,123.944136 C62.14,123.884435 62.2,123.824734 62.26,123.735181 C62.62,122.988913 62.53,122.033689 62.32,121.317271 L62.14,121.108316 C61.93,120.959062 61.69,120.86951 61.36,120.809808 L61.09,120.809808 C60.73,120.779957 60.34,120.809808 59.98,120.720256 C59.86,120.720256 59.74,120.690405 59.62,120.630704 L59.29,120.48145 L59.08,120.302345 L58.93,120.123241 C58.54,119.376972 58.72,118.302345 58.63,117.496375 L58.63,115.67548 C58.72,115.108316 58.6,114.541151 58.63,113.973987 L58.63,113.645629 C58.63,113.078465 58.6,112.421748 58.6,111.914286 L58.6,109.197868 L58.6,106.391898 Z M60.85,122.809808 C60.28,122.809808 59.68,122.86951 59.11,122.750107 C59.02,122.750107 59.02,122.720256 58.93,122.720256 C56.23,122.182942 56.26,119.28742 56.17,117.28742 L56.17,115.824734 C56.17,114.839659 56.23,113.854584 56.14,112.86951 C56.14,111.048614 56.2,109.28742 56.2,107.496375 C56.2,105.705331 56.14,104.003838 56.14,102.242644 C56.14,101.317271 56.14,100.48145 56.17,99.5560768 C56.17,98.5710022 56.17,97.6157783 56.2,96.6307037 C56.2,95.9142857 56.29,95.1680171 56.65,94.4814499 C56.86,94.0336887 57.19,93.645629 57.58,93.3471216 C57.67,93.2575693 57.73,93.2874201 57.82,93.1978678 C58.69,92.7202559 59.71,92.8098081 60.64,92.6008529 C60.79,92.6008529 60.91,92.6008529 61,92.6307037 C61.21,92.6307037 61.3,92.7202559 61.3,92.9292111 C61.3,93.0187634 61.24,93.0486141 61.21,93.1381663 C61.15,93.1978678 61.09,93.2277186 61,93.2277186 C60.01,93.2277186 58.99,93.3471216 58.06,93.7351813 L57.85,93.884435 C57.55,94.123241 57.31,94.4515992 57.1,94.8993604 C56.83,95.526226 56.8,96.1829425 56.8,96.8695096 C56.77,97.7948828 56.77,98.6904051 56.77,99.6157783 C56.74,100.571002 56.74,101.526226 56.74,102.48145 C56.74,103.168017 56.77,103.765032 56.77,104.451599 C56.8,105.67548 56.86,106.86951 56.86,108.063539 C56.86,108.779957 56.8,109.466525 56.8,110.182942 C56.8,111.944136 56.77,113.645629 56.77,115.406823 C56.74,116.033689 56.74,116.630704 56.77,117.227719 C56.77,117.317271 56.8,117.406823 56.8,117.496375 C56.8,119.28742 56.89,121.436674 58.72,122.063539 C58.84,122.09339 58.93,122.123241 59.02,122.123241 C59.59,122.332196 60.07,122.153092 60.64,122.123241 C60.97,122.123241 61.24,122.362047 61.03,122.690405 C61,122.779957 60.94,122.809808 60.85,122.809808 L60.85,122.809808 Z M68.71,109.496375 L69.79,109.496375 L70.09,109.496375 C71.44,109.496375 73.18,109.466525 74.65,109.466525 L75.01,109.466525 C75.73,109.376972 77.11,109.794883 76.96,108.600853 L76.96,108.302345 C76.96,108.09339 76.96,107.914286 76.99,107.705331 L76.99,107.376972 L77.08,106.391898 L77.08,106.182942 C77.11,105.914286 77.02,105.67548 76.81,105.526226 C76.36,105.257569 75.85,105.496375 75.34,105.406823 L74.71,105.406823 C74.5,105.406823 74.35,105.376972 74.14,105.347122 L68.8,105.347122 C68.8,105.227719 68.8,105.078465 68.83,104.929211 L68.83,102.302345 C68.83,102.212793 68.8,101.914286 68.8,101.526226 C70.33,101.526226 72.94,101.496375 75.01,101.496375 L75.22,101.496375 C75.82,101.496375 76.63,101.735181 76.9,101.406823 L77.05,101.197868 C77.08,101.048614 77.14,100.86951 77.17,100.630704 L77.17,100.451599 C77.2,99.884435 77.08,99.3769723 77.2,98.8098081 C77.2,98.6904051 77.23,98.5710022 77.23,98.4814499 C77.26,98.0336887 77.23,97.7053305 76.87,97.4963753 C76.36,97.2575693 75.67,97.526226 74.98,97.4366738 L74.71,97.4366738 C74.5,97.4366738 74.35,97.4068231 74.14,97.3769723 L68.17,97.3769723 C67.33,97.2575693 66.52,97.3172708 65.68,97.3471216 C65.59,97.3471216 65.5,97.3769723 65.41,97.3769723 L65.17,97.4366738 C64.48,97.7351813 64.66,98.7202559 64.66,99.3471216 C64.69,99.4366738 64.69,99.526226 64.69,99.6754798 C64.69,99.8247335 64.69,99.9142857 64.66,99.9739872 L64.66,100.600853 C64.66,101.227719 64.63,101.854584 64.66,102.421748 L64.66,102.630704 C64.57,103.705331 64.6,104.779957 64.57,105.854584 L64.57,106.182942 C64.54,106.750107 64.51,107.227719 64.54,107.794883 L64.54,109.168017 C64.54,110.033689 64.57,113.824734 64.57,116.332196 L64.57,116.541151 C64.57,117.048614 64.42,117.67548 64.54,118.033689 C64.57,118.123241 64.63,118.182942 64.66,118.212793 C65.11,118.451599 65.53,118.451599 66.01,118.421748 L66.31,118.421748 L67.12,118.362047 L67.3,118.362047 C67.84,118.451599 68.23,118.332196 68.5,117.944136 C68.53,117.914286 68.59,117.824734 68.62,117.735181 C68.89,116.809808 68.62,115.854584 68.62,114.89936 C68.62,114.809808 68.65,114.720256 68.65,114.600853 C68.74,113.914286 68.74,113.257569 68.71,112.571002 L68.71,112.242644 C68.68,111.914286 68.65,111.585928 68.65,111.257569 L68.65,110.959062 C68.68,110.571002 68.71,110.182942 68.71,109.794883 L68.71,109.496375 Z M66.4,108.182942 C66.4,107.496375 66.34,106.839659 66.37,106.153092 L66.37,105.884435 C66.4,105.735181 66.4,105.585928 66.4,105.376972 L66.4,104.750107 C66.37,103.824734 66.34,102.988913 66.46,102.063539 L66.46,101.794883 C66.46,101.227719 66.43,100.779957 66.4,100.212793 L66.4,99.1978678 C66.4,98.9590619 66.61,98.8396589 66.82,98.9292111 L68.05,98.9292111 C68.86,98.9292111 69.67,98.8695096 70.48,98.8993604 L71.38,98.8993604 C71.47,98.8993604 71.56,98.9292111 71.65,98.9292111 C72.58,98.8993604 73.42,99.0187634 74.35,98.9292111 L74.62,98.9292111 C74.89,98.8993604 75.16,98.8695096 75.43,98.8695096 C75.82,98.8695096 75.82,99.4665245 75.43,99.4665245 C75.16,99.4665245 74.89,99.4963753 74.62,99.526226 C74.47,99.526226 74.38,99.526226 74.32,99.5560768 C73.39,99.5859275 72.58,99.4366738 71.65,99.526226 C71.59,99.4963753 71.5,99.4963753 71.38,99.4963753 L70.51,99.4963753 C69.64,99.4665245 68.74,99.526226 67.87,99.526226 L67,99.526226 L67,100.541151 C67.03,101.108316 67.03,101.615778 67.03,102.123241 C67,102.182942 67,102.272495 67,102.391898 L67,107.197868 L68.14,107.197868 C69.01,107.227719 69.91,107.227719 70.78,107.227719 L72.97,107.227719 C73.66,107.257569 74.38,107.197868 75.07,107.197868 C75.16,107.197868 75.22,107.227719 75.28,107.28742 C75.4,107.436674 75.37,107.705331 75.22,107.735181 C74.41,107.944136 73.72,107.824734 72.97,107.824734 L70.78,107.824734 C69.91,107.824734 69.01,107.765032 68.14,107.794883 L67,107.794883 L67,109.406823 C66.91,110.212793 67.06,111.018763 66.97,111.824734 L66.97,113.257569 C67,113.317271 67,113.406823 67,113.496375 L66.97,116.242644 L66.97,116.630704 C66.88,116.988913 66.4,116.959062 66.37,116.600853 L66.4,108.182942 Z M84.79,113.048614 L84.79,109.048614 C84.79,108.182942 84.91,107.28742 84.82,106.421748 C84.82,106.332196 84.85,106.242644 84.85,106.123241 C84.85,105.735181 84.88,105.376972 84.91,104.929211 L84.91,102.302345 C84.91,102.153092 84.88,101.197868 84.88,100.153092 L84.88,99.9142857 C84.91,99.7053305 84.91,99.526226 84.91,99.3172708 L84.91,98.9889126 C84.91,98.8695096 84.91,98.7799574 84.88,98.7501066 C84.97,98.3918977 84.91,97.9739872 84.76,97.7053305 C84.73,97.6157783 84.7,97.5560768 84.61,97.526226 C84.58,97.4963753 84.52,97.4366738 84.43,97.4068231 C83.5,97.2575693 82.69,97.3172708 81.76,97.3471216 C81.67,97.3471216 81.58,97.3769723 81.49,97.3769723 C81.16,97.4665245 80.86,97.5859275 80.71,97.9739872 C80.71,98.0635395 80.68,98.1530917 80.68,98.2724947 C80.65,98.4515992 80.68,98.6605544 80.74,98.8993604 L80.74,99.3172708 L80.74,99.765032 L80.74,99.9739872 L80.74,104.511301 C80.71,104.541151 80.71,104.571002 80.71,104.630704 L80.71,104.929211 C80.71,105.018763 80.68,105.108316 80.68,105.197868 C80.65,106.063539 80.59,106.929211 80.62,107.794883 L80.62,108.063539 L80.62,108.89936 L80.62,109.168017 C80.62,110.033689 80.65,113.824734 80.65,116.332196 L80.65,116.541151 C80.65,117.138166 80.41,117.944136 80.74,118.212793 C80.83,118.302345 80.86,118.272495 80.95,118.362047 C81.28,118.48145 81.67,118.511301 82.09,118.48145 L82.39,118.48145 C83.23,118.302345 84.28,118.89936 84.67,118.182942 C84.91,117.67548 84.64,116.988913 84.73,116.302345 L84.73,116.033689 C84.73,115.824734 84.76,115.67548 84.79,115.466525 L84.79,115.257569 L84.79,113.048614 Z M82.96,111.197868 C82.93,111.67548 82.93,112.182942 82.93,112.660554 L82.93,112.959062 C83.08,113.824734 82.81,114.660554 82.9,115.526226 C82.9,115.645629 82.9,115.735181 82.93,115.765032 C82.93,115.973987 82.93,116.123241 82.96,116.272495 L82.96,116.929211 C82.96,117.108316 82.87,117.197868 82.66,117.197868 C82.57,117.197868 82.48,117.168017 82.45,117.138166 C82.36,116.89936 82.36,116.630704 82.33,116.391898 L82.33,115.347122 C82.42,114.720256 82.33,114.123241 82.36,113.496375 L82.36,112.182942 C82.39,112.153092 82.39,112.063539 82.39,111.973987 L82.39,111.735181 C82.39,111.347122 82.39,110.988913 82.36,110.600853 C82.36,110.48145 82.36,110.391898 82.39,110.302345 C82.42,109.436674 82.45,108.600853 82.36,107.67548 L82.36,107.436674 C82.42,106.571002 82.42,105.67548 82.36,104.809808 L82.36,104.421748 C82.33,103.735181 82.27,103.168017 82.36,102.48145 L82.36,101.705331 C82.45,100.839659 82.45,99.9739872 82.36,99.1381663 L82.36,98.9292111 C82.36,98.5411514 82.96,98.5411514 82.96,98.9292111 L82.96,99.3471216 C82.99,100.003838 82.99,100.690405 82.96,101.376972 L82.96,102.302345 C82.87,103.018763 82.84,103.765032 82.93,104.48145 C82.96,104.690405 82.96,104.86951 82.96,105.078465 L82.96,107.526226 L82.96,111.197868 Z M102.37,117.645629 C102.25,117.376972 102.01,117.078465 101.89,116.86951 L101.77,116.600853 C101.68,116.511301 101.65,116.421748 101.62,116.332196 L101.53,116.063539 L101.44,115.884435 L101.38,115.794883 L101.23,115.496375 L101.11,115.257569 C100.66,114.451599 100.18,113.67548 99.79,112.839659 C99.7,112.720256 99.67,112.630704 99.64,112.571002 C99.49,112.302345 99.34,112.063539 99.22,111.735181 L99.1,111.466525 L98.71,110.630704 L98.59,110.391898 C98.14,109.735181 97.75,108.988913 97.48,108.182942 L97.33,107.914286 C97.3,107.884435 97.3,107.884435 97.3,107.854584 L97.3,107.824734 L97.39,107.645629 C97.72,107.078465 97.99,106.511301 98.23,105.914286 L98.35,105.615778 L98.5,105.317271 C98.59,105.227719 98.56,105.168017 98.59,105.078465 C98.68,104.988913 98.68,104.89936 98.71,104.809808 L98.77,104.690405 L98.83,104.571002 C98.86,104.48145 98.89,104.391898 98.98,104.242644 C99.01,104.212793 99.07,104.123241 99.1,104.033689 C99.7,102.988913 100.24,102.003838 100.72,100.929211 L100.81,100.720256 C100.93,100.511301 101.02,100.362047 101.11,100.153092 L101.2,99.9739872 C101.35,99.645629 101.59,99.3172708 101.8,98.9590619 L101.92,98.6904051 C102.13,98.3321962 102.25,97.8545842 101.92,97.526226 C101.8,97.4068231 101.59,97.4366738 101.44,97.4366738 L101.23,97.4366738 C101.14,97.4366738 101.02,97.4068231 100.93,97.4068231 C100.21,97.3172708 99.46,97.4366738 98.74,97.3471216 C98.65,97.3471216 98.53,97.3769723 98.41,97.4068231 C97.63,97.5560768 97.39,98.5113007 97,99.0784648 L96.91,99.2575693 C96.7,99.7053305 96.49,100.033689 96.34,100.362047 L96.07,100.839659 L95.98,101.048614 C95.89,101.168017 95.8,101.317271 95.71,101.526226 L95.62,101.705331 C95.38,102.182942 95.23,102.690405 94.96,103.168017 L94.75,102.750107 C94.72,102.660554 94.69,102.600853 94.69,102.541151 C94.3,101.735181 93.85,101.018763 93.52,100.212793 L93.37,99.9142857 C93.16,99.5859275 93.04,99.2575693 92.83,98.8993604 L92.71,98.6904051 C92.62,98.4217484 92.5,98.2127932 92.41,98.0336887 L92.26,97.8247335 C92.02,97.4665245 91.66,97.3471216 91.3,97.2575693 L91.03,97.2575693 C90.16,97.1680171 89.26,97.3172708 88.39,97.3471216 C88.27,97.3471216 88.18,97.3769723 88.09,97.4366738 C88.03,97.4665245 87.94,97.526226 87.82,97.645629 C87.7,97.7948828 87.7,97.9739872 87.73,98.1829425 C87.76,98.2724947 87.79,98.3321962 87.79,98.3620469 C88.18,99.3172708 88.84,100.09339 89.23,101.018763 C89.26,101.108316 89.32,101.138166 89.35,101.227719 C90.25,102.929211 91.18,104.660554 91.15,104.690405 C91.15,104.720256 91.15,104.779957 91.18,104.809808 C91.21,104.89936 91.24,104.988913 91.33,105.078465 C91.36,105.168017 91.33,105.227719 91.42,105.317271 C91.78,106.123241 92.08,106.89936 92.53,107.645629 L92.62,107.824734 L92.41,108.272495 C92.32,108.362047 92.32,108.391898 92.29,108.48145 C91.84,109.406823 91.54,110.332196 90.97,111.257569 L90.85,111.496375 L90.7,111.794883 C90.31,112.600853 89.77,113.317271 89.38,114.123241 L89.26,114.362047 L88.81,115.257569 L88.63,115.585928 C88.48,115.944136 88.24,116.302345 88.03,116.660554 L87.91,116.89936 C87.67,117.28742 87.34,118.212793 88.06,118.362047 C88.15,118.451599 88.21,118.421748 88.3,118.451599 C88.54,118.511301 88.81,118.541151 89.08,118.541151 L89.38,118.541151 C89.86,118.511301 90.34,118.451599 90.79,118.451599 C90.94,118.451599 91.03,118.421748 91.12,118.391898 C91.21,118.391898 91.3,118.332196 91.39,118.302345 C91.48,118.272495 91.57,118.212793 91.66,118.123241 L91.9,117.944136 C92.11,117.735181 92.32,117.496375 92.47,117.227719 L92.56,117.078465 L93.25,115.705331 L93.37,115.466525 C93.58,114.89936 93.82,114.332196 94.06,113.765032 L94.21,113.496375 C94.24,113.376972 94.3,113.28742 94.33,113.227719 C94.57,112.779957 94.78,112.332196 94.96,111.884435 C94.99,112.003838 95.02,112.09339 95.02,112.123241 L95.11,112.332196 C95.44,113.257569 96.01,114.033689 96.34,114.959062 C96.37,115.048614 96.37,115.168017 96.46,115.257569 C96.55,115.556077 96.67,115.854584 96.88,116.123241 L97,116.332196 L97.09,116.511301 C97.48,117.197868 97.81,118.182942 98.62,118.332196 C98.68,118.362047 98.77,118.362047 98.92,118.362047 C99.55,118.451599 100.15,118.48145 100.78,118.48145 C100.87,118.48145 100.96,118.451599 101.05,118.451599 C101.5,118.362047 102.34,118.541151 102.43,117.914286 C102.43,117.854584 102.4,117.765032 102.37,117.645629 L102.37,117.645629 Z M99.61,116.660554 C99.46,116.988913 98.98,116.690405 98.86,116.332196 L98.77,116.09339 L98.65,115.854584 L98.56,115.645629 L98.44,115.406823 L97.84,114.242644 C97.84,114.182942 97.81,114.123241 97.78,114.033689 L97.66,113.824734 C97.45,113.496375 97.33,113.168017 97.12,112.839659 C97.09,112.750107 97.03,112.660554 97,112.541151 C96.76,112.063539 95.74,110.003838 94.93,108.48145 C94.12,110.003838 93.1,112.063539 92.86,112.541151 C92.83,112.660554 92.77,112.750107 92.74,112.839659 C92.53,113.168017 92.41,113.496375 92.2,113.824734 L92.08,114.033689 C92.05,114.123241 92.02,114.182942 92.02,114.242644 L91.33,115.526226 L91.21,115.765032 L91.12,116.003838 C91.09,116.09339 91.03,116.123241 91,116.212793 C90.97,116.302345 90.94,116.362047 90.85,116.451599 C90.82,116.720256 90.64,116.86951 90.37,116.89936 C90.1,116.89936 90.13,116.571002 90.22,116.362047 C90.25,116.272495 90.34,116.153092 90.46,116.003838 L90.52,115.824734 L90.61,115.645629 C90.73,115.317271 90.94,114.959062 91.15,114.690405 L91.3,114.421748 L91.93,113.078465 L94.6,107.854584 L94,106.779957 L93.91,106.541151 C93.55,105.735181 93.16,104.959062 92.71,104.212793 L92.53,103.854584 C92.2,103.28742 91.9,102.750107 91.63,102.153092 L91.3,101.436674 L90.73,100.272495 L90.58,99.9739872 C90.49,99.884435 90.52,99.8247335 90.43,99.7351813 C90.31,99.4068231 89.92,99.1381663 90.07,98.8993604 C90.37,98.4217484 90.85,99.1083156 90.94,99.5560768 L91.12,99.884435 C91.33,100.332196 91.54,100.750107 91.75,101.108316 C91.84,101.317271 91.96,101.526226 92.08,101.705331 C92.35,102.391898 92.68,103.048614 93.07,103.67548 C93.19,103.824734 93.28,104.033689 93.37,104.182942 L94.48,106.362047 L94.93,107.257569 C94.96,107.257569 94.96,107.257569 94.96,107.227719 C94.96,107.197868 94.96,107.138166 94.99,107.108316 C95.05,107.048614 95.11,106.959062 95.14,106.809808 L95.32,106.511301 C95.32,106.48145 95.35,106.421748 95.35,106.391898 C95.35,106.362047 95.35,106.362047 95.38,106.362047 L96.49,104.182942 C96.58,104.033689 96.67,103.824734 96.79,103.67548 L96.94,103.436674 L97.06,103.197868 C97.51,102.242644 97.87,101.28742 98.47,100.421748 L98.56,100.242644 C98.98,99.7351813 99.1,98.2724947 99.73,98.7501066 C99.94,98.9590619 99.52,99.4963753 99.31,99.9441365 L99.13,100.242644 L98.8,100.929211 L98.71,101.138166 C98.32,101.824734 98.05,102.541151 97.69,103.227719 L97.57,103.436674 L97.33,103.854584 L97.15,104.212793 C96.82,104.779957 96.55,105.257569 96.28,105.824734 C96.25,105.944136 96.19,106.033689 96.16,106.063539 C95.95,106.750107 95.35,107.197868 95.32,107.884435 C95.29,108.212793 95.53,108.511301 95.74,108.839659 L95.92,109.197868 C96.31,110.003838 96.85,110.929211 97.24,111.735181 C97.45,112.182942 97.69,112.630704 97.93,113.078465 L98.56,114.421748 L98.71,114.690405 C98.92,114.929211 99.01,115.168017 99.13,115.436674 C99.16,115.556077 99.22,115.645629 99.25,115.705331 C99.25,115.735181 99.28,115.794883 99.31,115.884435 C99.4,116.153092 99.7,116.511301 99.61,116.660554 L99.61,116.660554 Z M117.85,114.750107 C117.82,114.600853 117.7,114.451599 117.52,114.362047 C117.01,114.123241 116.32,114.391898 115.63,114.302345 L115.36,114.302345 C115.15,114.302345 115,114.272495 114.79,114.242644 L109.36,114.242644 L109.36,112.451599 C109.36,111.526226 109.39,110.690405 109.36,109.765032 L109.36,109.496375 C110.74,109.496375 113.23,109.466525 115.3,109.466525 L115.66,109.466525 C116.38,109.376972 117.76,109.794883 117.61,108.600853 L117.61,108.302345 C117.61,108.09339 117.61,107.914286 117.64,107.705331 L117.64,107.376972 L117.73,106.391898 L117.73,106.182942 C117.76,105.914286 117.67,105.67548 117.46,105.526226 C117.01,105.257569 116.5,105.496375 115.99,105.406823 L115.36,105.406823 C115.15,105.406823 115,105.376972 114.79,105.347122 L109.45,105.347122 C109.45,105.227719 109.45,105.078465 109.48,104.929211 L109.48,102.302345 C109.48,102.212793 109.45,101.914286 109.45,101.526226 C110.98,101.526226 113.59,101.496375 115.66,101.496375 L115.87,101.496375 C116.47,101.496375 117.28,101.735181 117.55,101.406823 L117.7,101.197868 C117.73,101.048614 117.79,100.86951 117.82,100.630704 L117.82,100.451599 C117.85,99.884435 117.73,99.3769723 117.85,98.8098081 C117.85,98.6904051 117.88,98.5710022 117.88,98.4814499 C117.91,98.0336887 117.88,97.7053305 117.52,97.4963753 C117.01,97.2575693 116.32,97.526226 115.63,97.4366738 L115.36,97.4366738 C115.15,97.4366738 115,97.4068231 114.79,97.3769723 L108.82,97.3769723 C107.98,97.2575693 107.17,97.3172708 106.33,97.3471216 C106.24,97.3471216 106.15,97.3769723 106.06,97.3769723 C105.73,97.4665245 105.43,97.5859275 105.28,97.9739872 C105.28,98.0635395 105.25,98.1530917 105.25,98.2724947 C105.22,98.4515992 105.25,98.6605544 105.31,98.8993604 L105.31,99.9739872 C105.31,100.809808 105.28,101.67548 105.31,102.421748 L105.31,102.630704 C105.22,103.705331 105.25,104.779957 105.22,105.854584 L105.22,106.182942 C105.19,106.750107 105.16,107.227719 105.19,107.794883 L105.19,109.168017 C105.19,110.033689 105.22,113.824734 105.22,116.332196 L105.22,116.541151 C105.22,117.048614 105.07,117.67548 105.19,118.033689 C105.22,118.123241 105.28,118.182942 105.31,118.212793 C105.76,118.451599 106.18,118.451599 106.66,118.421748 L106.96,118.421748 C107.89,118.332196 108.79,118.421748 109.72,118.391898 L110.38,118.391898 C111.91,118.391898 113.98,118.362047 115.66,118.362047 L115.87,118.362047 C116.47,118.362047 117.28,118.600853 117.55,118.272495 L117.7,118.063539 L117.76,117.884435 C118.03,116.929211 117.82,115.973987 117.91,115.048614 L117.85,114.750107 Z M115.99,116.571002 C115.06,116.779957 114.22,116.630704 113.35,116.600853 C113.26,116.600853 113.17,116.571002 113.05,116.571002 C112.36,116.541151 111.7,116.541151 111.01,116.630704 L109.81,116.630704 C108.94,116.600853 108.07,116.720256 107.2,116.630704 C107.11,116.571002 107.05,116.48145 107.05,116.362047 L107.05,108.182942 C107.05,107.496375 106.99,106.839659 107.02,106.153092 L107.02,105.884435 C107.05,105.735181 107.05,105.585928 107.05,105.376972 L107.05,104.750107 C107.02,103.824734 106.99,102.988913 107.11,102.063539 L107.11,101.794883 C107.11,101.227719 107.08,100.779957 107.05,100.212793 L107.05,99.1978678 C107.05,98.9590619 107.26,98.8396589 107.47,98.9292111 L108.7,98.9292111 C109.51,98.9292111 110.32,98.8695096 111.13,98.8993604 L112.03,98.8993604 C112.12,98.8993604 112.21,98.9292111 112.3,98.9292111 C113.23,98.8993604 114.07,99.0187634 115,98.9292111 L115.27,98.9292111 C115.54,98.8993604 115.81,98.8695096 116.08,98.8695096 C116.47,98.8695096 116.47,99.4665245 116.08,99.4665245 C115.81,99.4665245 115.54,99.4963753 115.27,99.526226 C115.12,99.526226 115.03,99.526226 114.97,99.5560768 C114.04,99.5859275 113.23,99.4366738 112.3,99.526226 C112.24,99.4963753 112.15,99.4963753 112.03,99.4963753 L111.16,99.4963753 C110.29,99.4665245 109.39,99.526226 108.52,99.526226 L107.65,99.526226 L107.65,100.541151 C107.68,101.108316 107.68,101.615778 107.68,102.123241 C107.65,102.182942 107.65,102.272495 107.65,102.391898 L107.65,107.197868 L108.79,107.197868 C109.66,107.227719 110.56,107.227719 111.43,107.227719 L113.62,107.227719 C114.31,107.257569 115.03,107.197868 115.72,107.197868 C115.81,107.197868 115.87,107.227719 115.93,107.28742 C116.05,107.436674 116.02,107.705331 115.87,107.735181 C115.06,107.944136 114.37,107.824734 113.62,107.824734 L111.43,107.824734 C110.56,107.824734 109.66,107.765032 108.79,107.794883 L107.65,107.794883 L107.65,109.406823 C107.56,110.212793 107.71,111.018763 107.62,111.824734 L107.62,113.257569 C107.65,113.317271 107.65,113.406823 107.65,113.496375 L107.65,115.526226 C107.65,115.735181 107.62,115.973987 107.65,115.973987 C108.25,116.182942 108.88,116.033689 109.51,116.033689 L111.13,116.033689 C111.76,115.944136 112.36,115.973987 112.99,116.003838 L113.26,116.003838 C114.19,116.09339 115,115.944136 115.93,116.063539 C116.17,116.09339 116.23,116.48145 115.99,116.571002 L115.99,116.571002 Z M135.76,107.735181 C135.79,106.779957 135.85,105.794883 135.76,104.809808 L135.7,104.212793 L135.7,104.003838 L135.64,103.436674 C135.49,102.571002 135.49,101.67548 135.01,100.86951 C134.92,100.660554 134.8,100.451599 134.71,100.302345 C134.56,99.9441365 134.32,99.5859275 134.02,99.2277186 L133.81,99.0187634 L133.63,98.8695096 C133.54,98.7799574 133.57,98.7501066 133.48,98.7202559 C132.79,98.3918977 132.28,97.9739872 131.59,97.7351813 L131.29,97.6157783 C130.45,97.5859275 129.67,97.2874201 128.8,97.3172708 C128.71,97.3172708 128.65,97.2874201 128.56,97.2874201 L128.32,97.2874201 C128.23,97.2874201 128.14,97.2874201 128.08,97.2575693 C127.12,97.0486141 126.19,97.2874201 125.23,97.2575693 L124.93,97.2575693 C123.94,97.3769723 122.89,97.0784648 121.93,97.4068231 L121.72,97.5859275 L121.6,97.8247335 C121.45,98.1530917 121.39,98.5113007 121.42,98.8993604 L121.42,99.0784648 C121.42,101.018763 121.39,104.421748 121.39,104.511301 L121.33,105.317271 C121.33,105.406823 121.3,105.496375 121.3,105.585928 C121.3,105.67548 121.27,105.765032 121.27,105.854584 L121.27,106.153092 C121.18,107.078465 121.3,107.973987 121.27,108.89936 L121.27,109.168017 C121.27,110.929211 121.3,114.332196 121.3,116.362047 L121.3,116.690405 C121.3,117.615778 121.6,118.600853 122.71,118.362047 L124.24,118.362047 C125.35,118.362047 126.46,118.511301 127.54,118.421748 L127.84,118.421748 C128.29,118.421748 128.65,118.391898 129.04,118.362047 L129.79,118.362047 C130.72,118.153092 131.68,118.003838 132.52,117.496375 L132.76,117.317271 C133.12,117.078465 133.48,116.779957 133.81,116.451599 L134.02,116.242644 C134.62,115.496375 135.01,114.630704 135.4,113.765032 C135.4,113.67548 135.43,113.585928 135.43,113.496375 C135.43,113.406823 135.46,113.28742 135.46,113.197868 L135.61,112.272495 C135.61,112.153092 135.61,112.003838 135.64,111.884435 C135.73,111.436674 135.73,111.048614 135.76,110.660554 C135.85,109.67548 135.79,109.018763 135.76,108.063539 L135.76,107.735181 Z M134.08,106.839659 C134.08,106.929211 134.05,107.018763 134.05,107.108316 C134.08,108.09339 134.05,109.078465 134.02,110.063539 L134.02,110.362047 C134.02,111.048614 133.99,111.645629 133.9,112.332196 C133.87,112.421748 133.87,112.511301 133.87,112.630704 C133.66,113.496375 133.45,114.332196 132.76,114.929211 L132.58,115.108316 L132.4,115.317271 L132.22,115.496375 C131.47,115.944136 130.63,116.302345 129.7,116.511301 C129.64,116.541151 129.55,116.541151 129.46,116.541151 C129.37,116.541151 129.28,116.571002 129.19,116.571002 C128.71,116.600853 128.23,116.571002 127.75,116.571002 C127.27,116.571002 126.79,116.600853 126.31,116.630704 C125.32,116.660554 124.36,116.660554 123.37,116.660554 C123.13,116.660554 123.01,116.451599 123.1,116.242644 C123.07,116.212793 123.07,116.182942 123.07,116.09339 C123.04,115.466525 123.01,114.809808 123.01,114.182942 L123.01,113.884435 C123.01,113.67548 123.01,113.556077 123.04,113.347122 L123.04,113.048614 C123.04,112.660554 123.04,112.302345 123.07,111.914286 L123.07,111.376972 C123.04,111.168017 123.04,111.018763 123.04,110.809808 C123.01,110.242644 123.01,109.735181 123.1,109.168017 C123.1,109.048614 123.1,108.959062 123.07,108.89936 C123.04,108.212793 122.98,107.585928 123.07,106.89936 L123.07,106.630704 C123.07,106.511301 123.07,106.421748 123.04,106.391898 C123.04,105.794883 123.01,105.257569 123.01,104.690405 C123.04,104.600853 123.04,104.511301 123.04,104.391898 C123.07,103.944136 123.07,103.466525 123.07,103.018763 L123.07,99.1083156 C123.07,98.8993604 123.25,98.8098081 123.4,98.8396589 C123.43,98.8098081 123.46,98.8098081 123.49,98.8098081 C124.06,98.8098081 124.54,98.7799574 125.11,98.7501066 C125.62,98.7501066 126.16,98.7501066 126.67,98.7799574 L128.14,98.7799574 C128.2,98.8098081 128.29,98.8098081 128.41,98.8098081 L128.71,98.8695096 C129.1,98.8993604 129.49,98.8993604 129.85,98.9889126 C129.94,98.9889126 130,99.0187634 130.09,99.0187634 C130.57,99.0784648 130.99,99.2277186 131.38,99.4665245 L131.62,99.5859275 C132.01,99.8545842 132.34,100.123241 132.67,100.451599 L132.82,100.660554 C133.06,100.929211 133.24,101.227719 133.36,101.556077 L133.45,101.794883 C133.69,102.541151 133.81,103.28742 133.93,104.09339 C134.02,104.421748 134.02,104.720256 134.05,105.048614 L134.05,105.765032 C134.11,106.09339 134.11,106.451599 134.08,106.839659 L134.08,106.839659 Z M133.45,105.078465 C133.45,104.86951 133.42,104.720256 133.39,104.511301 C133.3,103.705331 133.18,102.988913 132.94,102.182942 L132.88,101.944136 C132.79,101.705331 132.67,101.496375 132.55,101.28742 L132.4,101.078465 L131.83,100.451599 L131.62,100.272495 C130.93,99.6754798 130.03,99.5560768 129.19,99.4665245 L128.98,99.4665245 L128.53,99.4068231 L128.29,99.4068231 C128.2,99.4068231 128.14,99.3769723 128.05,99.3769723 L127.84,99.3769723 C127.36,99.3769723 126.88,99.3769723 126.4,99.3471216 C125.47,99.3172708 124.6,99.4068231 123.67,99.4068231 L123.67,102.89936 C123.67,103.466525 123.64,103.973987 123.64,104.541151 L123.64,104.809808 C123.55,105.376972 123.64,105.944136 123.67,106.511301 L123.67,106.750107 C123.58,107.556077 123.67,108.362047 123.67,109.168017 L123.67,109.436674 C123.58,110.063539 123.64,110.630704 123.67,111.317271 L123.67,112.09339 C123.67,112.451599 123.64,112.809808 123.64,113.168017 L123.64,113.436674 C123.64,114.302345 123.64,115.138166 123.67,116.063539 L125.2,116.063539 C126.16,116.033689 127.12,115.973987 128.11,115.973987 C128.59,115.973987 129.07,116.033689 129.55,115.944136 C129.64,115.944136 129.64,115.914286 129.73,115.914286 C130.54,115.67548 131.29,115.376972 131.98,114.89936 L132.37,114.511301 C132.88,113.944136 133.15,113.257569 133.27,112.541151 C133.27,112.451599 133.3,112.391898 133.3,112.302345 C133.42,111.585928 133.42,110.86951 133.42,110.182942 L133.42,109.973987 C133.39,109.018763 133.57,108.09339 133.54,107.138166 L133.54,106.86951 C133.54,106.362047 133.48,105.854584 133.45,105.28742 L133.45,105.078465 Z M131.44,110.09339 C131.44,110.272495 131.44,110.391898 131.47,110.48145 L131.41,110.809808 C131.41,111.048614 131.38,111.406823 131.26,111.645629 C131.23,111.973987 131.2,112.242644 131.11,112.511301 C131.08,112.630704 131.02,112.720256 130.99,112.779957 C130.6,113.585928 129.79,114.123241 128.86,114.033689 L128.53,114.033689 L126.52,114.123241 L126.52,114.153092 C126.16,114.153092 125.8,114.212793 125.56,114.003838 C125.35,113.884435 125.47,113.406823 125.44,113.048614 L125.44,109.048614 C125.44,108.182942 125.56,107.28742 125.47,106.421748 C125.47,106.332196 125.5,106.242644 125.5,106.123241 C125.5,105.735181 125.53,105.376972 125.56,104.929211 L125.56,102.302345 C125.56,101.973987 125.47,101.585928 125.59,101.347122 C125.68,101.227719 125.98,101.227719 126.22,101.227719 C126.31,101.227719 126.4,101.227719 126.43,101.197868 L126.52,101.197868 L126.52,101.227719 C127.45,101.317271 128.29,101.28742 128.98,101.376972 C129.13,101.376972 129.22,101.376972 129.28,101.406823 C130.21,101.376972 130.78,102.212793 131.11,102.959062 L131.17,103.227719 L131.26,103.824734 C131.38,104.063539 131.41,104.421748 131.41,104.660554 L131.47,104.988913 C131.44,105.227719 131.44,105.496375 131.44,105.765032 L131.44,106.063539 C131.41,106.571002 131.47,107.048614 131.5,107.556077 L131.5,107.854584 L131.53,108.123241 C131.44,108.690405 131.35,109.227719 131.44,109.794883 L131.44,110.09339 Z M139.15,122.809808 C139.06,122.809808 139,122.779957 138.97,122.690405 C138.76,122.362047 139.03,122.123241 139.36,122.123241 C139.93,122.153092 140.41,122.332196 140.98,122.123241 C141.07,122.123241 141.16,122.09339 141.28,122.063539 C143.11,121.436674 143.2,119.28742 143.2,117.496375 C143.2,117.406823 143.23,117.317271 143.23,117.227719 C143.26,116.630704 143.26,116.033689 143.23,115.406823 C143.23,113.645629 143.2,111.944136 143.2,110.182942 C143.2,109.466525 143.14,108.779957 143.14,108.063539 C143.14,106.86951 143.2,105.67548 143.23,104.451599 C143.23,103.765032 143.26,103.168017 143.26,102.48145 C143.26,101.526226 143.26,100.571002 143.23,99.6157783 C143.23,98.6904051 143.23,97.7948828 143.2,96.8695096 C143.2,96.1829425 143.17,95.526226 142.9,94.8993604 C142.69,94.4515992 142.45,94.123241 142.15,93.884435 L141.94,93.7351813 C141.01,93.3471216 139.99,93.2277186 139,93.2277186 C138.91,93.2277186 138.85,93.1978678 138.79,93.1381663 C138.76,93.0486141 138.7,93.0187634 138.7,92.9292111 C138.7,92.7202559 138.79,92.6307037 139,92.6307037 C139.09,92.6008529 139.21,92.6008529 139.36,92.6008529 C140.29,92.8098081 141.31,92.7202559 142.18,93.1978678 C142.27,93.2874201 142.33,93.2575693 142.42,93.3471216 C142.81,93.645629 143.11,94.0336887 143.35,94.4814499 C143.71,95.1680171 143.8,95.9142857 143.8,96.6307037 C143.83,97.6157783 143.83,98.5710022 143.83,99.5560768 C143.86,100.48145 143.86,101.317271 143.86,102.242644 C143.86,104.003838 143.8,105.705331 143.8,107.496375 C143.8,109.28742 143.86,111.048614 143.86,112.86951 C143.77,113.854584 143.83,114.839659 143.83,115.824734 L143.83,117.28742 C143.68,119.28742 143.83,122.153092 141.07,122.720256 C140.98,122.720256 140.98,122.750107 140.89,122.750107 C140.32,122.86951 139.72,122.809808 139.15,122.809808 L139.15,122.809808 Z M141.4,109.197868 L141.4,111.914286 C141.4,112.421748 141.37,113.078465 141.37,113.645629 L141.37,113.973987 C141.4,114.541151 141.28,115.108316 141.37,115.67548 L141.37,117.496375 C141.28,118.302345 141.46,119.376972 141.07,120.123241 L140.92,120.302345 L140.71,120.48145 L140.38,120.630704 C140.26,120.690405 140.14,120.720256 140.02,120.720256 C139.66,120.809808 139.27,120.779957 138.91,120.809808 L138.64,120.809808 C138.31,120.86951 138.07,120.959062 137.86,121.108316 L137.68,121.317271 C137.47,122.033689 137.38,122.988913 137.74,123.735181 C137.8,123.824734 137.86,123.884435 137.95,123.944136 L138.19,124.123241 L138.46,124.242644 C139.39,124.362047 140.08,124.362047 140.95,124.272495 L141.25,124.272495 C142.33,124.182942 143.32,123.645629 144.13,122.959062 L144.34,122.720256 L144.7,122.272495 C144.76,122.212793 144.82,122.123241 144.85,122.033689 C144.88,121.944136 144.94,121.884435 144.97,121.854584 C145.24,121.018763 145.45,120.153092 145.54,119.28742 L145.54,116.362047 C145.54,115.67548 145.6,115.078465 145.6,114.391898 L145.6,113.496375 C145.57,112.988913 145.57,112.48145 145.57,111.914286 L145.6,111.914286 L145.6,110.003838 L145.6,107.197868 C145.6,105.67548 145.57,104.153092 145.57,103.197868 C145.57,102.630704 145.54,102.332196 145.54,102.242644 L145.54,98.7202559 L145.54,96.6904051 C145.57,96.003838 145.45,95.3471216 145.3,94.7202559 L145.21,94.4217484 C145.12,94.1530917 145,93.884435 144.85,93.6754798 C144.82,93.5859275 144.76,93.526226 144.7,93.4366738 L144.34,92.9889126 L144.13,92.7501066 C143.32,92.0635395 142.33,91.526226 141.25,91.4366738 L140.95,91.4366738 C140.38,91.3471216 139.93,91.3471216 139.36,91.3769723 C139.27,91.3769723 139.18,91.4068231 139.09,91.4068231 C138.34,91.3172708 137.62,91.7948828 137.53,92.6008529 C137.53,92.7202559 137.5,92.8098081 137.5,92.9292111 C137.47,93.3172708 137.47,93.7351813 137.62,94.123241 C137.65,94.2426439 137.71,94.3321962 137.74,94.3620469 C137.89,94.6008529 138.1,94.7501066 138.37,94.8098081 C138.43,94.8098081 138.49,94.8396589 138.58,94.8695096 C138.97,94.9292111 139.3,94.9590619 139.57,94.9292111 C139.66,94.9292111 139.75,94.9590619 139.84,94.9590619 C140.05,94.9590619 140.17,94.9889126 140.38,95.0784648 L140.71,95.2277186 L140.92,95.4068231 L141.07,95.5859275 C141.46,96.3321962 141.28,97.4068231 141.37,98.2127932 L141.37,99.3471216 C141.46,100.212793 141.4,101.048614 141.4,101.914286 L141.46,104.809808 L141.4,106.391898 L141.4,109.197868 Z" id="(fixed)" fill="#5D6063"></path>
            </g>
        </g>
    </g>
</svg>