<?xml version="1.0" encoding="UTF-8" standalone="no"?>
<svg width="200px" height="200px" viewBox="0 0 200 200" version="1.1" xmlns="http://www.w3.org/2000/svg" xmlns:xlink="http://www.w3.org/1999/xlink">
    <!-- Generator: Sketch 3.7.1 (28215) - http://www.bohemiancoding.com/sketch -->
    <title>relative</title>
    <desc>Created with Sketch.</desc>
    <defs></defs>
    <g id="Page-1" stroke="none" stroke-width="1" fill="none" fill-rule="evenodd">
        <g id="example-mockup" transform="translate(-531.000000, -167.000000)">
            <g id="relative" transform="translate(531.000000, 167.000000)">
                <rect id="Rectangle-70-Copy-4" fill="#B2D6FF" x="0" y="0.162149031" width="200" height="199.004975"></rect>
                <path d="M34.615,106.255881 L34.555,104.673792 L34.615,101.778269 C34.615,100.912598 34.555,100.076777 34.645,99.2111052 L34.645,98.0767768 C34.735,97.2708067 34.555,96.1961798 34.945,95.4499112 L35.095,95.2708067 L35.305,95.0917022 L35.635,94.9424485 C35.845,94.8528963 35.965,94.8230455 36.175,94.8230455 C36.265,94.8230455 36.355,94.7931948 36.445,94.7931948 C36.715,94.8230455 37.045,94.7931948 37.435,94.7334933 C37.525,94.7036425 37.585,94.6737918 37.645,94.6737918 C37.915,94.6140903 38.125,94.4648365 38.275,94.2260306 C38.305,94.1961798 38.365,94.1066276 38.395,93.9872246 C38.545,93.5991649 38.545,93.1812545 38.515,92.7931948 C38.515,92.6737918 38.485,92.5842395 38.485,92.4648365 C38.395,91.6588664 37.675,91.1812545 36.925,91.2708067 C36.835,91.2708067 36.745,91.240956 36.655,91.240956 C36.085,91.2111052 35.635,91.2111052 35.065,91.3006574 L34.765,91.3006574 C33.685,91.3902097 32.695,91.9275231 31.885,92.6140903 L31.675,92.8528963 L31.315,93.3006574 C31.225,93.3902097 31.195,93.4499112 31.165,93.5394634 C31.015,93.7484186 30.895,94.0170754 30.805,94.2857321 L30.715,94.5842395 C30.565,95.2111052 30.445,95.8678216 30.475,96.5543888 L30.475,98.5842395 L30.475,102.106628 C30.475,102.19618 30.445,102.494687 30.445,103.061851 C30.445,104.017075 30.415,105.539463 30.415,107.061851 L30.415,109.867822 L30.415,111.778269 L30.445,111.778269 C30.445,112.345434 30.445,112.852896 30.415,113.360359 L30.415,114.255881 C30.415,114.942448 30.475,115.539463 30.475,116.226031 L30.475,119.151404 C30.565,120.017075 30.775,120.882747 31.045,121.718568 C31.075,121.748419 31.135,121.80812 31.165,121.897672 C31.195,121.987225 31.225,122.076777 31.315,122.136478 L31.675,122.58424 L31.885,122.823046 C32.695,123.509613 33.685,124.046926 34.765,124.136478 L35.065,124.136478 C35.935,124.226031 36.625,124.226031 37.555,124.106628 L37.825,123.987225 L38.065,123.80812 C38.155,123.748419 38.215,123.688717 38.275,123.599165 C38.635,122.852896 38.545,121.897672 38.335,121.181254 L38.155,120.972299 C37.945,120.823046 37.705,120.733493 37.375,120.673792 L37.105,120.673792 C36.745,120.643941 36.355,120.673792 35.995,120.58424 C35.875,120.58424 35.755,120.554389 35.635,120.494687 L35.305,120.345434 L35.095,120.166329 L34.945,119.987225 C34.555,119.240956 34.735,118.166329 34.645,117.360359 L34.645,115.539463 C34.735,114.972299 34.615,114.405135 34.645,113.837971 L34.645,113.509613 C34.645,112.942448 34.615,112.285732 34.615,111.778269 L34.615,109.061851 L34.615,106.255881 Z M36.865,122.673792 C36.295,122.673792 35.695,122.733493 35.125,122.61409 C35.035,122.61409 35.035,122.58424 34.945,122.58424 C32.245,122.046926 32.275,119.151404 32.185,117.151404 L32.185,115.688717 C32.185,114.703643 32.245,113.718568 32.155,112.733493 C32.155,110.912598 32.215,109.151404 32.215,107.360359 C32.215,105.569314 32.155,103.867822 32.155,102.106628 C32.155,101.181254 32.155,100.345434 32.185,99.4200604 C32.185,98.4349858 32.185,97.4797619 32.215,96.4946873 C32.215,95.7782694 32.305,95.0320007 32.665,94.3454336 C32.875,93.8976724 33.205,93.5096127 33.595,93.2111052 C33.685,93.121553 33.745,93.1514037 33.835,93.0618515 C34.705,92.5842395 35.725,92.6737918 36.655,92.4648365 C36.805,92.4648365 36.925,92.4648365 37.015,92.4946873 C37.225,92.4946873 37.315,92.5842395 37.315,92.7931948 C37.315,92.882747 37.255,92.9125977 37.225,93.00215 C37.165,93.0618515 37.105,93.0917022 37.015,93.0917022 C36.025,93.0917022 35.005,93.2111052 34.075,93.5991649 L33.865,93.7484186 C33.565,93.9872246 33.325,94.3155828 33.115,94.763344 C32.845,95.3902097 32.815,96.0469261 32.815,96.7334933 C32.785,97.6588664 32.785,98.5543888 32.785,99.4797619 C32.755,100.434986 32.755,101.39021 32.755,102.345434 C32.755,103.032001 32.785,103.629016 32.785,104.315583 C32.815,105.539463 32.875,106.733493 32.875,107.927523 C32.875,108.643941 32.815,109.330508 32.815,110.046926 C32.815,111.80812 32.785,113.509613 32.785,115.270807 C32.755,115.897672 32.755,116.494687 32.785,117.091702 C32.785,117.181254 32.815,117.270807 32.815,117.360359 C32.815,119.151404 32.905,121.300657 34.735,121.927523 C34.855,121.957374 34.945,121.987225 35.035,121.987225 C35.605,122.19618 36.085,122.017075 36.655,121.987225 C36.985,121.987225 37.255,122.226031 37.045,122.554389 C37.015,122.643941 36.955,122.673792 36.865,122.673792 L36.865,122.673792 Z M55.255,116.136478 C55.255,115.748419 55.135,115.360359 54.925,115.032001 L54.805,114.912598 C54.565,114.643941 54.145,114.763344 53.785,114.673792 C53.695,114.673792 53.635,114.643941 53.545,114.643941 C53.215,114.61409 52.945,114.524538 52.735,114.434986 C52.645,114.405135 52.585,114.375284 52.495,114.285732 L52.255,114.106628 L52.075,113.897672 L51.895,113.658866 C51.805,113.599165 51.775,113.509613 51.745,113.42006 C51.535,113.181254 51.445,112.942448 51.295,112.61409 C51.265,112.554389 51.205,112.464837 51.175,112.345434 C50.665,111.479762 50.245,110.554389 49.855,109.599165 C50.185,109.509613 50.455,109.479762 50.785,109.330508 L50.995,109.211105 C51.025,109.181254 51.115,109.121553 51.205,109.091702 L51.745,108.733493 C51.805,108.703643 51.895,108.673792 52.015,108.58424 C52.255,108.434986 52.525,108.285732 52.735,108.076777 L52.975,107.867822 C53.335,107.569314 53.635,107.211105 53.875,106.763344 L54.025,106.494687 C54.295,105.957374 54.505,105.330508 54.595,104.643941 L54.655,104.375284 C54.685,103.688717 54.775,103.121553 54.685,102.434986 C54.655,102.315583 54.625,102.226031 54.625,102.106628 C54.355,101.300657 54.265,100.464837 53.815,99.7484186 L53.635,99.5096127 L53.485,99.3305082 L53.185,98.9722992 L52.945,98.763344 L52.675,98.5543888 L52.375,98.4051351 C51.565,97.9573739 50.755,97.4797619 49.825,97.4499112 C49.735,97.4499112 49.615,97.4200604 49.525,97.4200604 C49.015,97.3305082 48.535,97.2111052 47.965,97.240956 C47.875,97.240956 47.815,97.2111052 47.725,97.2111052 C47.005,97.121553 46.255,97.121553 45.535,97.2111052 L45.235,97.2111052 C44.755,97.240956 44.275,97.2111052 43.795,97.2111052 L43.495,97.2111052 C42.685,97.2111052 41.905,97.0618515 41.095,97.3305082 L40.885,97.5096127 L40.765,97.7484186 C40.615,98.0767768 40.555,98.4349858 40.585,98.8230455 L40.585,99.4499112 C40.555,99.9573739 40.495,100.464837 40.525,100.972299 L40.525,101.270807 C40.615,101.957374 40.495,102.554389 40.525,103.240956 L40.525,103.539463 C40.555,103.80812 40.525,104.106628 40.615,104.375284 C40.585,104.464837 40.585,104.554389 40.585,104.703643 C40.585,104.793195 40.555,104.912598 40.555,105.00215 L40.555,105.240956 C40.555,105.330508 40.525,105.360359 40.525,105.449911 C40.525,105.539463 40.525,105.599165 40.495,105.658866 C40.585,106.643941 40.615,107.718568 40.585,108.703643 C40.585,108.852896 40.585,108.942448 40.615,109.00215 L40.615,110.554389 C40.615,110.643941 40.585,110.733493 40.585,110.823046 C40.615,111.300657 40.615,111.778269 40.585,112.226031 L40.585,112.524538 C40.615,112.972299 40.585,113.42006 40.585,113.867822 L40.585,114.136478 C40.615,114.852896 40.555,115.569314 40.555,116.285732 L40.555,116.58424 C40.585,116.912598 40.465,117.330508 40.555,117.688717 L40.645,117.927523 C41.095,118.554389 42.055,118.285732 42.685,118.285732 C42.745,118.255881 42.835,118.255881 42.955,118.255881 C43.255,118.226031 43.525,118.226031 43.795,118.255881 C43.885,118.255881 43.945,118.226031 44.035,118.226031 C44.305,118.166329 44.515,118.017075 44.605,117.748419 L44.665,117.509613 C44.785,116.942448 44.635,116.405135 44.635,115.837971 L44.635,115.599165 C44.635,115.032001 44.665,114.494687 44.665,113.927523 L44.665,113.629016 C44.695,113.599165 44.695,113.509613 44.695,113.39021 C44.725,113.151404 44.695,112.912598 44.725,112.673792 C44.755,112.61409 44.755,112.524538 44.755,112.375284 C44.755,111.80812 44.725,111.270807 44.695,110.703643 L44.695,110.464837 C44.725,110.226031 44.725,109.987225 44.695,109.748419 C44.935,109.778269 45.145,109.778269 45.385,109.778269 L45.595,109.778269 C45.625,109.778269 45.655,109.80812 45.685,109.80812 L45.775,110.046926 C46.105,110.61409 46.345,111.151404 46.615,111.718568 C46.645,111.837971 46.705,111.927523 46.735,111.957374 C46.765,112.076777 46.825,112.166329 46.855,112.255881 C46.885,112.375284 46.945,112.464837 46.975,112.554389 L47.515,113.80812 L47.605,114.076777 L47.845,114.554389 C47.875,114.673792 47.935,114.763344 47.965,114.823046 C47.995,114.942448 48.055,115.032001 48.085,115.091702 C48.445,115.80812 48.895,116.464837 49.465,117.061851 L49.615,117.181254 C49.705,117.300657 49.795,117.39021 49.915,117.479762 L50.125,117.629016 C50.755,118.136478 51.535,118.375284 52.345,118.405135 L52.645,118.405135 C53.035,118.375284 53.455,118.375284 53.845,118.285732 L54.025,118.226031 C54.055,118.226031 54.115,118.19618 54.205,118.166329 L54.505,118.046926 C54.865,117.837971 55.075,117.509613 55.195,117.151404 C55.225,117.00215 55.255,116.882747 55.255,116.852896 C55.285,116.703643 55.285,116.524538 55.285,116.375284 C55.285,116.285732 55.285,116.19618 55.255,116.136478 L55.255,116.136478 Z M53.815,116.58424 C53.725,116.58424 53.665,116.61409 53.575,116.61409 L53.305,116.61409 C52.225,116.703643 50.995,116.345434 50.395,115.360359 L50.185,115.151404 C50.095,115.00215 49.975,114.852896 49.885,114.673792 C49.795,114.554389 49.765,114.464837 49.735,114.405135 C49.375,113.718568 49.045,113.091702 48.655,112.464837 C48.625,112.345434 48.565,112.255881 48.535,112.19618 L48.085,111.151404 L47.995,110.942448 C47.635,109.957374 47.365,109.091702 46.795,108.166329 C46.765,108.136478 46.765,108.106628 46.765,108.106628 L45.865,108.106628 C45.355,108.106628 44.875,108.106628 44.395,108.076777 C44.185,108.046926 44.065,108.017075 43.855,108.017075 C43.765,108.046926 43.585,108.046926 43.375,108.046926 C43.225,108.046926 43.045,108.046926 42.895,108.017075 L42.895,111.061851 C42.865,111.539463 42.865,112.046926 42.865,112.524538 L42.865,112.823046 C43.015,113.688717 42.745,114.524538 42.835,115.39021 C42.835,115.509613 42.835,115.599165 42.865,115.629016 C42.865,115.837971 42.865,115.987225 42.895,116.136478 L42.895,116.793195 C42.895,116.972299 42.805,117.061851 42.595,117.061851 C42.505,117.061851 42.415,117.032001 42.385,117.00215 C42.295,116.763344 42.295,116.494687 42.265,116.255881 L42.265,115.211105 C42.355,114.58424 42.265,113.987225 42.295,113.360359 L42.295,112.046926 C42.325,112.017075 42.325,111.927523 42.325,111.837971 L42.325,111.599165 C42.325,111.211105 42.325,110.852896 42.295,110.464837 C42.295,110.345434 42.295,110.255881 42.325,110.166329 C42.355,109.300657 42.385,108.464837 42.295,107.539463 L42.295,107.300657 C42.355,106.434986 42.355,105.539463 42.295,104.673792 L42.295,104.285732 C42.265,103.599165 42.205,103.032001 42.295,102.345434 L42.295,101.957374 C42.265,101.032001 42.355,100.19618 42.265,99.3305082 C42.265,99.2708067 42.295,99.2111052 42.325,99.121553 C42.355,99.0917022 42.415,99.0320007 42.505,99.00215 C43.195,98.8528963 43.885,98.9722992 44.605,98.9424485 L44.875,98.9424485 C45.265,98.9424485 45.655,98.9424485 46.045,98.9125977 C47.215,98.882747 48.295,98.9125977 49.465,99.121553 C50.275,99.240956 51.025,99.5394634 51.595,100.166329 C51.805,100.405135 52.015,100.703643 52.165,101.061851 L52.255,101.300657 C52.315,101.360359 52.345,101.42006 52.345,101.509613 L52.435,101.748419 C52.525,101.897672 52.495,102.046926 52.585,102.19618 L52.675,102.524538 C52.825,103.151404 52.705,103.778269 52.675,104.405135 C52.675,104.494687 52.645,104.524538 52.645,104.61409 L52.585,104.912598 C52.495,105.360359 52.315,105.748419 52.075,106.046926 L51.895,106.315583 C51.565,106.703643 51.205,107.061851 50.755,107.39021 C50.695,107.42006 50.605,107.449911 50.485,107.539463 L49.915,107.778269 L49.615,107.867822 C48.895,108.017075 48.145,108.076777 47.425,108.076777 C47.905,108.912598 48.265,109.867822 48.595,110.793195 C48.625,110.912598 48.685,111.00215 48.715,111.061851 C48.835,111.39021 48.955,111.718568 49.105,112.046926 L49.225,112.285732 C49.555,112.852896 49.825,113.449911 50.155,114.017075 C50.245,114.136478 50.275,114.226031 50.305,114.285732 C50.395,114.375284 50.365,114.434986 50.455,114.524538 L50.635,114.793195 L50.845,115.00215 C51.415,115.80812 52.375,116.166329 53.335,116.017075 L53.575,116.017075 C53.665,116.017075 53.725,115.987225 53.815,115.987225 C54.025,115.987225 54.115,116.076777 54.115,116.285732 C54.115,116.494687 54.025,116.58424 53.815,116.58424 L53.815,116.58424 Z M49.795,107.181254 C50.005,107.091702 50.125,107.061851 50.335,106.942448 C50.395,106.912598 50.485,106.882747 50.605,106.793195 C50.815,106.673792 51.025,106.464837 51.265,106.19618 L51.445,105.987225 C51.595,105.80812 51.715,105.629016 51.805,105.449911 L51.895,105.270807 L52.015,104.852896 L52.135,104.375284 C52.165,104.315583 52.165,104.226031 52.165,104.106628 C52.255,103.42006 52.105,102.793195 51.955,102.166329 L51.865,101.897672 L51.685,101.42006 L51.565,101.181254 C51.295,100.673792 50.965,100.315583 50.515,100.076777 C49.825,99.6887171 49.015,99.6588664 48.205,99.5693142 C47.275,99.4797619 46.315,99.5096127 45.355,99.5394634 L44.425,99.5394634 C43.915,99.5693142 43.405,99.5991649 42.895,99.5693142 L42.895,99.7782694 C42.925,99.8081201 42.925,99.8976724 42.925,99.9872246 C42.955,100.434986 42.895,100.793195 42.895,101.240956 L42.895,102.166329 C42.805,102.882747 42.775,103.629016 42.865,104.345434 C42.895,104.554389 42.895,104.733493 42.895,104.942448 L42.895,107.42006 C42.925,107.42006 42.955,107.449911 43.045,107.449911 L43.495,107.449911 C43.645,107.449911 43.795,107.42006 43.945,107.42006 C44.155,107.42006 44.305,107.449911 44.515,107.479762 C45.445,107.569314 46.405,107.509613 47.335,107.479762 C48.025,107.479762 48.775,107.479762 49.495,107.270807 L49.795,107.181254 Z M46.315,105.837971 C45.985,105.837971 45.715,105.80812 45.385,105.80812 L44.695,105.80812 L44.695,105.270807 C44.665,105.211105 44.665,105.121553 44.665,104.972299 C44.665,104.852896 44.665,104.763344 44.695,104.703643 L44.695,104.464837 L44.725,104.464837 L44.725,104.434986 C44.725,104.345434 44.755,104.285732 44.755,104.19618 C44.755,104.076777 44.755,103.987225 44.725,103.927523 L44.755,103.927523 C44.785,103.449911 44.725,103.00215 44.725,102.524538 L44.725,102.226031 C44.725,101.897672 44.635,101.509613 44.755,101.270807 C44.785,101.240956 44.845,101.181254 44.995,101.151404 L45.205,101.151404 C45.955,101.061851 46.675,101.151404 47.485,101.151404 C47.605,101.151404 47.695,101.151404 47.755,101.121553 C48.505,101.211105 49.435,101.360359 49.795,102.046926 C49.855,102.106628 49.915,102.19618 49.975,102.315583 C50.065,102.464837 50.185,102.673792 50.275,102.882747 L50.335,103.151404 L50.335,103.240956 C50.335,103.330508 50.365,103.360359 50.365,103.449911 C50.425,103.658866 50.425,103.867822 50.395,104.106628 L50.335,104.345434 L50.245,104.673792 C50.215,104.763344 50.215,104.852896 50.125,104.942448 C50.035,105.211105 49.825,105.42006 49.525,105.569314 L49.255,105.688717 C48.415,105.927523 47.515,105.867822 46.645,105.837971 L46.315,105.837971 Z M70.705,114.61409 C70.675,114.464837 70.555,114.315583 70.375,114.226031 C69.865,113.987225 69.175,114.255881 68.485,114.166329 L68.215,114.166329 C68.005,114.166329 67.855,114.136478 67.645,114.106628 L62.215,114.106628 L62.215,112.315583 C62.215,111.39021 62.245,110.554389 62.215,109.629016 L62.215,109.360359 C63.595,109.360359 66.085,109.330508 68.155,109.330508 L68.515,109.330508 C69.235,109.240956 70.615,109.658866 70.465,108.464837 L70.465,108.166329 C70.465,107.957374 70.465,107.778269 70.495,107.569314 L70.495,107.240956 L70.585,106.255881 L70.585,106.046926 C70.615,105.778269 70.525,105.539463 70.315,105.39021 C69.865,105.121553 69.355,105.360359 68.845,105.270807 L68.215,105.270807 C68.005,105.270807 67.855,105.240956 67.645,105.211105 L62.305,105.211105 C62.305,105.091702 62.305,104.942448 62.335,104.793195 L62.335,102.166329 C62.335,102.076777 62.305,101.778269 62.305,101.39021 C63.835,101.39021 66.445,101.360359 68.515,101.360359 L68.725,101.360359 C69.325,101.360359 70.135,101.599165 70.405,101.270807 L70.555,101.061851 C70.585,100.912598 70.645,100.733493 70.675,100.494687 L70.675,100.315583 C70.705,99.7484186 70.585,99.240956 70.705,98.6737918 C70.705,98.5543888 70.735,98.4349858 70.735,98.3454336 C70.765,97.8976724 70.735,97.5693142 70.375,97.3603589 C69.865,97.121553 69.175,97.3902097 68.485,97.3006574 L68.215,97.3006574 C68.005,97.3006574 67.855,97.2708067 67.645,97.240956 L61.675,97.240956 C60.835,97.121553 60.025,97.1812545 59.185,97.2111052 C59.095,97.2111052 59.005,97.240956 58.915,97.240956 C58.585,97.3305082 58.285,97.4499112 58.135,97.8379709 C58.135,97.9275231 58.105,98.0170754 58.105,98.1364783 C58.075,98.3155828 58.105,98.524538 58.165,98.763344 L58.165,99.8379709 C58.165,100.673792 58.135,101.539463 58.165,102.285732 L58.165,102.494687 C58.075,103.569314 58.105,104.643941 58.075,105.718568 L58.075,106.046926 C58.045,106.61409 58.015,107.091702 58.045,107.658866 L58.045,109.032001 C58.045,109.897672 58.075,113.688717 58.075,116.19618 L58.075,116.405135 C58.075,116.912598 57.925,117.539463 58.045,117.897672 C58.075,117.987225 58.135,118.046926 58.165,118.076777 C58.615,118.315583 59.035,118.315583 59.515,118.285732 L59.815,118.285732 C60.745,118.19618 61.645,118.285732 62.575,118.255881 L63.235,118.255881 C64.765,118.255881 66.835,118.226031 68.515,118.226031 L68.725,118.226031 C69.325,118.226031 70.135,118.464837 70.405,118.136478 L70.555,117.927523 L70.615,117.748419 C70.885,116.793195 70.675,115.837971 70.765,114.912598 L70.705,114.61409 Z M68.845,116.434986 C67.915,116.643941 67.075,116.494687 66.205,116.464837 C66.115,116.464837 66.025,116.434986 65.905,116.434986 C65.215,116.405135 64.555,116.405135 63.865,116.494687 L62.665,116.494687 C61.795,116.464837 60.925,116.58424 60.055,116.494687 C59.965,116.434986 59.905,116.345434 59.905,116.226031 L59.905,108.046926 C59.905,107.360359 59.845,106.703643 59.875,106.017075 L59.875,105.748419 C59.905,105.599165 59.905,105.449911 59.905,105.240956 L59.905,104.61409 C59.875,103.688717 59.845,102.852896 59.965,101.927523 L59.965,101.658866 C59.965,101.091702 59.935,100.643941 59.905,100.076777 L59.905,99.0618515 C59.905,98.8230455 60.115,98.7036425 60.325,98.7931948 L61.555,98.7931948 C62.365,98.7931948 63.175,98.7334933 63.985,98.763344 L64.885,98.763344 C64.975,98.763344 65.065,98.7931948 65.155,98.7931948 C66.085,98.763344 66.925,98.882747 67.855,98.7931948 L68.125,98.7931948 C68.395,98.763344 68.665,98.7334933 68.935,98.7334933 C69.325,98.7334933 69.325,99.3305082 68.935,99.3305082 C68.665,99.3305082 68.395,99.3603589 68.125,99.3902097 C67.975,99.3902097 67.885,99.3902097 67.825,99.4200604 C66.895,99.4499112 66.085,99.3006574 65.155,99.3902097 C65.095,99.3603589 65.005,99.3603589 64.885,99.3603589 L64.015,99.3603589 C63.145,99.3305082 62.245,99.3902097 61.375,99.3902097 L60.505,99.3902097 L60.505,100.405135 C60.535,100.972299 60.535,101.479762 60.535,101.987225 C60.505,102.046926 60.505,102.136478 60.505,102.255881 L60.505,107.061851 L61.645,107.061851 C62.515,107.091702 63.415,107.091702 64.285,107.091702 L66.475,107.091702 C67.165,107.121553 67.885,107.061851 68.575,107.061851 C68.665,107.061851 68.725,107.091702 68.785,107.151404 C68.905,107.300657 68.875,107.569314 68.725,107.599165 C67.915,107.80812 67.225,107.688717 66.475,107.688717 L64.285,107.688717 C63.415,107.688717 62.515,107.629016 61.645,107.658866 L60.505,107.658866 L60.505,109.270807 C60.415,110.076777 60.565,110.882747 60.475,111.688717 L60.475,113.121553 C60.505,113.181254 60.505,113.270807 60.505,113.360359 L60.505,115.39021 C60.505,115.599165 60.475,115.837971 60.505,115.837971 C61.105,116.046926 61.735,115.897672 62.365,115.897672 L63.985,115.897672 C64.615,115.80812 65.215,115.837971 65.845,115.867822 L66.115,115.867822 C67.045,115.957374 67.855,115.80812 68.785,115.927523 C69.025,115.957374 69.085,116.345434 68.845,116.434986 L68.845,116.434986 Z M84.085,115.748419 C84.055,115.599165 84.055,115.449911 84.055,115.240956 L84.055,114.972299 C84.145,114.524538 84.025,114.017075 83.425,114.106628 L78.355,114.106628 L78.355,111.509613 C78.355,111.240956 78.385,110.972299 78.385,110.703643 C78.385,110.61409 78.415,110.524538 78.415,110.434986 C78.505,109.509613 78.385,108.61409 78.415,107.688717 C78.415,107.569314 78.415,107.479762 78.385,107.39021 L78.385,106.226031 C78.475,105.42006 78.475,104.733493 78.565,103.927523 L78.565,103.629016 C78.565,103.300657 78.535,102.942448 78.535,102.61409 L78.535,102.345434 C78.535,101.42006 78.565,100.524538 78.475,99.5991649 L78.475,99.3305082 C78.475,98.6140903 78.715,97.6588664 78.085,97.2708067 L77.905,97.2111052 L77.695,97.2111052 C77.635,97.1812545 77.545,97.1812545 77.425,97.1812545 C77.275,97.1514037 77.095,97.1514037 76.945,97.1514037 C76.795,97.1514037 76.705,97.1514037 76.615,97.1812545 L76.375,97.1812545 C76.015,97.1812545 75.685,97.2111052 75.325,97.2111052 C75.235,97.2111052 75.145,97.240956 75.055,97.240956 C74.725,97.3305082 74.425,97.4499112 74.275,97.8379709 C74.275,97.9275231 74.245,98.0170754 74.245,98.1364783 C74.215,98.3155828 74.245,98.524538 74.305,98.763344 L74.305,99.8379709 C74.305,100.673792 74.275,101.539463 74.305,102.285732 L74.305,102.494687 C74.215,103.569314 74.245,104.643941 74.215,105.718568 L74.215,106.046926 C74.185,106.61409 74.155,107.091702 74.185,107.658866 L74.185,109.032001 C74.185,109.718568 74.215,112.285732 74.215,114.524538 L74.215,114.733493 C74.185,115.688717 74.065,116.703643 74.155,117.688717 C74.155,117.778269 74.155,117.867822 74.185,117.897672 C74.215,117.987225 74.275,118.046926 74.305,118.076777 C74.755,118.315583 75.175,118.315583 75.655,118.285732 L75.955,118.285732 C76.885,118.19618 77.785,118.285732 78.715,118.255881 L82.075,118.255881 C82.165,118.226031 82.285,118.226031 82.435,118.226031 C82.585,118.226031 82.705,118.255881 82.915,118.255881 L83.155,118.255881 C83.755,118.345434 84.055,117.867822 84.055,117.300657 L84.055,117.121553 C84.145,116.763344 84.115,116.375284 84.085,116.017075 L84.085,115.748419 Z M82.495,116.285732 C81.895,116.405135 81.295,116.375284 80.725,116.375284 L80.485,116.375284 C79.915,116.464837 79.315,116.375284 78.745,116.405135 L78.565,116.405135 C78.295,116.405135 78.055,116.405135 77.785,116.375284 L76.135,116.375284 C76.045,116.315583 75.985,116.226031 75.985,116.106628 L75.985,114.703643 C75.895,114.19618 75.925,113.688717 75.925,113.181254 C75.925,113.061851 75.955,112.972299 75.955,112.882747 C75.955,112.673792 75.955,112.554389 75.985,112.345434 L75.985,110.166329 C75.985,109.479762 75.955,108.823046 75.925,108.136478 L75.925,107.867822 C75.925,107.39021 75.955,106.942448 75.985,106.494687 L75.985,105.867822 C76.015,105.061851 76.015,104.375284 76.015,103.569314 C76.015,103.479762 76.015,103.39021 75.985,103.330508 L75.985,102.524538 C75.895,102.166329 75.955,101.80812 75.955,101.479762 L75.955,100.882747 C75.985,100.823046 75.985,100.733493 75.985,100.58424 L75.985,98.7036425 C76.015,98.643941 76.015,98.5543888 76.015,98.4349858 C76.015,98.2857321 76.105,98.2260306 76.285,98.2260306 C76.405,98.2260306 76.585,98.2857321 76.585,98.4349858 L76.585,100.673792 C76.495,101.479762 76.585,102.285732 76.615,103.091702 C76.645,103.181254 76.645,103.270807 76.645,103.42006 C76.735,104.375284 76.675,105.360359 76.585,106.315583 L76.585,109.867822 C76.615,110.912598 76.675,111.867822 76.585,112.912598 L76.585,115.778269 L79.765,115.778269 C80.245,115.778269 80.725,115.748419 81.205,115.748419 C81.325,115.748419 81.415,115.718568 81.505,115.718568 C81.775,115.718568 82.075,115.718568 82.345,115.748419 C82.435,115.748419 82.525,115.778269 82.555,115.837971 C82.645,115.987225 82.705,116.255881 82.495,116.285732 L82.495,116.285732 Z M101.455,107.42006 C101.485,106.464837 101.545,105.479762 101.455,104.494687 C101.425,104.106628 101.425,103.718568 101.335,103.270807 C101.305,103.151404 101.305,103.00215 101.305,102.882747 L101.155,101.957374 C101.155,101.867822 101.125,101.748419 101.125,101.658866 C101.095,101.300657 101.005,101.00215 100.915,100.673792 L100.795,100.345434 C100.345,99.4797619 99.745,98.7036425 99.055,98.0170754 L98.905,97.8976724 C97.945,97.0917022 96.685,96.9125977 95.485,96.7931948 L95.035,96.7931948 C93.685,96.882747 92.305,96.7036425 91.015,97.1812545 L90.625,97.3305082 C89.935,97.6588664 89.305,97.9573739 88.825,98.524538 L88.585,98.7931948 C88.375,99.0618515 88.165,99.3305082 88.015,99.6588664 C87.805,100.046926 87.595,100.494687 87.445,101.00215 C87.175,101.748419 87.055,102.554389 86.965,103.360359 C86.875,104.106628 86.815,104.852896 86.785,105.569314 C86.755,106.554389 86.695,107.569314 86.695,108.554389 C86.695,109.032001 86.665,109.539463 86.665,110.017075 L86.665,110.375284 C86.635,110.942448 86.665,111.509613 86.695,112.076777 C86.725,112.136478 86.725,112.226031 86.725,112.345434 C86.725,113.181254 86.755,113.987225 86.665,114.823046 L86.665,115.061851 C86.635,115.151404 86.635,115.300657 86.635,115.509613 C86.635,115.658866 86.635,115.748419 86.605,115.837971 C86.635,116.524538 86.365,117.211105 86.725,117.837971 C87.055,118.405135 87.835,118.285732 88.405,118.315583 C88.495,118.285732 88.585,118.285732 88.735,118.285732 C89.245,118.255881 89.755,118.166329 90.325,118.19618 C90.415,118.19618 90.505,118.166329 90.595,118.076777 C90.805,117.867822 90.805,117.449911 90.835,117.121553 L90.835,116.763344 C90.805,116.554389 90.805,116.315583 90.835,116.106628 L90.835,115.629016 C90.835,115.300657 90.865,115.032001 90.895,114.703643 C90.895,114.554389 90.895,114.464837 90.925,114.405135 C90.925,113.449911 90.895,112.464837 90.925,111.509613 C90.895,111.479762 90.895,111.449911 90.895,111.360359 C91.885,111.360359 92.845,111.39021 93.835,111.39021 L95.755,111.39021 C96.205,111.39021 96.625,111.449911 97.075,111.479762 L97.075,111.688717 C97.075,112.136478 97.045,112.494687 97.045,112.942448 C97.015,113.032001 97.015,113.181254 97.015,113.360359 C97.015,113.509613 97.045,113.658866 97.045,113.80812 L97.045,114.285732 C97.135,115.330508 96.835,116.345434 96.985,117.39021 C97.045,117.80812 97.255,118.076777 97.615,118.166329 C97.705,118.255881 97.825,118.226031 97.975,118.255881 C98.335,118.285732 98.785,118.315583 99.265,118.315583 L99.595,118.315583 C100.225,118.226031 101.185,118.494687 101.365,117.658866 C101.575,116.793195 101.395,115.927523 101.365,115.061851 C101.365,114.972299 101.365,114.882747 101.335,114.852896 L101.335,113.80812 C101.335,113.539463 101.335,113.240956 101.365,112.972299 C101.395,112.882747 101.395,112.733493 101.395,112.524538 C101.425,111.718568 101.425,111.032001 101.425,110.226031 C101.425,110.076777 101.425,109.957374 101.395,109.748419 L101.395,108.912598 C101.425,108.405135 101.455,107.927523 101.455,107.42006 L101.455,107.42006 Z M99.655,110.703643 C99.655,110.972299 99.655,111.240956 99.625,111.569314 L99.625,111.867822 C99.625,112.106628 99.595,112.375284 99.595,112.643941 L99.595,112.912598 C99.595,113.837971 99.625,114.763344 99.535,115.718568 L99.535,116.464837 C99.535,116.852896 98.935,116.852896 98.935,116.464837 L98.935,115.569314 C99.025,114.733493 98.965,113.927523 98.965,113.091702 C98.995,113.032001 98.995,112.942448 98.995,112.793195 C98.995,112.524538 99.025,112.255881 99.025,111.927523 L99.025,111.718568 C99.025,111.629016 99.055,111.599165 99.055,111.509613 C99.055,110.942448 99.085,110.434986 99.085,109.867822 L99.085,109.658866 L96.655,109.658866 C95.845,109.629016 95.125,109.569314 94.315,109.569314 C94.045,109.539463 93.775,109.539463 93.445,109.539463 L93.235,109.539463 C92.305,109.509613 91.345,109.539463 90.415,109.449911 C90.295,109.449911 90.205,109.449911 90.145,109.42006 L88.915,109.42006 C88.885,109.867822 88.885,110.285732 88.885,110.733493 L88.885,113.688717 C88.885,114.673792 88.795,115.629016 88.795,116.61409 C88.795,117.00215 88.195,117.00215 88.195,116.61409 C88.195,115.688717 88.285,114.852896 88.285,113.927523 L88.285,111.270807 C88.285,110.285732 88.285,109.300657 88.375,108.315583 C88.465,107.360359 88.495,106.375284 88.585,105.42006 C88.645,104.434986 88.765,103.479762 88.975,102.61409 C89.185,101.80812 89.335,100.972299 89.815,100.285732 C90.235,99.6887171 90.805,99.240956 91.495,98.9125977 C91.855,98.763344 92.185,98.643941 92.545,98.5543888 C92.995,98.4648365 93.325,98.4946873 93.775,98.4946873 L94.495,98.4946873 C94.585,98.4946873 94.675,98.4946873 94.735,98.524538 C95.425,98.524538 96.055,98.643941 96.655,98.9125977 L96.895,99.00215 C97.825,99.3902097 98.425,100.19618 98.875,101.121553 L98.965,101.360359 C99.055,101.569314 99.055,101.718568 99.145,101.867822 L99.205,102.136478 C99.205,102.226031 99.235,102.226031 99.235,102.315583 C99.445,103.240956 99.445,104.106628 99.535,105.032001 L99.535,105.300657 C99.565,105.569314 99.595,105.837971 99.595,106.106628 C99.595,106.19618 99.625,106.255881 99.625,106.345434 L99.685,107.778269 C99.685,108.763344 99.685,109.718568 99.655,110.703643 L99.655,110.703643 Z M98.995,106.136478 C98.965,106.046926 98.965,105.957374 98.965,105.837971 L98.905,105.330508 L98.905,105.061851 C98.875,104.136478 98.845,103.300657 98.635,102.375284 C98.635,102.285732 98.605,102.226031 98.605,102.136478 L98.335,101.42006 L98.245,101.211105 C97.885,100.524538 97.435,99.8379709 96.685,99.5991649 L96.445,99.5096127 C95.875,99.2708067 95.305,99.1812545 94.705,99.0917022 L93.535,99.0917022 C93.175,99.0917022 92.815,99.0917022 92.455,99.1812545 C91.765,99.3603589 91.165,99.6887171 90.655,100.19618 C90.385,100.464837 90.205,100.733493 90.055,101.00215 C89.845,101.360359 89.785,101.778269 89.695,102.166329 C89.455,103.091702 89.305,103.987225 89.215,104.912598 C89.125,105.867822 89.095,106.823046 89.005,107.80812 C88.975,108.136478 88.945,108.494687 88.945,108.823046 L89.335,108.823046 C89.665,108.793195 90.025,108.793195 90.385,108.823046 C90.475,108.823046 90.505,108.852896 90.595,108.852896 C91.435,108.942448 92.305,108.912598 93.145,108.942448 L93.415,108.942448 C93.805,108.942448 94.165,108.942448 94.555,108.972299 L96.835,109.061851 L99.085,109.061851 C99.085,108.375284 99.085,107.658866 99.055,106.972299 C99.055,106.703643 99.025,106.405135 98.995,106.136478 L98.995,106.136478 Z M95.785,107.211105 C95.155,107.181254 94.525,107.211105 93.835,107.211105 C92.875,107.211105 91.885,107.181254 90.925,107.181254 C90.955,106.315583 90.955,105.479762 91.045,104.61409 C91.045,104.315583 91.075,103.987225 91.135,103.658866 C91.135,103.569314 91.165,103.479762 91.165,103.39021 C91.195,103.032001 91.285,102.703643 91.375,102.405135 C91.435,102.255881 91.525,102.136478 91.615,101.987225 C91.645,101.927523 91.675,101.837971 91.765,101.718568 L91.975,101.509613 C92.215,101.240956 92.485,101.061851 92.815,100.972299 L93.115,100.882747 C93.985,100.793195 94.945,100.852896 95.755,101.240956 L95.935,101.360359 L96.115,101.509613 C96.205,101.629016 96.295,101.718568 96.385,101.867822 C96.775,102.345434 96.865,102.912598 96.955,103.509613 C97.075,103.748419 97.105,104.106628 97.105,104.345434 L97.165,104.673792 C97.135,105.181254 97.135,105.688717 97.165,106.226031 C97.165,106.315583 97.195,106.434986 97.195,106.524538 C97.195,106.793195 97.225,107.032001 97.225,107.300657 C96.745,107.270807 96.265,107.211105 95.785,107.211105 L95.785,107.211105 Z M117.295,99.3603589 C117.295,99.240956 117.295,99.1514037 117.325,99.0917022 C117.235,98.4648365 117.565,97.7185679 117.025,97.3603589 C116.425,97.0320007 115.645,97.2708067 114.955,97.240956 L114.145,97.240956 L113.785,97.240956 C113.185,97.240956 112.555,97.3305082 111.955,97.240956 L111.625,97.240956 C111.295,97.2111052 110.995,97.2111052 110.695,97.240956 C110.545,97.240956 110.425,97.240956 110.335,97.2111052 L109.855,97.2111052 L109.615,97.2111052 C109.165,97.240956 108.835,97.240956 108.385,97.240956 L108.145,97.240956 C107.935,97.2708067 107.785,97.2708067 107.575,97.2708067 L106.975,97.2708067 C106.285,97.240956 105.595,97.1812545 104.875,97.2708067 C104.665,97.2111052 104.485,97.2111052 104.335,97.2708067 C104.125,97.3603589 103.975,97.5693142 103.945,97.9573739 C103.915,98.0170754 103.915,98.1066276 103.945,98.1961798 C103.975,99.0618515 103.885,99.8976724 103.975,100.763344 L104.065,101.032001 C104.095,101.091702 104.125,101.181254 104.215,101.300657 L104.455,101.42006 L104.665,101.42006 C104.875,101.42006 105.085,101.39021 105.295,101.39021 L105.505,101.39021 C106.255,101.42006 106.705,101.42006 107.455,101.42006 C107.515,101.39021 107.605,101.39021 107.755,101.39021 L108.265,101.39021 C108.325,101.42006 108.385,101.42006 108.475,101.42006 L108.565,101.42006 C108.685,101.778269 108.655,102.166329 108.655,102.554389 L108.655,102.882747 C108.565,103.509613 108.565,104.166329 108.595,104.793195 L108.595,107.091702 C108.625,107.330508 108.625,107.569314 108.595,107.80812 C108.595,107.927523 108.595,108.017075 108.625,108.106628 L108.625,108.405135 C108.625,109.211105 108.535,110.046926 108.625,110.852896 L108.625,111.151404 C108.595,111.658866 108.385,112.136478 108.475,112.643941 L108.475,113.151404 C108.475,114.076777 108.445,114.972299 108.535,115.897672 L108.535,116.166329 C108.535,116.882747 108.295,117.837971 108.925,118.226031 L109.105,118.285732 L109.315,118.285732 C109.375,118.315583 109.465,118.315583 109.585,118.315583 C109.735,118.345434 109.915,118.345434 110.065,118.345434 C110.215,118.345434 110.305,118.345434 110.395,118.315583 L110.635,118.315583 C110.995,118.315583 111.325,118.285732 111.685,118.285732 C111.775,118.285732 111.865,118.255881 111.955,118.255881 C112.285,118.166329 112.585,118.046926 112.735,117.658866 C112.735,117.569314 112.765,117.479762 112.765,117.360359 C112.795,117.181254 112.765,116.972299 112.705,116.733493 L112.705,115.658866 C112.705,114.823046 112.735,113.957374 112.705,113.211105 L112.705,113.00215 C112.795,111.927523 112.765,110.852896 112.795,109.778269 L112.795,109.449911 C112.825,108.882747 112.855,108.405135 112.825,107.837971 L112.825,106.464837 C112.825,105.867822 112.795,103.957374 112.795,101.987225 L112.795,101.80812 C112.795,101.658866 112.855,101.539463 112.825,101.39021 C113.185,101.42006 113.425,101.42006 113.755,101.42006 C113.845,101.42006 113.935,101.42006 113.965,101.39021 L114.925,101.39021 L115.135,101.39021 C115.345,101.39021 115.555,101.39021 115.765,101.42006 L116.005,101.42006 C116.575,101.509613 117.055,101.449911 117.265,100.882747 C117.295,100.793195 117.325,100.733493 117.325,100.673792 C117.415,100.226031 117.295,99.8081201 117.295,99.3603589 L117.295,99.3603589 Z M116.065,99.4200604 C115.975,99.5096127 115.915,99.5394634 115.855,99.5096127 C114.925,99.4797619 113.995,99.5394634 113.065,99.5394634 L112.825,99.5394634 L111.655,99.5394634 L111.415,99.5394634 L111.145,99.5394634 L110.935,99.5394634 L110.935,99.7782694 L110.935,101.300657 L110.935,102.226031 C110.845,102.942448 110.815,103.688717 110.905,104.405135 C110.935,104.61409 110.935,104.793195 110.935,105.00215 L110.935,111.121553 C110.905,111.599165 110.905,112.106628 110.905,112.58424 L110.905,112.882747 C111.055,113.748419 110.785,114.58424 110.875,115.449911 C110.875,115.569314 110.875,115.658866 110.905,115.688717 C110.905,115.897672 110.905,116.046926 110.935,116.19618 L110.935,116.852896 C110.935,117.032001 110.845,117.121553 110.635,117.121553 C110.545,117.121553 110.455,117.091702 110.425,117.061851 C110.335,116.823046 110.335,116.554389 110.305,116.315583 L110.305,115.270807 C110.395,114.643941 110.305,114.046926 110.335,113.42006 L110.335,112.106628 C110.365,112.076777 110.365,111.987225 110.365,111.897672 L110.365,111.658866 C110.365,111.270807 110.365,110.912598 110.335,110.524538 C110.335,110.405135 110.335,110.315583 110.365,110.226031 C110.395,109.360359 110.425,108.524538 110.335,107.599165 L110.335,107.360359 C110.395,106.494687 110.395,105.599165 110.335,104.733493 L110.335,104.345434 C110.305,103.658866 110.245,103.091702 110.335,102.405135 L110.335,101.629016 C110.425,100.882747 110.395,100.494687 110.365,99.8678216 C110.335,99.8081201 110.335,99.7185679 110.335,99.5693142 C110.125,99.5394634 109.975,99.5394634 109.825,99.5394634 L109.555,99.5394634 L107.995,99.5394634 L107.725,99.5394634 L107.155,99.5394634 L106.555,99.5394634 L105.745,99.5394634 L105.445,99.5394634 C105.235,99.5394634 105.145,99.4499112 105.145,99.240956 C105.385,98.5842395 106.435,99.121553 107.005,98.9722992 C107.215,99.00215 107.425,99.00215 107.635,99.00215 C107.875,99.0320007 108.085,99.0320007 108.295,99.0320007 L108.565,99.0320007 C109.045,99.0320007 109.495,99.00215 109.975,98.9722992 C110.035,98.9424485 110.125,98.9424485 110.275,98.9424485 L110.575,98.9424485 L110.845,98.9424485 C110.905,98.9722992 110.995,98.9722992 111.115,98.9722992 C111.745,99.00215 112.375,99.00215 112.975,98.9722992 L113.245,98.9722992 C113.995,98.9424485 114.775,98.9125977 115.525,98.9125977 C115.585,98.9424485 115.675,98.9424485 115.765,98.9424485 L116.005,99.00215 C116.125,99.0320007 116.155,99.2708067 116.065,99.4200604 L116.065,99.4200604 Z M124.285,112.912598 L124.285,108.912598 C124.285,108.046926 124.405,107.151404 124.315,106.285732 C124.315,106.19618 124.345,106.106628 124.345,105.987225 C124.345,105.599165 124.375,105.240956 124.405,104.793195 L124.405,102.166329 C124.405,102.017075 124.375,101.061851 124.375,100.017075 L124.375,99.7782694 C124.405,99.5693142 124.405,99.3902097 124.405,99.1812545 L124.405,98.8528963 C124.405,98.7334933 124.405,98.643941 124.375,98.6140903 C124.465,98.2558813 124.405,97.8379709 124.255,97.5693142 C124.225,97.4797619 124.195,97.4200604 124.105,97.3902097 C124.075,97.3603589 124.015,97.3006574 123.925,97.2708067 C122.995,97.121553 122.185,97.1812545 121.255,97.2111052 C121.165,97.2111052 121.075,97.240956 120.985,97.240956 C120.655,97.3305082 120.355,97.4499112 120.205,97.8379709 C120.205,97.9275231 120.175,98.0170754 120.175,98.1364783 C120.145,98.3155828 120.175,98.524538 120.235,98.763344 L120.235,99.1812545 L120.235,99.6290157 L120.235,99.8379709 L120.235,104.375284 C120.205,104.405135 120.205,104.434986 120.205,104.494687 L120.205,104.793195 C120.205,104.882747 120.175,104.972299 120.175,105.061851 C120.145,105.927523 120.085,106.793195 120.115,107.658866 L120.115,107.927523 L120.115,108.763344 L120.115,109.032001 C120.115,109.897672 120.145,113.688717 120.145,116.19618 L120.145,116.405135 C120.145,117.00215 119.905,117.80812 120.235,118.076777 C120.325,118.166329 120.355,118.136478 120.445,118.226031 C120.775,118.345434 121.165,118.375284 121.585,118.345434 L121.885,118.345434 C122.725,118.166329 123.775,118.763344 124.165,118.046926 C124.405,117.539463 124.135,116.852896 124.225,116.166329 L124.225,115.897672 C124.225,115.688717 124.255,115.539463 124.285,115.330508 L124.285,115.121553 L124.285,112.912598 Z M122.455,111.061851 C122.425,111.539463 122.425,112.046926 122.425,112.524538 L122.425,112.823046 C122.575,113.688717 122.305,114.524538 122.395,115.39021 C122.395,115.509613 122.395,115.599165 122.425,115.629016 C122.425,115.837971 122.425,115.987225 122.455,116.136478 L122.455,116.793195 C122.455,116.972299 122.365,117.061851 122.155,117.061851 C122.065,117.061851 121.975,117.032001 121.945,117.00215 C121.855,116.763344 121.855,116.494687 121.825,116.255881 L121.825,115.211105 C121.915,114.58424 121.825,113.987225 121.855,113.360359 L121.855,112.046926 C121.885,112.017075 121.885,111.927523 121.885,111.837971 L121.885,111.599165 C121.885,111.211105 121.885,110.852896 121.855,110.464837 C121.855,110.345434 121.855,110.255881 121.885,110.166329 C121.915,109.300657 121.945,108.464837 121.855,107.539463 L121.855,107.300657 C121.915,106.434986 121.915,105.539463 121.855,104.673792 L121.855,104.285732 C121.825,103.599165 121.765,103.032001 121.855,102.345434 L121.855,101.569314 C121.945,100.703643 121.945,99.8379709 121.855,99.00215 L121.855,98.7931948 C121.855,98.4051351 122.455,98.4051351 122.455,98.7931948 L122.455,99.2111052 C122.485,99.8678216 122.485,100.554389 122.455,101.240956 L122.455,102.166329 C122.365,102.882747 122.335,103.629016 122.425,104.345434 C122.455,104.554389 122.455,104.733493 122.455,104.942448 L122.455,107.39021 L122.455,111.061851 Z M143.575,97.1514037 C143.065,97.0618515 142.525,97.1812545 141.955,97.2111052 L141.685,97.2111052 C141.415,97.2111052 141.115,97.240956 140.845,97.2708067 C140.755,97.2708067 140.695,97.3006574 140.605,97.3305082 C140.335,97.4797619 140.095,97.7484186 139.915,98.1364783 L139.825,98.4051351 C139.735,98.643941 139.705,98.9125977 139.615,99.1812545 L139.525,99.4499112 C139.195,100.255881 138.925,101.061851 138.715,101.80812 L138.655,102.076777 C138.325,103.00215 138.145,103.867822 137.815,104.793195 L137.755,105.00215 C137.665,105.211105 137.665,105.39021 137.575,105.599165 L137.485,105.927523 C137.245,106.763344 137.005,107.509613 136.675,108.226031 L136.615,108.464837 C136.255,109.270807 136.075,110.076777 135.745,110.882747 L135.655,111.151404 C135.565,111.300657 135.565,111.449911 135.535,111.658866 L135.295,110.58424 C135.295,110.554389 135.265,110.464837 135.235,110.345434 C135.235,110.255881 135.205,110.166329 135.175,110.046926 C135.175,109.987225 135.145,109.927523 135.115,109.837971 C135.025,109.449911 134.875,109.091702 134.755,108.733493 L134.665,108.464837 C134.545,108.255881 134.455,107.987225 134.395,107.718568 C134.395,107.658866 134.365,107.569314 134.335,107.449911 C134.095,106.61409 133.795,105.80812 133.585,104.972299 C133.585,104.882747 133.555,104.763344 133.555,104.673792 L133.495,104.434986 C133.405,104.226031 133.405,104.106628 133.315,103.957374 C133.315,103.867822 133.285,103.748419 133.225,103.658866 C133.195,103.539463 133.165,103.449911 133.135,103.42006 L133.045,103.151404 C133.015,103.032001 132.985,102.942448 132.985,102.882747 L132.865,102.554389 L132.475,101.42006 L132.385,101.121553 C132.115,100.405135 132.055,99.6290157 131.725,98.9125977 C131.695,98.7931948 131.665,98.7036425 131.665,98.643941 C131.635,98.524538 131.605,98.4349858 131.605,98.3752843 L131.515,98.0767768 C131.485,97.9573739 131.425,97.8678216 131.395,97.7782694 C131.305,97.5991649 131.185,97.4499112 130.975,97.3603589 C130.915,97.3305082 130.825,97.2708067 130.705,97.240956 C129.835,97.0917022 128.965,97.0917022 128.035,97.1812545 C127.945,97.1812545 127.915,97.2111052 127.825,97.2111052 L127.435,97.3006574 C127.375,97.3305082 127.315,97.3603589 127.225,97.4499112 C127.075,97.6588664 127.105,97.9872246 127.135,98.2260306 C127.165,98.3454336 127.195,98.4349858 127.195,98.4946873 L127.285,98.7036425 L127.375,98.9125977 C127.435,99.3006574 127.555,99.6290157 127.705,99.9573739 C127.795,100.315583 127.885,100.673792 128.005,101.032001 L128.095,101.270807 L128.545,102.793195 L128.635,103.091702 C128.845,103.539463 128.935,103.987225 129.085,104.464837 C129.085,104.524538 129.115,104.61409 129.145,104.733493 C129.355,105.300657 129.475,105.748419 129.685,106.315583 C129.715,106.405135 129.715,106.524538 129.805,106.61409 C129.895,106.942448 129.985,107.181254 130.075,107.449911 L130.165,107.748419 C130.315,108.136478 130.435,108.524538 130.525,108.912598 L130.615,109.181254 L130.975,110.076777 L131.065,110.375284 C131.275,110.852896 131.365,111.330508 131.515,111.837971 L131.605,112.106628 C131.725,112.58424 131.875,113.091702 132.025,113.569314 C132.055,113.688717 132.115,113.778269 132.145,113.837971 C132.475,114.554389 132.625,115.330508 132.865,116.076777 L132.955,116.345434 C133.045,116.554389 133.075,116.703643 133.105,116.912598 L133.195,117.151404 C133.345,117.658866 133.615,118.136478 134.125,118.255881 C134.335,118.255881 134.485,118.255881 134.695,118.285732 C135.265,118.315583 135.775,118.375284 136.345,118.345434 L136.615,118.345434 C136.735,118.345434 136.825,118.345434 136.885,118.315583 C136.975,118.315583 137.065,118.285732 137.185,118.255881 C137.335,118.106628 137.455,117.957374 137.575,117.778269 C137.695,117.629016 137.785,117.449911 137.875,117.240956 C137.965,117.032001 137.965,116.882747 138.055,116.733493 L138.505,115.569314 L138.595,115.300657 C138.955,114.345434 139.255,113.39021 139.615,112.434986 C139.645,112.315583 139.705,112.226031 139.735,112.136478 C139.825,111.867822 139.945,111.599165 140.035,111.270807 L140.125,111.00215 C140.245,110.643941 140.365,110.315583 140.455,109.957374 L140.545,109.688717 L140.635,109.42006 C140.665,109.330508 140.725,109.240956 140.755,109.121553 L140.845,108.852896 L140.935,108.58424 C141.085,108.106628 141.235,107.658866 141.445,107.211105 L141.535,106.912598 C141.655,106.524538 141.775,106.136478 141.865,105.748419 L141.925,105.479762 C142.045,105.032001 142.165,104.643941 142.315,104.19618 L142.405,103.927523 C142.585,103.479762 142.735,103.032001 142.855,102.58424 L142.915,102.315583 C143.005,101.867822 143.125,101.479762 143.335,101.091702 L143.425,100.763344 C143.545,100.405135 143.695,100.046926 143.815,99.5991649 C143.905,99.4499112 143.875,99.3305082 143.965,99.1812545 C143.965,99.0917022 143.995,99.0320007 144.025,98.9424485 L144.115,98.6737918 C144.325,98.1961798 144.445,97.4200604 143.815,97.2111052 L143.575,97.1514037 Z M142.135,99.0320007 C141.805,99.8379709 141.565,100.61409 141.355,101.479762 L141.115,102.19618 C140.965,102.882747 140.725,103.449911 140.485,104.046926 L140.365,104.434986 C140.035,105.240956 139.765,106.076777 139.555,106.912598 L139.495,107.151404 C139.165,107.957374 138.895,108.763344 138.655,109.629016 L138.565,109.927523 L138.205,111.00215 C137.335,113.688717 137.275,113.837971 136.885,115.121553 L136.795,115.39021 L136.705,115.629016 C136.615,116.136478 136.465,116.733493 135.955,116.823046 C135.865,116.852896 135.745,116.852896 135.625,116.793195 C135.385,116.793195 135.115,116.852896 134.905,116.703643 L134.815,116.524538 C134.725,116.315583 134.725,116.136478 134.635,115.927523 C134.515,115.599165 134.395,115.270807 133.885,113.718568 C133.915,113.688717 133.885,113.599165 133.855,113.509613 L132.985,110.852896 L132.625,109.778269 L132.535,109.479762 C132.295,108.61409 132.025,107.80812 131.695,107.00215 L131.635,106.763344 C131.425,105.927523 131.155,105.091702 130.825,104.285732 L130.705,103.897672 C130.465,103.300657 130.225,102.733493 130.075,102.046926 L129.835,101.330508 C129.625,100.464837 129.385,99.6887171 129.055,98.882747 L128.995,98.6737918 C128.875,98.3155828 129.445,98.1364783 129.565,98.4946873 L129.685,98.882747 C129.925,99.4797619 130.135,100.136478 130.315,100.823046 L130.615,101.688717 C130.735,102.405135 130.975,103.091702 131.245,103.778269 C131.335,103.987225 131.425,104.136478 131.455,104.345434 L132.235,106.673792 L133.375,110.166329 C133.945,112.285732 134.695,114.166329 135.265,116.19618 L135.475,116.19618 L135.685,116.19618 C135.925,116.255881 136.075,116.166329 136.105,115.897672 C136.315,115.300657 136.375,115.032001 136.615,114.166329 C136.705,113.688717 137.665,110.763344 137.815,110.315583 L138.955,106.823046 L139.735,104.494687 C139.765,104.285732 139.855,104.136478 139.945,103.927523 C140.215,103.240956 140.455,102.554389 140.575,101.837971 L140.875,100.972299 C141.055,100.285732 141.265,99.6290157 141.505,99.0320007 L141.625,98.643941 C141.745,98.2857321 142.315,98.4648365 142.195,98.8230455 L142.135,99.0320007 Z M159.715,114.61409 C159.685,114.464837 159.565,114.315583 159.385,114.226031 C158.875,113.987225 158.185,114.255881 157.495,114.166329 L157.225,114.166329 C157.015,114.166329 156.865,114.136478 156.655,114.106628 L151.225,114.106628 L151.225,112.315583 C151.225,111.39021 151.255,110.554389 151.225,109.629016 L151.225,109.360359 C152.605,109.360359 155.095,109.330508 157.165,109.330508 L157.525,109.330508 C158.245,109.240956 159.625,109.658866 159.475,108.464837 L159.475,108.166329 C159.475,107.957374 159.475,107.778269 159.505,107.569314 L159.505,107.240956 L159.595,106.255881 L159.595,106.046926 C159.625,105.778269 159.535,105.539463 159.325,105.39021 C158.875,105.121553 158.365,105.360359 157.855,105.270807 L157.225,105.270807 C157.015,105.270807 156.865,105.240956 156.655,105.211105 L151.315,105.211105 C151.315,105.091702 151.315,104.942448 151.345,104.793195 L151.345,102.166329 C151.345,102.076777 151.315,101.778269 151.315,101.39021 C152.845,101.39021 155.455,101.360359 157.525,101.360359 L157.735,101.360359 C158.335,101.360359 159.145,101.599165 159.415,101.270807 L159.565,101.061851 C159.595,100.912598 159.655,100.733493 159.685,100.494687 L159.685,100.315583 C159.715,99.7484186 159.595,99.240956 159.715,98.6737918 C159.715,98.5543888 159.745,98.4349858 159.745,98.3454336 C159.775,97.8976724 159.745,97.5693142 159.385,97.3603589 C158.875,97.121553 158.185,97.3902097 157.495,97.3006574 L157.225,97.3006574 C157.015,97.3006574 156.865,97.2708067 156.655,97.240956 L150.685,97.240956 C149.845,97.121553 149.035,97.1812545 148.195,97.2111052 C148.105,97.2111052 148.015,97.240956 147.925,97.240956 C147.595,97.3305082 147.295,97.4499112 147.145,97.8379709 C147.145,97.9275231 147.115,98.0170754 147.115,98.1364783 C147.085,98.3155828 147.115,98.524538 147.175,98.763344 L147.175,99.8379709 C147.175,100.673792 147.145,101.539463 147.175,102.285732 L147.175,102.494687 C147.085,103.569314 147.115,104.643941 147.085,105.718568 L147.085,106.046926 C147.055,106.61409 147.025,107.091702 147.055,107.658866 L147.055,109.032001 C147.055,109.897672 147.085,113.688717 147.085,116.19618 L147.085,116.405135 C147.085,116.912598 146.935,117.539463 147.055,117.897672 C147.085,117.987225 147.145,118.046926 147.175,118.076777 C147.625,118.315583 148.045,118.315583 148.525,118.285732 L148.825,118.285732 C149.755,118.19618 150.655,118.285732 151.585,118.255881 L152.245,118.255881 C153.775,118.255881 155.845,118.226031 157.525,118.226031 L157.735,118.226031 C158.335,118.226031 159.145,118.464837 159.415,118.136478 L159.565,117.927523 L159.625,117.748419 C159.895,116.793195 159.685,115.837971 159.775,114.912598 L159.715,114.61409 Z M157.855,116.434986 C156.925,116.643941 156.085,116.494687 155.215,116.464837 C155.125,116.464837 155.035,116.434986 154.915,116.434986 C154.225,116.405135 153.565,116.405135 152.875,116.494687 L151.675,116.494687 C150.805,116.464837 149.935,116.58424 149.065,116.494687 C148.975,116.434986 148.915,116.345434 148.915,116.226031 L148.915,108.046926 C148.915,107.360359 148.855,106.703643 148.885,106.017075 L148.885,105.748419 C148.915,105.599165 148.915,105.449911 148.915,105.240956 L148.915,104.61409 C148.885,103.688717 148.855,102.852896 148.975,101.927523 L148.975,101.658866 C148.975,101.091702 148.945,100.643941 148.915,100.076777 L148.915,99.0618515 C148.915,98.8230455 149.125,98.7036425 149.335,98.7931948 L150.565,98.7931948 C151.375,98.7931948 152.185,98.7334933 152.995,98.763344 L153.895,98.763344 C153.985,98.763344 154.075,98.7931948 154.165,98.7931948 C155.095,98.763344 155.935,98.882747 156.865,98.7931948 L157.135,98.7931948 C157.405,98.763344 157.675,98.7334933 157.945,98.7334933 C158.335,98.7334933 158.335,99.3305082 157.945,99.3305082 C157.675,99.3305082 157.405,99.3603589 157.135,99.3902097 C156.985,99.3902097 156.895,99.3902097 156.835,99.4200604 C155.905,99.4499112 155.095,99.3006574 154.165,99.3902097 C154.105,99.3603589 154.015,99.3603589 153.895,99.3603589 L153.025,99.3603589 C152.155,99.3305082 151.255,99.3902097 150.385,99.3902097 L149.515,99.3902097 L149.515,100.405135 C149.545,100.972299 149.545,101.479762 149.545,101.987225 C149.515,102.046926 149.515,102.136478 149.515,102.255881 L149.515,107.061851 L150.655,107.061851 C151.525,107.091702 152.425,107.091702 153.295,107.091702 L155.485,107.091702 C156.175,107.121553 156.895,107.061851 157.585,107.061851 C157.675,107.061851 157.735,107.091702 157.795,107.151404 C157.915,107.300657 157.885,107.569314 157.735,107.599165 C156.925,107.80812 156.235,107.688717 155.485,107.688717 L153.295,107.688717 C152.425,107.688717 151.525,107.629016 150.655,107.658866 L149.515,107.658866 L149.515,109.270807 C149.425,110.076777 149.575,110.882747 149.485,111.688717 L149.485,113.121553 C149.515,113.181254 149.515,113.270807 149.515,113.360359 L149.515,115.39021 C149.515,115.599165 149.485,115.837971 149.515,115.837971 C150.115,116.046926 150.745,115.897672 151.375,115.897672 L152.995,115.897672 C153.625,115.80812 154.225,115.837971 154.855,115.867822 L155.125,115.867822 C156.055,115.957374 156.865,115.80812 157.795,115.927523 C158.035,115.957374 158.095,116.345434 157.855,116.434986 L157.855,116.434986 Z M163.135,122.673792 C163.045,122.673792 162.985,122.643941 162.955,122.554389 C162.745,122.226031 163.015,121.987225 163.345,121.987225 C163.915,122.017075 164.395,122.19618 164.965,121.987225 C165.055,121.987225 165.145,121.957374 165.265,121.927523 C167.095,121.300657 167.185,119.151404 167.185,117.360359 C167.185,117.270807 167.215,117.181254 167.215,117.091702 C167.245,116.494687 167.245,115.897672 167.215,115.270807 C167.215,113.509613 167.185,111.80812 167.185,110.046926 C167.185,109.330508 167.125,108.643941 167.125,107.927523 C167.125,106.733493 167.185,105.539463 167.215,104.315583 C167.215,103.629016 167.245,103.032001 167.245,102.345434 C167.245,101.39021 167.245,100.434986 167.215,99.4797619 C167.215,98.5543888 167.215,97.6588664 167.185,96.7334933 C167.185,96.0469261 167.155,95.3902097 166.885,94.763344 C166.675,94.3155828 166.435,93.9872246 166.135,93.7484186 L165.925,93.5991649 C164.995,93.2111052 163.975,93.0917022 162.985,93.0917022 C162.895,93.0917022 162.835,93.0618515 162.775,93.00215 C162.745,92.9125977 162.685,92.882747 162.685,92.7931948 C162.685,92.5842395 162.775,92.4946873 162.985,92.4946873 C163.075,92.4648365 163.195,92.4648365 163.345,92.4648365 C164.275,92.6737918 165.295,92.5842395 166.165,93.0618515 C166.255,93.1514037 166.315,93.121553 166.405,93.2111052 C166.795,93.5096127 167.095,93.8976724 167.335,94.3454336 C167.695,95.0320007 167.785,95.7782694 167.785,96.4946873 C167.815,97.4797619 167.815,98.4349858 167.815,99.4200604 C167.845,100.345434 167.845,101.181254 167.845,102.106628 C167.845,103.867822 167.785,105.569314 167.785,107.360359 C167.785,109.151404 167.845,110.912598 167.845,112.733493 C167.755,113.718568 167.815,114.703643 167.815,115.688717 L167.815,117.151404 C167.665,119.151404 167.815,122.017075 165.055,122.58424 C164.965,122.58424 164.965,122.61409 164.875,122.61409 C164.305,122.733493 163.705,122.673792 163.135,122.673792 L163.135,122.673792 Z M165.385,109.061851 L165.385,111.778269 C165.385,112.285732 165.355,112.942448 165.355,113.509613 L165.355,113.837971 C165.385,114.405135 165.265,114.972299 165.355,115.539463 L165.355,117.360359 C165.265,118.166329 165.445,119.240956 165.055,119.987225 L164.905,120.166329 L164.695,120.345434 L164.365,120.494687 C164.245,120.554389 164.125,120.58424 164.005,120.58424 C163.645,120.673792 163.255,120.643941 162.895,120.673792 L162.625,120.673792 C162.295,120.733493 162.055,120.823046 161.845,120.972299 L161.665,121.181254 C161.455,121.897672 161.365,122.852896 161.725,123.599165 C161.785,123.688717 161.845,123.748419 161.935,123.80812 L162.175,123.987225 L162.445,124.106628 C163.375,124.226031 164.065,124.226031 164.935,124.136478 L165.235,124.136478 C166.315,124.046926 167.305,123.509613 168.115,122.823046 L168.325,122.58424 L168.685,122.136478 C168.745,122.076777 168.805,121.987225 168.835,121.897672 C168.865,121.80812 168.925,121.748419 168.955,121.718568 C169.225,120.882747 169.435,120.017075 169.525,119.151404 L169.525,116.226031 C169.525,115.539463 169.585,114.942448 169.585,114.255881 L169.585,113.360359 C169.555,112.852896 169.555,112.345434 169.555,111.778269 L169.585,111.778269 L169.585,109.867822 L169.585,107.061851 C169.585,105.539463 169.555,104.017075 169.555,103.061851 C169.555,102.494687 169.525,102.19618 169.525,102.106628 L169.525,98.5842395 L169.525,96.5543888 C169.555,95.8678216 169.435,95.2111052 169.285,94.5842395 L169.195,94.2857321 C169.105,94.0170754 168.985,93.7484186 168.835,93.5394634 C168.805,93.4499112 168.745,93.3902097 168.685,93.3006574 L168.325,92.8528963 L168.115,92.6140903 C167.305,91.9275231 166.315,91.3902097 165.235,91.3006574 L164.935,91.3006574 C164.365,91.2111052 163.915,91.2111052 163.345,91.240956 C163.255,91.240956 163.165,91.2708067 163.075,91.2708067 C162.325,91.1812545 161.605,91.6588664 161.515,92.4648365 C161.515,92.5842395 161.485,92.6737918 161.485,92.7931948 C161.455,93.1812545 161.455,93.5991649 161.605,93.9872246 C161.635,94.1066276 161.695,94.1961798 161.725,94.2260306 C161.875,94.4648365 162.085,94.6140903 162.355,94.6737918 C162.415,94.6737918 162.475,94.7036425 162.565,94.7334933 C162.955,94.7931948 163.285,94.8230455 163.555,94.7931948 C163.645,94.7931948 163.735,94.8230455 163.825,94.8230455 C164.035,94.8230455 164.155,94.8528963 164.365,94.9424485 L164.695,95.0917022 L164.905,95.2708067 L165.055,95.4499112 C165.445,96.1961798 165.265,97.2708067 165.355,98.0767768 L165.355,99.2111052 C165.445,100.076777 165.385,100.912598 165.385,101.778269 L165.445,104.673792 L165.385,106.255881 L165.385,109.061851 Z" id="(relative)-copy-2" fill="#5D6063"></path>
            </g>
        </g>
    </g>
</svg>