<?xml version="1.0" encoding="UTF-8" standalone="no"?>
<svg width="200px" height="200px" viewBox="0 0 200 200" version="1.1" xmlns="http://www.w3.org/2000/svg" xmlns:xlink="http://www.w3.org/1999/xlink">
    <!-- Generator: Sketch 3.7.1 (28215) - http://www.bohemiancoding.com/sketch -->
    <title>static</title>
    <desc>Created with Sketch.</desc>
    <defs></defs>
    <g id="Page-1" stroke="none" stroke-width="1" fill="none" fill-rule="evenodd">
        <g id="example-mockup" transform="translate(-197.000000, -137.000000)">
            <g id="static" transform="translate(197.000000, 137.000000)">
                <rect id="Rectangle-70-Copy-5" fill="#F5CF8E" x="0" y="0.162149031" width="200" height="199.004975"></rect>
                <path d="M50.065,106.255881 L50.005,104.673792 L50.065,101.778269 C50.065,100.912598 50.005,100.076777 50.095,99.2111052 L50.095,98.0767768 C50.185,97.2708067 50.005,96.1961798 50.395,95.4499112 L50.545,95.2708067 L50.755,95.0917022 L51.085,94.9424485 C51.295,94.8528963 51.415,94.8230455 51.625,94.8230455 C51.715,94.8230455 51.805,94.7931948 51.895,94.7931948 C52.165,94.8230455 52.495,94.7931948 52.885,94.7334933 C52.975,94.7036425 53.035,94.6737918 53.095,94.6737918 C53.365,94.6140903 53.575,94.4648365 53.725,94.2260306 C53.755,94.1961798 53.815,94.1066276 53.845,93.9872246 C53.995,93.5991649 53.995,93.1812545 53.965,92.7931948 C53.965,92.6737918 53.935,92.5842395 53.935,92.4648365 C53.845,91.6588664 53.125,91.1812545 52.375,91.2708067 C52.285,91.2708067 52.195,91.240956 52.105,91.240956 C51.535,91.2111052 51.085,91.2111052 50.515,91.3006574 L50.215,91.3006574 C49.135,91.3902097 48.145,91.9275231 47.335,92.6140903 L47.125,92.8528963 L46.765,93.3006574 C46.675,93.3902097 46.645,93.4499112 46.615,93.5394634 C46.465,93.7484186 46.345,94.0170754 46.255,94.2857321 L46.165,94.5842395 C46.015,95.2111052 45.895,95.8678216 45.925,96.5543888 L45.925,98.5842395 L45.925,102.106628 C45.925,102.19618 45.895,102.494687 45.895,103.061851 C45.895,104.017075 45.865,105.539463 45.865,107.061851 L45.865,109.867822 L45.865,111.778269 L45.895,111.778269 C45.895,112.345434 45.895,112.852896 45.865,113.360359 L45.865,114.255881 C45.865,114.942448 45.925,115.539463 45.925,116.226031 L45.925,119.151404 C46.015,120.017075 46.225,120.882747 46.495,121.718568 C46.525,121.748419 46.585,121.80812 46.615,121.897672 C46.645,121.987225 46.675,122.076777 46.765,122.136478 L47.125,122.58424 L47.335,122.823046 C48.145,123.509613 49.135,124.046926 50.215,124.136478 L50.515,124.136478 C51.385,124.226031 52.075,124.226031 53.005,124.106628 L53.275,123.987225 L53.515,123.80812 C53.605,123.748419 53.665,123.688717 53.725,123.599165 C54.085,122.852896 53.995,121.897672 53.785,121.181254 L53.605,120.972299 C53.395,120.823046 53.155,120.733493 52.825,120.673792 L52.555,120.673792 C52.195,120.643941 51.805,120.673792 51.445,120.58424 C51.325,120.58424 51.205,120.554389 51.085,120.494687 L50.755,120.345434 L50.545,120.166329 L50.395,119.987225 C50.005,119.240956 50.185,118.166329 50.095,117.360359 L50.095,115.539463 C50.185,114.972299 50.065,114.405135 50.095,113.837971 L50.095,113.509613 C50.095,112.942448 50.065,112.285732 50.065,111.778269 L50.065,109.061851 L50.065,106.255881 Z M52.315,122.673792 C51.745,122.673792 51.145,122.733493 50.575,122.61409 C50.485,122.61409 50.485,122.58424 50.395,122.58424 C47.695,122.046926 47.725,119.151404 47.635,117.151404 L47.635,115.688717 C47.635,114.703643 47.695,113.718568 47.605,112.733493 C47.605,110.912598 47.665,109.151404 47.665,107.360359 C47.665,105.569314 47.605,103.867822 47.605,102.106628 C47.605,101.181254 47.605,100.345434 47.635,99.4200604 C47.635,98.4349858 47.635,97.4797619 47.665,96.4946873 C47.665,95.7782694 47.755,95.0320007 48.115,94.3454336 C48.325,93.8976724 48.655,93.5096127 49.045,93.2111052 C49.135,93.121553 49.195,93.1514037 49.285,93.0618515 C50.155,92.5842395 51.175,92.6737918 52.105,92.4648365 C52.255,92.4648365 52.375,92.4648365 52.465,92.4946873 C52.675,92.4946873 52.765,92.5842395 52.765,92.7931948 C52.765,92.882747 52.705,92.9125977 52.675,93.00215 C52.615,93.0618515 52.555,93.0917022 52.465,93.0917022 C51.475,93.0917022 50.455,93.2111052 49.525,93.5991649 L49.315,93.7484186 C49.015,93.9872246 48.775,94.3155828 48.565,94.763344 C48.295,95.3902097 48.265,96.0469261 48.265,96.7334933 C48.235,97.6588664 48.235,98.5543888 48.235,99.4797619 C48.205,100.434986 48.205,101.39021 48.205,102.345434 C48.205,103.032001 48.235,103.629016 48.235,104.315583 C48.265,105.539463 48.325,106.733493 48.325,107.927523 C48.325,108.643941 48.265,109.330508 48.265,110.046926 C48.265,111.80812 48.235,113.509613 48.235,115.270807 C48.205,115.897672 48.205,116.494687 48.235,117.091702 C48.235,117.181254 48.265,117.270807 48.265,117.360359 C48.265,119.151404 48.355,121.300657 50.185,121.927523 C50.305,121.957374 50.395,121.987225 50.485,121.987225 C51.055,122.19618 51.535,122.017075 52.105,121.987225 C52.435,121.987225 52.705,122.226031 52.495,122.554389 C52.465,122.643941 52.405,122.673792 52.315,122.673792 L52.315,122.673792 Z M60.505,102.166329 C60.535,102.106628 60.565,102.017075 60.655,101.897672 L60.865,101.688717 C61.105,101.42006 61.375,101.240956 61.705,101.151404 L62.005,101.061851 C62.875,100.972299 63.835,101.032001 64.645,101.42006 L64.825,101.539463 L65.005,101.688717 C65.095,101.80812 65.185,101.897672 65.275,102.046926 C65.485,102.315583 65.605,102.554389 65.695,102.823046 L65.755,103.091702 C65.785,103.300657 65.815,103.509613 65.905,103.718568 C65.965,103.927523 66.055,104.076777 66.205,104.226031 C67.015,104.494687 67.945,104.315583 68.785,104.405135 C68.905,104.405135 68.995,104.405135 69.055,104.434986 C69.655,104.434986 70.195,104.046926 70.225,103.42006 C70.225,103.270807 70.225,103.181254 70.195,103.121553 L70.075,102.19618 L70.015,101.957374 C69.925,101.509613 69.835,101.121553 69.595,100.733493 C69.505,100.524538 69.385,100.315583 69.295,100.166329 C69.145,99.8081201 68.905,99.4499112 68.605,99.0917022 L68.395,98.882747 C68.065,98.5543888 67.705,98.2558813 67.345,98.0170754 L67.105,97.8379709 C66.265,97.3305082 65.305,97.1812545 64.375,96.9722992 L63.925,96.9722992 C62.575,97.0618515 61.195,96.882747 59.905,97.3603589 L59.515,97.5096127 C58.825,97.8379709 58.195,98.1364783 57.715,98.7036425 L57.475,98.9722992 C57.265,99.240956 57.055,99.5096127 56.905,99.8379709 C56.725,100.136478 56.575,100.434986 56.485,100.703643 L56.335,101.181254 C56.125,101.658866 56.005,102.106628 55.975,102.673792 C55.975,102.763344 55.945,102.852896 55.945,102.972299 C56.035,103.897672 55.945,104.852896 56.395,105.718568 C56.425,105.778269 56.455,105.867822 56.545,105.987225 C56.665,106.19618 56.785,106.345434 56.935,106.494687 L57.145,106.703643 C57.595,107.211105 58.105,107.658866 58.735,108.046926 L58.915,108.136478 L59.125,108.226031 C59.995,108.793195 60.985,109.061851 61.915,109.449911 L62.215,109.539463 C63.145,109.778269 64.015,110.166329 64.825,110.643941 C64.915,110.673792 64.975,110.703643 65.065,110.793195 C65.215,110.882747 65.335,111.032001 65.455,111.181254 C65.485,111.270807 65.545,111.330508 65.575,111.360359 L65.665,111.629016 L65.725,111.867822 L65.725,112.166329 C65.695,112.882747 65.455,113.539463 64.885,114.017075 L64.675,114.166329 C64.525,114.255881 64.375,114.345434 64.225,114.375284 L63.925,114.464837 C63.055,114.554389 62.095,114.494687 61.285,114.106628 L61.105,113.987225 L60.925,113.837971 C60.835,113.718568 60.745,113.629016 60.655,113.479762 C60.385,113.151404 60.265,112.793195 60.175,112.434986 L60.115,112.136478 C60.115,112.046926 60.085,112.017075 60.085,111.927523 C60.085,111.718568 60.055,111.509613 59.965,111.360359 L59.845,111.151404 L59.665,110.972299 C59.575,110.942448 59.485,110.882747 59.365,110.852896 C59.035,110.763344 58.675,110.733493 58.285,110.733493 C58.165,110.733493 58.075,110.733493 58.015,110.703643 C57.535,110.793195 56.965,110.703643 56.455,110.793195 C56.365,110.793195 56.275,110.823046 56.155,110.882747 C55.555,111.091702 55.615,111.778269 55.735,112.285732 L55.735,112.464837 L55.735,112.494687 C55.735,112.554389 55.735,112.58424 55.765,112.61409 C55.885,113.360359 55.975,114.076777 56.335,114.763344 L56.425,115.00215 L56.545,115.240956 C56.635,115.330508 56.605,115.39021 56.695,115.479762 C56.905,115.837971 57.115,116.166329 57.325,116.434986 L57.535,116.643941 C57.865,116.972299 58.225,117.270807 58.585,117.509613 L58.825,117.688717 C59.665,118.19618 60.625,118.345434 61.555,118.554389 L62.005,118.554389 C63.355,118.464837 64.735,118.643941 66.025,118.166329 L66.415,118.017075 C67.105,117.688717 67.735,117.39021 68.215,116.823046 L68.455,116.554389 C68.665,116.285732 68.875,116.017075 69.025,115.688717 L69.145,115.479762 L69.235,115.270807 C69.625,114.464837 69.865,113.599165 70.015,112.733493 C70.015,112.61409 70.045,112.524538 70.045,112.405135 C70.045,112.076777 70.015,111.748419 69.925,111.449911 C69.925,111.330508 69.925,111.240956 69.895,111.151404 C69.835,110.166329 69.475,109.330508 68.845,108.61409 L68.695,108.434986 L68.215,107.897672 L67.945,107.658866 C67.375,107.211105 66.745,107.00215 66.115,106.763344 C66.055,106.733493 65.965,106.673792 65.845,106.643941 C64.885,106.255881 63.865,106.017075 62.935,105.569314 C62.815,105.539463 62.725,105.509613 62.695,105.509613 C61.975,105.270807 61.285,104.972299 60.715,104.464837 L60.505,104.226031 C60.055,103.748419 60.055,102.942448 60.385,102.375284 C60.415,102.285732 60.445,102.226031 60.505,102.166329 L60.505,102.166329 Z M60.025,99.6887171 C59.695,99.8976724 59.365,100.166329 59.095,100.494687 L58.945,100.673792 C58.345,101.539463 58.195,102.554389 58.405,103.599165 L58.465,103.867822 C58.585,104.58424 59.065,105.181254 59.695,105.629016 L59.935,105.80812 C60.325,106.106628 60.745,106.345434 61.195,106.524538 L61.465,106.643941 C61.705,106.733493 61.945,106.852896 62.215,107.00215 L62.425,107.091702 L62.635,107.181254 L62.815,107.240956 C63.685,107.629016 64.585,107.957374 65.455,108.345434 L65.725,108.494687 C66.055,108.61409 66.295,108.793195 66.535,108.942448 L66.775,109.121553 C67.375,109.629016 67.735,110.345434 68.065,111.061851 L68.125,111.300657 C68.215,111.509613 68.185,111.629016 68.185,111.837971 L68.185,112.076777 C68.185,112.434986 68.155,112.793195 68.065,113.121553 L67.945,113.539463 L67.885,113.718568 C67.855,113.837971 67.795,113.927523 67.765,114.017075 L67.645,114.285732 C67.345,114.912598 66.925,115.42006 66.385,115.80812 L66.115,115.987225 C65.785,116.19618 65.425,116.375284 65.095,116.524538 L64.825,116.643941 C63.835,116.972299 62.785,116.882747 61.735,116.852896 L61.435,116.793195 C60.505,116.58424 59.695,116.315583 59.005,115.629016 L58.795,115.42006 L58.585,115.211105 C57.895,114.405135 57.565,113.449911 57.535,112.405135 L57.475,112.19618 C57.355,111.837971 57.925,111.688717 58.045,112.046926 C58.075,112.136478 58.105,112.19618 58.105,112.255881 C58.105,112.345434 58.135,112.375284 58.135,112.464837 C58.165,113.39021 58.495,114.19618 59.125,114.912598 L59.335,115.091702 C59.905,115.688717 60.655,116.046926 61.465,116.255881 C61.555,116.255881 61.645,116.285732 61.765,116.285732 C62.815,116.524538 63.925,116.375284 64.915,116.017075 L65.125,115.927523 L65.725,115.539463 C65.815,115.509613 65.875,115.449911 65.905,115.42006 L66.055,115.300657 L66.295,115.091702 C66.685,114.703643 67.015,114.255881 67.225,113.748419 C67.255,113.658866 67.315,113.569314 67.345,113.449911 L67.405,113.270807 C67.495,113.00215 67.525,112.733493 67.555,112.494687 C67.555,112.345434 67.555,112.255881 67.585,112.166329 L67.585,111.867822 C67.465,110.942448 67.015,110.106628 66.325,109.539463 C66.235,109.449911 66.175,109.42006 66.085,109.39021 C65.935,109.270807 65.785,109.181254 65.575,109.091702 C65.545,109.061851 65.455,109.00215 65.335,108.972299 C64.375,108.464837 63.355,108.106628 62.365,107.748419 C62.275,107.718568 62.215,107.658866 62.185,107.629016 L62.005,107.539463 C61.735,107.39021 61.465,107.270807 61.195,107.151404 L60.895,107.032001 C60.385,106.823046 59.965,106.58424 59.605,106.315583 L59.365,106.136478 C58.645,105.569314 58.045,104.852896 57.835,103.927523 C57.835,103.837971 57.805,103.718568 57.805,103.629016 C57.475,102.58424 57.685,101.479762 58.285,100.643941 L58.465,100.375284 L58.615,100.166329 L58.795,99.8976724 C59.155,99.5096127 59.545,99.2111052 59.995,98.9722992 L60.295,98.8528963 C60.595,98.7334933 60.895,98.643941 61.225,98.5842395 C61.375,98.5842395 61.465,98.5842395 61.555,98.5543888 C62.635,98.4648365 63.715,98.4349858 64.765,98.7931948 C64.795,98.7931948 64.885,98.8230455 65.005,98.8528963 C65.275,98.9125977 65.485,99.00215 65.695,99.121553 L65.935,99.2708067 C66.925,99.7782694 67.585,100.554389 67.915,101.599165 L68.005,101.867822 C68.095,102.136478 68.125,102.405135 68.095,102.733493 C68.095,103.121553 67.495,103.121553 67.495,102.733493 C67.525,102.464837 67.495,102.226031 67.405,101.987225 L67.315,101.718568 C67.075,100.793195 66.355,100.136478 65.485,99.6887171 L65.275,99.5991649 C65.125,99.5096127 64.945,99.4499112 64.795,99.4200604 C64.675,99.3902097 64.585,99.3603589 64.555,99.3603589 C63.625,99.1514037 62.725,99.00215 61.795,99.0917022 C61.675,99.0917022 61.585,99.0917022 61.525,99.121553 C61.075,99.2111052 60.715,99.3305082 60.265,99.5394634 L60.025,99.6887171 Z M86.005,99.3603589 C86.005,99.240956 86.005,99.1514037 86.035,99.0917022 C85.945,98.4648365 86.275,97.7185679 85.735,97.3603589 C85.135,97.0320007 84.355,97.2708067 83.665,97.240956 L82.855,97.240956 L82.495,97.240956 C81.895,97.240956 81.265,97.3305082 80.665,97.240956 L80.335,97.240956 C80.005,97.2111052 79.705,97.2111052 79.405,97.240956 C79.255,97.240956 79.135,97.240956 79.045,97.2111052 L78.565,97.2111052 L78.325,97.2111052 C77.875,97.240956 77.545,97.240956 77.095,97.240956 L76.855,97.240956 C76.645,97.2708067 76.495,97.2708067 76.285,97.2708067 L75.685,97.2708067 C74.995,97.240956 74.305,97.1812545 73.585,97.2708067 C73.375,97.2111052 73.195,97.2111052 73.045,97.2708067 C72.835,97.3603589 72.685,97.5693142 72.655,97.9573739 C72.625,98.0170754 72.625,98.1066276 72.655,98.1961798 C72.685,99.0618515 72.595,99.8976724 72.685,100.763344 L72.775,101.032001 C72.805,101.091702 72.835,101.181254 72.925,101.300657 L73.165,101.42006 L73.375,101.42006 C73.585,101.42006 73.795,101.39021 74.005,101.39021 L74.215,101.39021 C74.965,101.42006 75.415,101.42006 76.165,101.42006 C76.225,101.39021 76.315,101.39021 76.465,101.39021 L76.975,101.39021 C77.035,101.42006 77.095,101.42006 77.185,101.42006 L77.275,101.42006 C77.395,101.778269 77.365,102.166329 77.365,102.554389 L77.365,102.882747 C77.275,103.509613 77.275,104.166329 77.305,104.793195 L77.305,107.091702 C77.335,107.330508 77.335,107.569314 77.305,107.80812 C77.305,107.927523 77.305,108.017075 77.335,108.106628 L77.335,108.405135 C77.335,109.211105 77.245,110.046926 77.335,110.852896 L77.335,111.151404 C77.305,111.658866 77.095,112.136478 77.185,112.643941 L77.185,113.151404 C77.185,114.076777 77.155,114.972299 77.245,115.897672 L77.245,116.166329 C77.245,116.882747 77.005,117.837971 77.635,118.226031 L77.815,118.285732 L78.025,118.285732 C78.085,118.315583 78.175,118.315583 78.295,118.315583 C78.445,118.345434 78.625,118.345434 78.775,118.345434 C78.925,118.345434 79.015,118.345434 79.105,118.315583 L79.345,118.315583 C79.705,118.315583 80.035,118.285732 80.395,118.285732 C80.485,118.285732 80.575,118.255881 80.665,118.255881 C80.995,118.166329 81.295,118.046926 81.445,117.658866 C81.445,117.569314 81.475,117.479762 81.475,117.360359 C81.505,117.181254 81.475,116.972299 81.415,116.733493 L81.415,115.658866 C81.415,114.823046 81.445,113.957374 81.415,113.211105 L81.415,113.00215 C81.505,111.927523 81.475,110.852896 81.505,109.778269 L81.505,109.449911 C81.535,108.882747 81.565,108.405135 81.535,107.837971 L81.535,106.464837 C81.535,105.867822 81.505,103.957374 81.505,101.987225 L81.505,101.80812 C81.505,101.658866 81.565,101.539463 81.535,101.39021 C81.895,101.42006 82.135,101.42006 82.465,101.42006 C82.555,101.42006 82.645,101.42006 82.675,101.39021 L83.635,101.39021 L83.845,101.39021 C84.055,101.39021 84.265,101.39021 84.475,101.42006 L84.715,101.42006 C85.285,101.509613 85.765,101.449911 85.975,100.882747 C86.005,100.793195 86.035,100.733493 86.035,100.673792 C86.125,100.226031 86.005,99.8081201 86.005,99.3603589 L86.005,99.3603589 Z M84.775,99.4200604 C84.685,99.5096127 84.625,99.5394634 84.565,99.5096127 C83.635,99.4797619 82.705,99.5394634 81.775,99.5394634 L81.535,99.5394634 L80.365,99.5394634 L80.125,99.5394634 L79.855,99.5394634 L79.645,99.5394634 L79.645,99.7782694 L79.645,101.300657 L79.645,102.226031 C79.555,102.942448 79.525,103.688717 79.615,104.405135 C79.645,104.61409 79.645,104.793195 79.645,105.00215 L79.645,111.121553 C79.615,111.599165 79.615,112.106628 79.615,112.58424 L79.615,112.882747 C79.765,113.748419 79.495,114.58424 79.585,115.449911 C79.585,115.569314 79.585,115.658866 79.615,115.688717 C79.615,115.897672 79.615,116.046926 79.645,116.19618 L79.645,116.852896 C79.645,117.032001 79.555,117.121553 79.345,117.121553 C79.255,117.121553 79.165,117.091702 79.135,117.061851 C79.045,116.823046 79.045,116.554389 79.015,116.315583 L79.015,115.270807 C79.105,114.643941 79.015,114.046926 79.045,113.42006 L79.045,112.106628 C79.075,112.076777 79.075,111.987225 79.075,111.897672 L79.075,111.658866 C79.075,111.270807 79.075,110.912598 79.045,110.524538 C79.045,110.405135 79.045,110.315583 79.075,110.226031 C79.105,109.360359 79.135,108.524538 79.045,107.599165 L79.045,107.360359 C79.105,106.494687 79.105,105.599165 79.045,104.733493 L79.045,104.345434 C79.015,103.658866 78.955,103.091702 79.045,102.405135 L79.045,101.629016 C79.135,100.882747 79.105,100.494687 79.075,99.8678216 C79.045,99.8081201 79.045,99.7185679 79.045,99.5693142 C78.835,99.5394634 78.685,99.5394634 78.535,99.5394634 L78.265,99.5394634 L76.705,99.5394634 L76.435,99.5394634 L75.865,99.5394634 L75.265,99.5394634 L74.455,99.5394634 L74.155,99.5394634 C73.945,99.5394634 73.855,99.4499112 73.855,99.240956 C74.095,98.5842395 75.145,99.121553 75.715,98.9722992 C75.925,99.00215 76.135,99.00215 76.345,99.00215 C76.585,99.0320007 76.795,99.0320007 77.005,99.0320007 L77.275,99.0320007 C77.755,99.0320007 78.205,99.00215 78.685,98.9722992 C78.745,98.9424485 78.835,98.9424485 78.985,98.9424485 L79.285,98.9424485 L79.555,98.9424485 C79.615,98.9722992 79.705,98.9722992 79.825,98.9722992 C80.455,99.00215 81.085,99.00215 81.685,98.9722992 L81.955,98.9722992 C82.705,98.9424485 83.485,98.9125977 84.235,98.9125977 C84.295,98.9424485 84.385,98.9424485 84.475,98.9424485 L84.715,99.00215 C84.835,99.0320007 84.865,99.2708067 84.775,99.4200604 L84.775,99.4200604 Z M103.405,107.42006 C103.435,106.464837 103.495,105.479762 103.405,104.494687 C103.375,104.106628 103.375,103.718568 103.285,103.270807 C103.255,103.151404 103.255,103.00215 103.255,102.882747 L103.105,101.957374 C103.105,101.867822 103.075,101.748419 103.075,101.658866 C103.045,101.300657 102.955,101.00215 102.865,100.673792 L102.745,100.345434 C102.295,99.4797619 101.695,98.7036425 101.005,98.0170754 L100.855,97.8976724 C99.895,97.0917022 98.635,96.9125977 97.435,96.7931948 L96.985,96.7931948 C95.635,96.882747 94.255,96.7036425 92.965,97.1812545 L92.575,97.3305082 C91.885,97.6588664 91.255,97.9573739 90.775,98.524538 L90.535,98.7931948 C90.325,99.0618515 90.115,99.3305082 89.965,99.6588664 C89.755,100.046926 89.545,100.494687 89.395,101.00215 C89.125,101.748419 89.005,102.554389 88.915,103.360359 C88.825,104.106628 88.765,104.852896 88.735,105.569314 C88.705,106.554389 88.645,107.569314 88.645,108.554389 C88.645,109.032001 88.615,109.539463 88.615,110.017075 L88.615,110.375284 C88.585,110.942448 88.615,111.509613 88.645,112.076777 C88.675,112.136478 88.675,112.226031 88.675,112.345434 C88.675,113.181254 88.705,113.987225 88.615,114.823046 L88.615,115.061851 C88.585,115.151404 88.585,115.300657 88.585,115.509613 C88.585,115.658866 88.585,115.748419 88.555,115.837971 C88.585,116.524538 88.315,117.211105 88.675,117.837971 C89.005,118.405135 89.785,118.285732 90.355,118.315583 C90.445,118.285732 90.535,118.285732 90.685,118.285732 C91.195,118.255881 91.705,118.166329 92.275,118.19618 C92.365,118.19618 92.455,118.166329 92.545,118.076777 C92.755,117.867822 92.755,117.449911 92.785,117.121553 L92.785,116.763344 C92.755,116.554389 92.755,116.315583 92.785,116.106628 L92.785,115.629016 C92.785,115.300657 92.815,115.032001 92.845,114.703643 C92.845,114.554389 92.845,114.464837 92.875,114.405135 C92.875,113.449911 92.845,112.464837 92.875,111.509613 C92.845,111.479762 92.845,111.449911 92.845,111.360359 C93.835,111.360359 94.795,111.39021 95.785,111.39021 L97.705,111.39021 C98.155,111.39021 98.575,111.449911 99.025,111.479762 L99.025,111.688717 C99.025,112.136478 98.995,112.494687 98.995,112.942448 C98.965,113.032001 98.965,113.181254 98.965,113.360359 C98.965,113.509613 98.995,113.658866 98.995,113.80812 L98.995,114.285732 C99.085,115.330508 98.785,116.345434 98.935,117.39021 C98.995,117.80812 99.205,118.076777 99.565,118.166329 C99.655,118.255881 99.775,118.226031 99.925,118.255881 C100.285,118.285732 100.735,118.315583 101.215,118.315583 L101.545,118.315583 C102.175,118.226031 103.135,118.494687 103.315,117.658866 C103.525,116.793195 103.345,115.927523 103.315,115.061851 C103.315,114.972299 103.315,114.882747 103.285,114.852896 L103.285,113.80812 C103.285,113.539463 103.285,113.240956 103.315,112.972299 C103.345,112.882747 103.345,112.733493 103.345,112.524538 C103.375,111.718568 103.375,111.032001 103.375,110.226031 C103.375,110.076777 103.375,109.957374 103.345,109.748419 L103.345,108.912598 C103.375,108.405135 103.405,107.927523 103.405,107.42006 L103.405,107.42006 Z M101.605,110.703643 C101.605,110.972299 101.605,111.240956 101.575,111.569314 L101.575,111.867822 C101.575,112.106628 101.545,112.375284 101.545,112.643941 L101.545,112.912598 C101.545,113.837971 101.575,114.763344 101.485,115.718568 L101.485,116.464837 C101.485,116.852896 100.885,116.852896 100.885,116.464837 L100.885,115.569314 C100.975,114.733493 100.915,113.927523 100.915,113.091702 C100.945,113.032001 100.945,112.942448 100.945,112.793195 C100.945,112.524538 100.975,112.255881 100.975,111.927523 L100.975,111.718568 C100.975,111.629016 101.005,111.599165 101.005,111.509613 C101.005,110.942448 101.035,110.434986 101.035,109.867822 L101.035,109.658866 L98.605,109.658866 C97.795,109.629016 97.075,109.569314 96.265,109.569314 C95.995,109.539463 95.725,109.539463 95.395,109.539463 L95.185,109.539463 C94.255,109.509613 93.295,109.539463 92.365,109.449911 C92.245,109.449911 92.155,109.449911 92.095,109.42006 L90.865,109.42006 C90.835,109.867822 90.835,110.285732 90.835,110.733493 L90.835,113.688717 C90.835,114.673792 90.745,115.629016 90.745,116.61409 C90.745,117.00215 90.145,117.00215 90.145,116.61409 C90.145,115.688717 90.235,114.852896 90.235,113.927523 L90.235,111.270807 C90.235,110.285732 90.235,109.300657 90.325,108.315583 C90.415,107.360359 90.445,106.375284 90.535,105.42006 C90.595,104.434986 90.715,103.479762 90.925,102.61409 C91.135,101.80812 91.285,100.972299 91.765,100.285732 C92.185,99.6887171 92.755,99.240956 93.445,98.9125977 C93.805,98.763344 94.135,98.643941 94.495,98.5543888 C94.945,98.4648365 95.275,98.4946873 95.725,98.4946873 L96.445,98.4946873 C96.535,98.4946873 96.625,98.4946873 96.685,98.524538 C97.375,98.524538 98.005,98.643941 98.605,98.9125977 L98.845,99.00215 C99.775,99.3902097 100.375,100.19618 100.825,101.121553 L100.915,101.360359 C101.005,101.569314 101.005,101.718568 101.095,101.867822 L101.155,102.136478 C101.155,102.226031 101.185,102.226031 101.185,102.315583 C101.395,103.240956 101.395,104.106628 101.485,105.032001 L101.485,105.300657 C101.515,105.569314 101.545,105.837971 101.545,106.106628 C101.545,106.19618 101.575,106.255881 101.575,106.345434 L101.635,107.778269 C101.635,108.763344 101.635,109.718568 101.605,110.703643 L101.605,110.703643 Z M100.945,106.136478 C100.915,106.046926 100.915,105.957374 100.915,105.837971 L100.855,105.330508 L100.855,105.061851 C100.825,104.136478 100.795,103.300657 100.585,102.375284 C100.585,102.285732 100.555,102.226031 100.555,102.136478 L100.285,101.42006 L100.195,101.211105 C99.835,100.524538 99.385,99.8379709 98.635,99.5991649 L98.395,99.5096127 C97.825,99.2708067 97.255,99.1812545 96.655,99.0917022 L95.485,99.0917022 C95.125,99.0917022 94.765,99.0917022 94.405,99.1812545 C93.715,99.3603589 93.115,99.6887171 92.605,100.19618 C92.335,100.464837 92.155,100.733493 92.005,101.00215 C91.795,101.360359 91.735,101.778269 91.645,102.166329 C91.405,103.091702 91.255,103.987225 91.165,104.912598 C91.075,105.867822 91.045,106.823046 90.955,107.80812 C90.925,108.136478 90.895,108.494687 90.895,108.823046 L91.285,108.823046 C91.615,108.793195 91.975,108.793195 92.335,108.823046 C92.425,108.823046 92.455,108.852896 92.545,108.852896 C93.385,108.942448 94.255,108.912598 95.095,108.942448 L95.365,108.942448 C95.755,108.942448 96.115,108.942448 96.505,108.972299 L98.785,109.061851 L101.035,109.061851 C101.035,108.375284 101.035,107.658866 101.005,106.972299 C101.005,106.703643 100.975,106.405135 100.945,106.136478 L100.945,106.136478 Z M97.735,107.211105 C97.105,107.181254 96.475,107.211105 95.785,107.211105 C94.825,107.211105 93.835,107.181254 92.875,107.181254 C92.905,106.315583 92.905,105.479762 92.995,104.61409 C92.995,104.315583 93.025,103.987225 93.085,103.658866 C93.085,103.569314 93.115,103.479762 93.115,103.39021 C93.145,103.032001 93.235,102.703643 93.325,102.405135 C93.385,102.255881 93.475,102.136478 93.565,101.987225 C93.595,101.927523 93.625,101.837971 93.715,101.718568 L93.925,101.509613 C94.165,101.240956 94.435,101.061851 94.765,100.972299 L95.065,100.882747 C95.935,100.793195 96.895,100.852896 97.705,101.240956 L97.885,101.360359 L98.065,101.509613 C98.155,101.629016 98.245,101.718568 98.335,101.867822 C98.725,102.345434 98.815,102.912598 98.905,103.509613 C99.025,103.748419 99.055,104.106628 99.055,104.345434 L99.115,104.673792 C99.085,105.181254 99.085,105.688717 99.115,106.226031 C99.115,106.315583 99.145,106.434986 99.145,106.524538 C99.145,106.793195 99.175,107.032001 99.175,107.300657 C98.695,107.270807 98.215,107.211105 97.735,107.211105 L97.735,107.211105 Z M119.245,99.3603589 C119.245,99.240956 119.245,99.1514037 119.275,99.0917022 C119.185,98.4648365 119.515,97.7185679 118.975,97.3603589 C118.375,97.0320007 117.595,97.2708067 116.905,97.240956 L116.095,97.240956 L115.735,97.240956 C115.135,97.240956 114.505,97.3305082 113.905,97.240956 L113.575,97.240956 C113.245,97.2111052 112.945,97.2111052 112.645,97.240956 C112.495,97.240956 112.375,97.240956 112.285,97.2111052 L111.805,97.2111052 L111.565,97.2111052 C111.115,97.240956 110.785,97.240956 110.335,97.240956 L110.095,97.240956 C109.885,97.2708067 109.735,97.2708067 109.525,97.2708067 L108.925,97.2708067 C108.235,97.240956 107.545,97.1812545 106.825,97.2708067 C106.615,97.2111052 106.435,97.2111052 106.285,97.2708067 C106.075,97.3603589 105.925,97.5693142 105.895,97.9573739 C105.865,98.0170754 105.865,98.1066276 105.895,98.1961798 C105.925,99.0618515 105.835,99.8976724 105.925,100.763344 L106.015,101.032001 C106.045,101.091702 106.075,101.181254 106.165,101.300657 L106.405,101.42006 L106.615,101.42006 C106.825,101.42006 107.035,101.39021 107.245,101.39021 L107.455,101.39021 C108.205,101.42006 108.655,101.42006 109.405,101.42006 C109.465,101.39021 109.555,101.39021 109.705,101.39021 L110.215,101.39021 C110.275,101.42006 110.335,101.42006 110.425,101.42006 L110.515,101.42006 C110.635,101.778269 110.605,102.166329 110.605,102.554389 L110.605,102.882747 C110.515,103.509613 110.515,104.166329 110.545,104.793195 L110.545,107.091702 C110.575,107.330508 110.575,107.569314 110.545,107.80812 C110.545,107.927523 110.545,108.017075 110.575,108.106628 L110.575,108.405135 C110.575,109.211105 110.485,110.046926 110.575,110.852896 L110.575,111.151404 C110.545,111.658866 110.335,112.136478 110.425,112.643941 L110.425,113.151404 C110.425,114.076777 110.395,114.972299 110.485,115.897672 L110.485,116.166329 C110.485,116.882747 110.245,117.837971 110.875,118.226031 L111.055,118.285732 L111.265,118.285732 C111.325,118.315583 111.415,118.315583 111.535,118.315583 C111.685,118.345434 111.865,118.345434 112.015,118.345434 C112.165,118.345434 112.255,118.345434 112.345,118.315583 L112.585,118.315583 C112.945,118.315583 113.275,118.285732 113.635,118.285732 C113.725,118.285732 113.815,118.255881 113.905,118.255881 C114.235,118.166329 114.535,118.046926 114.685,117.658866 C114.685,117.569314 114.715,117.479762 114.715,117.360359 C114.745,117.181254 114.715,116.972299 114.655,116.733493 L114.655,115.658866 C114.655,114.823046 114.685,113.957374 114.655,113.211105 L114.655,113.00215 C114.745,111.927523 114.715,110.852896 114.745,109.778269 L114.745,109.449911 C114.775,108.882747 114.805,108.405135 114.775,107.837971 L114.775,106.464837 C114.775,105.867822 114.745,103.957374 114.745,101.987225 L114.745,101.80812 C114.745,101.658866 114.805,101.539463 114.775,101.39021 C115.135,101.42006 115.375,101.42006 115.705,101.42006 C115.795,101.42006 115.885,101.42006 115.915,101.39021 L116.875,101.39021 L117.085,101.39021 C117.295,101.39021 117.505,101.39021 117.715,101.42006 L117.955,101.42006 C118.525,101.509613 119.005,101.449911 119.215,100.882747 C119.245,100.793195 119.275,100.733493 119.275,100.673792 C119.365,100.226031 119.245,99.8081201 119.245,99.3603589 L119.245,99.3603589 Z M118.015,99.4200604 C117.925,99.5096127 117.865,99.5394634 117.805,99.5096127 C116.875,99.4797619 115.945,99.5394634 115.015,99.5394634 L114.775,99.5394634 L113.605,99.5394634 L113.365,99.5394634 L113.095,99.5394634 L112.885,99.5394634 L112.885,99.7782694 L112.885,101.300657 L112.885,102.226031 C112.795,102.942448 112.765,103.688717 112.855,104.405135 C112.885,104.61409 112.885,104.793195 112.885,105.00215 L112.885,111.121553 C112.855,111.599165 112.855,112.106628 112.855,112.58424 L112.855,112.882747 C113.005,113.748419 112.735,114.58424 112.825,115.449911 C112.825,115.569314 112.825,115.658866 112.855,115.688717 C112.855,115.897672 112.855,116.046926 112.885,116.19618 L112.885,116.852896 C112.885,117.032001 112.795,117.121553 112.585,117.121553 C112.495,117.121553 112.405,117.091702 112.375,117.061851 C112.285,116.823046 112.285,116.554389 112.255,116.315583 L112.255,115.270807 C112.345,114.643941 112.255,114.046926 112.285,113.42006 L112.285,112.106628 C112.315,112.076777 112.315,111.987225 112.315,111.897672 L112.315,111.658866 C112.315,111.270807 112.315,110.912598 112.285,110.524538 C112.285,110.405135 112.285,110.315583 112.315,110.226031 C112.345,109.360359 112.375,108.524538 112.285,107.599165 L112.285,107.360359 C112.345,106.494687 112.345,105.599165 112.285,104.733493 L112.285,104.345434 C112.255,103.658866 112.195,103.091702 112.285,102.405135 L112.285,101.629016 C112.375,100.882747 112.345,100.494687 112.315,99.8678216 C112.285,99.8081201 112.285,99.7185679 112.285,99.5693142 C112.075,99.5394634 111.925,99.5394634 111.775,99.5394634 L111.505,99.5394634 L109.945,99.5394634 L109.675,99.5394634 L109.105,99.5394634 L108.505,99.5394634 L107.695,99.5394634 L107.395,99.5394634 C107.185,99.5394634 107.095,99.4499112 107.095,99.240956 C107.335,98.5842395 108.385,99.121553 108.955,98.9722992 C109.165,99.00215 109.375,99.00215 109.585,99.00215 C109.825,99.0320007 110.035,99.0320007 110.245,99.0320007 L110.515,99.0320007 C110.995,99.0320007 111.445,99.00215 111.925,98.9722992 C111.985,98.9424485 112.075,98.9424485 112.225,98.9424485 L112.525,98.9424485 L112.795,98.9424485 C112.855,98.9722992 112.945,98.9722992 113.065,98.9722992 C113.695,99.00215 114.325,99.00215 114.925,98.9722992 L115.195,98.9722992 C115.945,98.9424485 116.725,98.9125977 117.475,98.9125977 C117.535,98.9424485 117.625,98.9424485 117.715,98.9424485 L117.955,99.00215 C118.075,99.0320007 118.105,99.2708067 118.015,99.4200604 L118.015,99.4200604 Z M126.235,112.912598 L126.235,108.912598 C126.235,108.046926 126.355,107.151404 126.265,106.285732 C126.265,106.19618 126.295,106.106628 126.295,105.987225 C126.295,105.599165 126.325,105.240956 126.355,104.793195 L126.355,102.166329 C126.355,102.017075 126.325,101.061851 126.325,100.017075 L126.325,99.7782694 C126.355,99.5693142 126.355,99.3902097 126.355,99.1812545 L126.355,98.8528963 C126.355,98.7334933 126.355,98.643941 126.325,98.6140903 C126.415,98.2558813 126.355,97.8379709 126.205,97.5693142 C126.175,97.4797619 126.145,97.4200604 126.055,97.3902097 C126.025,97.3603589 125.965,97.3006574 125.875,97.2708067 C124.945,97.121553 124.135,97.1812545 123.205,97.2111052 C123.115,97.2111052 123.025,97.240956 122.935,97.240956 C122.605,97.3305082 122.305,97.4499112 122.155,97.8379709 C122.155,97.9275231 122.125,98.0170754 122.125,98.1364783 C122.095,98.3155828 122.125,98.524538 122.185,98.763344 L122.185,99.1812545 L122.185,99.6290157 L122.185,99.8379709 L122.185,104.375284 C122.155,104.405135 122.155,104.434986 122.155,104.494687 L122.155,104.793195 C122.155,104.882747 122.125,104.972299 122.125,105.061851 C122.095,105.927523 122.035,106.793195 122.065,107.658866 L122.065,107.927523 L122.065,108.763344 L122.065,109.032001 C122.065,109.897672 122.095,113.688717 122.095,116.19618 L122.095,116.405135 C122.095,117.00215 121.855,117.80812 122.185,118.076777 C122.275,118.166329 122.305,118.136478 122.395,118.226031 C122.725,118.345434 123.115,118.375284 123.535,118.345434 L123.835,118.345434 C124.675,118.166329 125.725,118.763344 126.115,118.046926 C126.355,117.539463 126.085,116.852896 126.175,116.166329 L126.175,115.897672 C126.175,115.688717 126.205,115.539463 126.235,115.330508 L126.235,115.121553 L126.235,112.912598 Z M124.405,111.061851 C124.375,111.539463 124.375,112.046926 124.375,112.524538 L124.375,112.823046 C124.525,113.688717 124.255,114.524538 124.345,115.39021 C124.345,115.509613 124.345,115.599165 124.375,115.629016 C124.375,115.837971 124.375,115.987225 124.405,116.136478 L124.405,116.793195 C124.405,116.972299 124.315,117.061851 124.105,117.061851 C124.015,117.061851 123.925,117.032001 123.895,117.00215 C123.805,116.763344 123.805,116.494687 123.775,116.255881 L123.775,115.211105 C123.865,114.58424 123.775,113.987225 123.805,113.360359 L123.805,112.046926 C123.835,112.017075 123.835,111.927523 123.835,111.837971 L123.835,111.599165 C123.835,111.211105 123.835,110.852896 123.805,110.464837 C123.805,110.345434 123.805,110.255881 123.835,110.166329 C123.865,109.300657 123.895,108.464837 123.805,107.539463 L123.805,107.300657 C123.865,106.434986 123.865,105.539463 123.805,104.673792 L123.805,104.285732 C123.775,103.599165 123.715,103.032001 123.805,102.345434 L123.805,101.569314 C123.895,100.703643 123.895,99.8379709 123.805,99.00215 L123.805,98.7931948 C123.805,98.4051351 124.405,98.4051351 124.405,98.7931948 L124.405,99.2111052 C124.435,99.8678216 124.435,100.554389 124.405,101.240956 L124.405,102.166329 C124.315,102.882747 124.285,103.629016 124.375,104.345434 C124.405,104.554389 124.405,104.733493 124.405,104.942448 L124.405,107.39021 L124.405,111.061851 Z M144.175,111.00215 C144.115,110.942448 143.995,110.882747 143.845,110.823046 C143.755,110.793195 143.605,110.793195 143.395,110.793195 C142.375,110.942448 141.265,110.494687 140.335,110.972299 C140.185,111.061851 140.095,111.211105 140.035,111.360359 C139.945,111.509613 139.915,111.718568 139.915,111.927523 C139.915,112.017075 139.885,112.046926 139.885,112.136478 L139.825,112.434986 C139.735,112.793195 139.615,113.151404 139.345,113.479762 C139.255,113.629016 139.165,113.718568 139.075,113.837971 L138.895,113.987225 L138.715,114.106628 C137.905,114.494687 136.945,114.554389 136.075,114.464837 L135.775,114.375284 C135.445,114.285732 135.175,114.106628 134.935,113.837971 L134.725,113.629016 C134.635,113.509613 134.605,113.42006 134.575,113.360359 C134.485,113.211105 134.395,113.091702 134.335,112.942448 C134.245,112.643941 134.155,112.315583 134.125,111.957374 C134.125,111.867822 134.095,111.778269 134.095,111.688717 C134.035,111.360359 134.005,111.061851 134.005,110.733493 C133.975,110.285732 133.945,109.927523 133.945,109.539463 C133.945,109.42006 133.915,109.330508 133.915,109.240956 C133.915,109.121553 133.885,109.032001 133.885,108.912598 C133.885,108.046926 134.005,107.151404 133.915,106.285732 C133.915,106.19618 133.945,106.106628 133.945,105.987225 C133.945,105.599165 133.975,105.240956 134.005,104.793195 C134.005,104.494687 134.035,104.166329 134.095,103.837971 C134.095,103.748419 134.125,103.658866 134.125,103.569314 C134.155,103.211105 134.245,102.882747 134.335,102.58424 C134.395,102.434986 134.485,102.315583 134.575,102.166329 C134.605,102.106628 134.635,102.017075 134.725,101.897672 L134.935,101.688717 C135.175,101.42006 135.445,101.240956 135.775,101.151404 L136.075,101.061851 C136.945,100.972299 137.905,101.032001 138.715,101.42006 L138.895,101.539463 L139.075,101.688717 C139.165,101.80812 139.255,101.897672 139.345,102.046926 C139.555,102.315583 139.675,102.554389 139.765,102.823046 L139.825,103.091702 C139.915,103.479762 139.945,103.927523 140.185,104.19618 C140.395,104.405135 140.785,104.315583 141.115,104.315583 L141.325,104.315583 L141.925,104.315583 L142.135,104.315583 C142.825,104.464837 143.485,104.494687 144.085,104.166329 C144.085,104.106628 144.085,104.046926 144.115,104.017075 C144.445,103.449911 144.235,102.793195 144.145,102.19618 L144.085,101.957374 C143.995,101.509613 143.905,101.121553 143.665,100.733493 C143.575,100.524538 143.455,100.315583 143.365,100.166329 C143.215,99.8081201 142.975,99.4499112 142.675,99.0917022 L142.465,98.882747 C142.135,98.5543888 141.775,98.2558813 141.415,98.0170754 L141.175,97.8379709 C140.335,97.3305082 139.375,97.1812545 138.445,96.9722992 L137.995,96.9722992 C136.645,97.0618515 135.265,96.882747 133.975,97.3603589 L133.585,97.5096127 C132.895,97.8379709 132.265,98.1364783 131.785,98.7036425 L131.545,98.9722992 C131.335,99.240956 131.125,99.5096127 130.975,99.8379709 C130.765,100.226031 130.555,100.673792 130.405,101.181254 C130.135,101.927523 130.015,102.733493 129.925,103.539463 L129.865,104.106628 C129.865,104.19618 129.835,104.285732 129.835,104.375284 L129.775,105.181254 C129.775,105.270807 129.745,105.360359 129.745,105.449911 C129.655,106.19618 129.655,106.912598 129.685,107.658866 L129.685,107.927523 C129.775,108.733493 129.745,109.479762 129.775,110.285732 L129.775,110.554389 C129.805,111.032001 129.835,111.509613 129.925,111.987225 C130.015,112.793195 130.135,113.599165 130.405,114.345434 C130.555,114.852896 130.765,115.300657 130.975,115.688717 C131.125,116.017075 131.335,116.285732 131.545,116.554389 L131.785,116.823046 C132.265,117.39021 132.895,117.688717 133.585,118.017075 L133.975,118.166329 C135.265,118.643941 136.645,118.464837 137.995,118.554389 L138.445,118.554389 C139.375,118.345434 140.335,118.19618 141.175,117.688717 L141.415,117.509613 C141.775,117.270807 142.135,116.972299 142.465,116.643941 L142.675,116.434986 C143.275,115.688717 143.665,114.823046 144.055,113.957374 C144.055,113.867822 144.085,113.778269 144.085,113.688717 C144.085,113.599165 144.115,113.479762 144.115,113.39021 L144.265,112.464837 L144.265,112.285732 C144.355,111.837971 144.415,111.270807 144.175,111.00215 L144.175,111.00215 Z M142.555,112.852896 C142.555,112.942448 142.555,113.00215 142.525,113.032001 C142.525,113.091702 142.495,113.181254 142.465,113.300657 C142.465,113.39021 142.435,113.479762 142.405,113.599165 C142.075,114.524538 141.475,115.270807 140.785,115.897672 C140.695,115.987225 140.665,115.957374 140.575,116.046926 C140.485,116.136478 140.425,116.106628 140.335,116.19618 C139.615,116.643941 138.805,117.00215 137.935,117.032001 C137.845,117.032001 137.785,117.032001 137.725,117.061851 C137.515,117.061851 137.365,117.061851 137.155,117.091702 L136.915,117.091702 C136.645,117.091702 136.405,117.091702 136.135,117.061851 C136.045,117.061851 135.955,117.032001 135.865,117.032001 C135.055,116.882747 134.305,116.58424 133.615,116.076777 C133.525,115.987225 133.435,115.957374 133.345,115.867822 L133.135,115.688717 C132.625,115.181254 132.295,114.524538 132.055,113.837971 L131.965,113.569314 L131.875,113.300657 L131.785,113.032001 C131.575,112.226031 131.515,111.39021 131.425,110.554389 L131.425,110.285732 C131.335,109.360359 131.365,108.494687 131.365,107.629016 L131.365,107.360359 C131.365,106.643941 131.395,105.927523 131.395,105.240956 C131.425,105.181254 131.425,105.091702 131.425,104.972299 C131.455,104.464837 131.485,103.957374 131.575,103.39021 C131.575,103.300657 131.605,103.211105 131.605,103.091702 L131.665,102.852896 C131.725,102.434986 131.845,102.017075 131.995,101.599165 L132.085,101.330508 C132.475,100.58424 132.895,99.7782694 133.645,99.3305082 C133.765,99.3006574 133.855,99.2708067 133.885,99.240956 C134.185,99.0917022 134.485,98.9722992 134.785,98.882747 C134.815,98.8528963 134.905,98.8230455 135.025,98.7931948 C135.535,98.7036425 136.015,98.643941 136.465,98.643941 L136.735,98.643941 L137.545,98.643941 C137.605,98.6737918 137.695,98.6737918 137.815,98.6737918 C138.505,98.763344 139.165,98.7931948 139.855,99.0618515 C139.975,99.0917022 140.065,99.121553 140.095,99.1514037 C140.155,99.1812545 140.245,99.2111052 140.365,99.3006574 C141.175,99.8678216 141.925,100.554389 142.165,101.539463 L142.225,101.80812 C142.315,102.076777 142.345,102.345434 142.435,102.61409 C142.525,102.972299 141.955,103.121553 141.835,102.763344 C141.745,102.524538 141.715,102.255881 141.685,102.017075 C141.655,101.897672 141.625,101.80812 141.625,101.778269 C141.415,100.972299 140.935,100.405135 140.245,99.9573739 C140.155,99.9275231 140.125,99.8678216 140.035,99.8379709 C139.195,99.3305082 138.235,99.240956 137.275,99.240956 L137.035,99.240956 L136.765,99.240956 L136.525,99.240956 C136.075,99.240956 135.715,99.240956 135.265,99.3305082 L135.025,99.3902097 C134.725,99.4797619 134.485,99.5991649 134.275,99.6887171 C134.155,99.7185679 134.065,99.7782694 134.035,99.8081201 C133.315,100.166329 132.895,100.852896 132.565,101.569314 C132.535,101.688717 132.505,101.778269 132.505,101.80812 C132.385,102.136478 132.295,102.524538 132.235,102.972299 C132.235,103.061851 132.205,103.121553 132.205,103.211105 C132.205,103.300657 132.175,103.330508 132.175,103.42006 C132.085,103.569314 132.115,103.718568 132.085,103.867822 C132.085,104.19618 132.055,104.554389 131.995,104.912598 C131.995,105.00215 131.965,105.032001 131.965,105.121553 C131.995,105.867822 131.995,106.61409 131.995,107.330508 L131.995,107.629016 C131.965,108.494687 131.935,109.360359 132.025,110.226031 L132.025,110.494687 C132.055,111.360359 132.175,112.19618 132.385,113.00215 C132.415,113.032001 132.445,113.121553 132.475,113.240956 L132.535,113.449911 C132.565,113.569314 132.595,113.658866 132.595,113.688717 C132.805,114.255881 133.075,114.733493 133.465,115.181254 L133.645,115.330508 L133.795,115.449911 C133.885,115.479762 133.855,115.539463 133.945,115.569314 C134.635,116.076777 135.475,116.405135 136.345,116.494687 L136.615,116.494687 C136.705,116.494687 136.825,116.524538 136.915,116.524538 C137.005,116.524538 137.065,116.494687 137.155,116.494687 C137.335,116.494687 137.455,116.494687 137.545,116.464837 L137.725,116.464837 C138.565,116.405135 139.345,116.136478 140.095,115.688717 C140.185,115.599165 140.215,115.629016 140.305,115.539463 C141.025,114.972299 141.505,114.136478 141.865,113.330508 C141.865,113.240956 141.895,113.181254 141.895,113.091702 L141.955,112.823046 L141.955,112.58424 C141.955,112.494687 141.985,112.434986 141.985,112.345434 C141.985,112.255881 142.015,112.166329 142.075,112.106628 C142.225,112.017075 142.345,112.017075 142.495,112.106628 C142.555,112.166329 142.585,112.226031 142.585,112.315583 C142.585,112.524538 142.555,112.643941 142.555,112.852896 L142.555,112.852896 Z M147.685,122.673792 C147.595,122.673792 147.535,122.643941 147.505,122.554389 C147.295,122.226031 147.565,121.987225 147.895,121.987225 C148.465,122.017075 148.945,122.19618 149.515,121.987225 C149.605,121.987225 149.695,121.957374 149.815,121.927523 C151.645,121.300657 151.735,119.151404 151.735,117.360359 C151.735,117.270807 151.765,117.181254 151.765,117.091702 C151.795,116.494687 151.795,115.897672 151.765,115.270807 C151.765,113.509613 151.735,111.80812 151.735,110.046926 C151.735,109.330508 151.675,108.643941 151.675,107.927523 C151.675,106.733493 151.735,105.539463 151.765,104.315583 C151.765,103.629016 151.795,103.032001 151.795,102.345434 C151.795,101.39021 151.795,100.434986 151.765,99.4797619 C151.765,98.5543888 151.765,97.6588664 151.735,96.7334933 C151.735,96.0469261 151.705,95.3902097 151.435,94.763344 C151.225,94.3155828 150.985,93.9872246 150.685,93.7484186 L150.475,93.5991649 C149.545,93.2111052 148.525,93.0917022 147.535,93.0917022 C147.445,93.0917022 147.385,93.0618515 147.325,93.00215 C147.295,92.9125977 147.235,92.882747 147.235,92.7931948 C147.235,92.5842395 147.325,92.4946873 147.535,92.4946873 C147.625,92.4648365 147.745,92.4648365 147.895,92.4648365 C148.825,92.6737918 149.845,92.5842395 150.715,93.0618515 C150.805,93.1514037 150.865,93.121553 150.955,93.2111052 C151.345,93.5096127 151.645,93.8976724 151.885,94.3454336 C152.245,95.0320007 152.335,95.7782694 152.335,96.4946873 C152.365,97.4797619 152.365,98.4349858 152.365,99.4200604 C152.395,100.345434 152.395,101.181254 152.395,102.106628 C152.395,103.867822 152.335,105.569314 152.335,107.360359 C152.335,109.151404 152.395,110.912598 152.395,112.733493 C152.305,113.718568 152.365,114.703643 152.365,115.688717 L152.365,117.151404 C152.215,119.151404 152.365,122.017075 149.605,122.58424 C149.515,122.58424 149.515,122.61409 149.425,122.61409 C148.855,122.733493 148.255,122.673792 147.685,122.673792 L147.685,122.673792 Z M149.935,109.061851 L149.935,111.778269 C149.935,112.285732 149.905,112.942448 149.905,113.509613 L149.905,113.837971 C149.935,114.405135 149.815,114.972299 149.905,115.539463 L149.905,117.360359 C149.815,118.166329 149.995,119.240956 149.605,119.987225 L149.455,120.166329 L149.245,120.345434 L148.915,120.494687 C148.795,120.554389 148.675,120.58424 148.555,120.58424 C148.195,120.673792 147.805,120.643941 147.445,120.673792 L147.175,120.673792 C146.845,120.733493 146.605,120.823046 146.395,120.972299 L146.215,121.181254 C146.005,121.897672 145.915,122.852896 146.275,123.599165 C146.335,123.688717 146.395,123.748419 146.485,123.80812 L146.725,123.987225 L146.995,124.106628 C147.925,124.226031 148.615,124.226031 149.485,124.136478 L149.785,124.136478 C150.865,124.046926 151.855,123.509613 152.665,122.823046 L152.875,122.58424 L153.235,122.136478 C153.295,122.076777 153.355,121.987225 153.385,121.897672 C153.415,121.80812 153.475,121.748419 153.505,121.718568 C153.775,120.882747 153.985,120.017075 154.075,119.151404 L154.075,116.226031 C154.075,115.539463 154.135,114.942448 154.135,114.255881 L154.135,113.360359 C154.105,112.852896 154.105,112.345434 154.105,111.778269 L154.135,111.778269 L154.135,109.867822 L154.135,107.061851 C154.135,105.539463 154.105,104.017075 154.105,103.061851 C154.105,102.494687 154.075,102.19618 154.075,102.106628 L154.075,98.5842395 L154.075,96.5543888 C154.105,95.8678216 153.985,95.2111052 153.835,94.5842395 L153.745,94.2857321 C153.655,94.0170754 153.535,93.7484186 153.385,93.5394634 C153.355,93.4499112 153.295,93.3902097 153.235,93.3006574 L152.875,92.8528963 L152.665,92.6140903 C151.855,91.9275231 150.865,91.3902097 149.785,91.3006574 L149.485,91.3006574 C148.915,91.2111052 148.465,91.2111052 147.895,91.240956 C147.805,91.240956 147.715,91.2708067 147.625,91.2708067 C146.875,91.1812545 146.155,91.6588664 146.065,92.4648365 C146.065,92.5842395 146.035,92.6737918 146.035,92.7931948 C146.005,93.1812545 146.005,93.5991649 146.155,93.9872246 C146.185,94.1066276 146.245,94.1961798 146.275,94.2260306 C146.425,94.4648365 146.635,94.6140903 146.905,94.6737918 C146.965,94.6737918 147.025,94.7036425 147.115,94.7334933 C147.505,94.7931948 147.835,94.8230455 148.105,94.7931948 C148.195,94.7931948 148.285,94.8230455 148.375,94.8230455 C148.585,94.8230455 148.705,94.8528963 148.915,94.9424485 L149.245,95.0917022 L149.455,95.2708067 L149.605,95.4499112 C149.995,96.1961798 149.815,97.2708067 149.905,98.0767768 L149.905,99.2111052 C149.995,100.076777 149.935,100.912598 149.935,101.778269 L149.995,104.673792 L149.935,106.255881 L149.935,109.061851 Z" id="(Static)-Copy-2" fill="#5D6063"></path>
            </g>
        </g>
    </g>
</svg>